<?xml version="1.0" encoding="UTF-8" standalone="no"?>
<!-- Created with Inkscape (http://www.inkscape.org/) -->

<svg
   version="1.1"
   id="svg1"
   width="939.08911"
   height="808.19824"
   viewBox="0 0 939.08911 808.19824"
   xmlns="http://www.w3.org/2000/svg"
   xmlns:svg="http://www.w3.org/2000/svg">
  <defs
     id="defs1" />
  <g
     id="g1"
     transform="translate(-48.907383,-156.73724)">
    <path
       style="fill:#000000"
       d="m 610.5,963.50584 c -5.5,-0.7863 -13.81966,-2.61973 -18.48813,-4.07429 l -8.48813,-2.64465 -4.16064,-4.16064 -4.16063,-4.16063 -1.23644,-4.48282 -1.23643,-4.48281 0.98704,-7 0.98705,-7 2.54354,-6.27879 c 3.41713,-8.43527 8.12497,-16.06711 14.75277,-23.91563 3.025,-3.58215 6.59147,-7.84394 7.92548,-9.47065 l 2.42548,-2.95765 -1.68043,-4.68864 -1.68042,-4.68864 0.005,-4.35 0.005,-4.35 3.4,-3.4 3.4,-3.4 h 1.6 1.6 v -4.92136 C 609,838.73539 604.57396,795.29356 600.43371,769 596.86159,746.31452 587.17278,704.70496 584.24393,699.4714 l -0.76813,-1.37258 -8.78891,6.92158 c -16.02066,12.61685 -31.48152,21.25741 -44.08789,24.63924 l -6.099,1.63615 -8,-10e-4 -8,-0.001 -6,-1.72331 c -11.46938,-3.2942 -25.92785,-12.234 -41.37559,-25.58289 -8.62164,-7.45024 -9.68529,-7.97944 -10.52642,-5.23724 -7.37699,24.04999 -13.45241,52.07887 -16.56404,76.41801 l -2.00307,15.668 -1.17811,23.332 -1.17811,23.33199 0.7387,9.51928 0.73869,9.51928 4.5241,1.87119 4.52409,1.87118 1.89614,3.10954 c 2.29561,3.76462 2.3892,6.51162 0.38525,11.30774 l -1.51837,3.63397 3.45459,8.08391 3.45459,8.08391 1.67525,9 1.67526,9 -0.46056,7.23869 -0.46057,7.23869 -2.92302,4.76131 -2.92302,4.76131 -8.22338,4.13487 -8.22338,4.13487 -11.71924,3.24592 c -13.7064,3.79631 -31.97121,7.12667 -52.28978,9.53438 l -14.5,1.71823 -18.5,-0.006 -18.5,-0.006 -9.17999,-1.6157 c -5.049,-0.88863 -11.72338,-2.5673 -14.83196,-3.73037 l -5.65197,-2.11467 -3.24537,-2.84947 -3.24536,-2.84946 -1.17268,-3.91404 C 274.5277,940.02928 274,935.58935 274,932.31548 V 926.363 l 1.61244,-5.4315 c 0.88683,-2.98732 2.9701,-8.1315 4.62947,-11.4315 l 3.01704,-6 7.12052,-7.00614 7.12053,-7.00613 7.01633,-3.67561 c 8.66478,-4.53916 19.61438,-7.68228 29.48367,-8.46339 l 7.5,-0.59359 7.28171,1.13642 c 4.00494,0.62503 11.47649,2.48012 16.60343,4.12243 5.12694,1.6423 9.83767,2.98601 10.46829,2.98601 H 377 v -1.53984 c 0,-0.84691 -0.9,-3.30398 -2,-5.46016 l -2,-3.92032 v -4.13555 -4.13555 l 1.66527,-2.81908 C 376.2853,860.24701 379.76438,858 382.3906,858 h 1.29649 l 0.62489,-27.25 0.6249,-27.25 1.50998,-16.5 c 2.76586,-30.22337 5.71675,-50.7748 11.07328,-77.11965 2.49235,-12.25807 9.63041,-40.51593 11.43044,-45.25035 l 0.93333,-2.45486 -8.19196,-7.21119 c -4.50557,-3.96615 -17.75146,-16.64386 -29.4353,-28.17267 l -21.24335,-20.96149 -10.75665,10.00072 c -5.91616,5.5004 -15.41913,13.67872 -21.11771,18.17404 l -10.36107,8.17332 -0.75981,-0.83893 c -1.77658,-1.96159 -28.19979,-41.4791 -27.87509,-41.68888 5.53749,-3.5776 14.85144,-11.51701 24.2287,-20.65308 l 11.87168,-11.56632 -7.12696,-8.71879 C 272.73176,514.20058 242.80324,464.67123 224.67416,418.9666 L 218.14257,402.5 213.67926,387 c -5.16004,-17.9196 -8.09829,-33.91648 -9.73486,-53 l -1.15774,-13.5 0.65866,-11 c 2.45345,-40.9743 11.50975,-69.03936 31.21514,-96.73432 l 5.83954,-8.20718 8.55873,-8.52925 8.55872,-8.52925 8.94128,-6.35045 c 10.20004,-7.24449 17.18668,-10.97014 29.46306,-15.71128 l 8.61097,-3.32556 9.93362,-1.99807 C 320.02987,159.01571 329.225,157.81661 335,157.44998 l 10.5,-0.6666 11.31601,1.14275 11.31601,1.14276 11.21159,2.89079 11.21158,2.89078 9.29179,4.03007 c 42.6647,18.50469 85.44171,63.29314 111.64953,116.89945 2.74808,5.62101 5.22308,10.21953 5.5,10.21893 0.27692,-6e-4 2.04413,-3.42766 3.92714,-7.61568 14.06846,-31.2899 49.47363,-76.27151 75.60972,-96.06074 29.27847,-22.16852 55.47214,-32.78495 86.093,-34.89393 l 10.03736,-0.69131 11.91814,1.22806 11.91813,1.22806 9.22073,2.33829 c 18.56478,4.70785 34.92362,12.88956 50.11229,25.06315 l 8.33303,6.67885 7.43093,8.49968 c 20.70767,23.68593 32.8785,51.58723 37.83104,86.72666 1.49222,10.58765 3.75845,34.69465 3.29626,35.064 -0.12335,0.0986 -5.84928,-0.24496 -12.72428,-0.76341 -6.875,-0.51845 -15.95712,-0.79622 -20.18249,-0.61726 l -7.6825,0.32537 -2.8175,2.04762 -2.81751,2.04763 -2.23,4.44802 -2.23001,4.44803 -2.46001,20 c -1.353,11 -4.05761,33.275 -6.01024,49.5 -1.95263,16.225 -5.55715,46.15 -8.01004,66.5 -2.45289,20.35 -4.76617,39.81928 -5.14062,43.26507 l -0.68082,6.26508 -11.04209,13.73492 c -6.07315,7.55421 -15.01426,18.21012 -19.86913,23.67979 C 723.97217,563.91453 720,568.69482 720,569.06773 c 0,2.20124 24.02233,22.77294 34.18197,29.27198 l 5.56343,3.55888 -0.97648,5.30071 -0.97649,5.3007 0.45295,6.50797 0.45295,6.50798 1.58585,3.06671 c 1.76328,3.4098 6.05097,8.15693 9.4206,10.43003 l 2.20478,1.48731 -1.49506,5.5 -1.49506,5.5 0.29028,7.25233 0.29028,7.25233 -0.91362,-0.002 C 766.95411,665.99817 746.7137,654.93671 738.5,649.56001 725.19949,640.85347 710.14202,628.6067 697.9177,616.55299 l -11.58229,-11.42064 -11.41771,11.5007 c -10.05038,10.12345 -37.35869,35.8261 -46.77458,44.02435 l -3.35687,2.92278 3.02886,10.95991 c 12.19007,44.1097 22.84387,104.49171 29.23988,165.72144 1.33733,12.80241 2.06599,15.85915 3.99649,16.76552 0.79669,0.37404 3.17079,1.51056 5.27579,2.52559 l 3.82727,1.84553 1.42273,2.75125 1.42273,2.75126 v 3.98456 c 0,2.19151 -0.46276,5.2017 -1.02835,6.68932 l -1.02835,2.70477 4.90044,7.11033 c 8.7211,12.65398 13.87653,24.9958 16.21147,38.80941 l 1.13236,6.69907 -1.09394,5.1009 c -1.39311,6.49581 -3.09251,9.70391 -7.25831,13.70204 l -3.33532,3.20109 -6.56615,2.97551 -6.56615,2.97551 -8.43385,1.63868 -8.43385,1.63869 -15.5,0.40246 -15.5,0.40246 z m -76,-391.39092 c 14.43198,-3.08089 27.43529,-7.51544 40,-13.6413 l 11,-5.363 8.93774,-6.23651 c 11.34481,-7.9161 22.53482,-18.51243 28.49307,-26.98141 l 4.64848,-6.60729 3.32814,2.77845 c 1.83047,1.52814 4.45305,3.06078 5.82794,3.40586 l 2.49982,0.62741 1.8824,-1.70355 L 643,516.69002 v -2.69497 -2.69497 l -2.87061,-3.96277 -2.87061,-3.96276 -4.87939,-3.10597 c -2.68367,-1.70828 -7.498,-3.85853 -10.69852,-4.77833 l -5.81914,-1.67236 -2.51699,0.63172 c -1.38434,0.34745 -3.59869,1.71344 -4.92079,3.03553 l -2.4038,2.4038 0.61326,1.59813 c 0.33729,0.87897 2.47026,2.53427 4.73992,3.67845 2.26967,1.14417 4.29302,2.22886 4.49634,2.4104 0.82163,0.73365 -7.26123,10.55073 -13.61935,16.54146 C 592.23361,533.5553 582.77757,540.29254 571,546.38262 l -10.5,5.42946 -10.5,3.52002 -10.5,3.52001 -10,1.76697 -10,1.76697 h -15 -15 l -10,-1.80571 c -19.18448,-3.46418 -38.88427,-11.54474 -52.18013,-21.40351 l -7.81987,-5.79837 -6.25,-6.92535 c -3.4375,-3.80894 -6.25,-7.21734 -6.25,-7.57422 0,-0.35688 1.125,-1.386 2.5,-2.28693 l 2.5,-1.63807 v -1.8545 c 0,-2.37943 -1.89911,-3.92921 -5.76143,-4.70168 l -3.07082,-0.61416 -5.21616,1.73253 -5.21615,1.73253 -4.86772,4.69185 L 383,520.63232 v 3.11241 3.11241 l 1.57143,1.57143 c 0.86428,0.86429 2.23663,1.57143 3.04966,1.57143 2.00498,0 6.73172,-2.51526 8.31752,-4.42603 l 1.29295,-1.5579 4.76019,6.77826 c 14.66776,20.88614 44.50782,37.39468 77.26545,42.74588 l 8.2428,1.34652 18.5,-0.31852 18.5,-0.31852 z m -22.88626,-53.59285 c 2.73721,-0.81287 7.00648,-2.82238 9.48726,-4.46558 l 4.51052,-2.98764 3.22143,-4.48577 c 1.77179,-2.46717 3.93318,-6.42016 4.8031,-8.78442 L 535.21771,493.5 v -7 -7 l -1.60226,-4.35704 c -0.88125,-2.39638 -3.18759,-6.51669 -5.1252,-9.15625 l -3.52294,-4.7992 -4.76692,-3.05892 -4.76692,-3.05892 -6.30821,-1.61609 -6.30822,-1.61609 -5.15852,0.66966 c -2.83719,0.36832 -7.49694,1.71897 -10.35502,3.00144 l -5.1965,2.33177 -4.63346,4.63347 -4.63346,4.63346 -2.17004,4.69635 L 468.5,476.5 l 7.7e-4,10 7.7e-4,10 2.64962,5 c 6.15142,11.60811 16.92626,18.12518 30.41734,18.39764 L 506.637,520 Z m -79.01946,-47.64323 5.40989,-2.0241 4.96111,-3.92153 c 9.24337,-7.30647 16.53042,-19.10525 20.24471,-32.7791 l 2.07912,-7.65411 0.0311,-12.5 0.0311,-12.5 -2.16464,-8.5 -2.16465,-8.5 -4.12883,-8.23398 -4.12883,-8.23399 -5.83411,-6.3669 -5.83411,-6.3669 -7.29804,-3.89911 L 426.5,345.5 h -9.5 -9.5 l -5.72505,2.81134 -5.72505,2.81134 -5.77495,5.68977 -5.77495,5.68976 -3.65814,6.99889 c -2.01197,3.8494 -4.61373,10.16403 -5.78167,14.03252 l -2.12354,7.03361 -0.83082,9.84681 -0.83081,9.84681 0.86911,8.61957 c 1.06208,10.53337 2.97198,17.44402 7.36568,26.65149 l 3.35556,7.03191 5.95353,6.49723 5.95353,6.49723 4.96842,2.70415 c 2.73263,1.48729 7.39633,3.33714 10.36378,4.11079 l 5.39537,1.40664 5.8422,-0.43846 5.8422,-0.43846 z M 424.5,455.53106 c -0.55,-0.19586 -2.24885,-0.6319 -3.77521,-0.96897 l -2.77521,-0.61285 -4.05247,-3.66116 -4.05248,-3.66117 -2.30276,-4.56345 c -1.26653,-2.50991 -2.86765,-7.10391 -3.55805,-10.2089 l -1.25528,-5.64545 0.50529,-10.35455 0.50529,-10.35456 2.21438,-5.78231 c 1.2179,-3.18027 3.66003,-7.67769 5.42695,-9.99427 l 3.21257,-4.21197 3.95349,-2.23927 3.95349,-2.23928 5.28984,-0.0164 5.28984,-0.0165 3.85271,1.96551 3.85272,1.96551 3.51046,4.10119 3.51047,4.10118 2.34698,6.18331 2.34698,6.1833 -0.0423,12 -0.0423,12 -2.10312,5.66785 c -1.15671,3.11733 -3.51452,7.71927 -5.23957,10.22655 l -3.13646,4.55868 -4.2181,2.42743 -4.2181,2.42743 -4,0.53962 c -2.2,0.2968 -4.45,0.37937 -5,0.1835 z m 14.58666,-47.61772 2.08666,-2.08666 -0.66706,-2.65774 C 439.57655,399.46466 438.13936,398 435.43426,398 h -2.32085 l -1.55671,2.22251 C 430.70052,401.44488 430,403.44437 430,404.6658 v 2.22079 l 2.22251,1.55671 c 2.95907,2.07261 4.37056,1.96363 6.86415,-0.52996 z m 151.43308,64.99838 5.88707,-1.08829 5.82566,-2.94078 5.82567,-2.94079 5.7518,-5.7518 5.75181,-5.75181 3.04141,-5.46913 c 4.106,-7.38346 7.04747,-15.07583 8.93982,-23.3789 l 1.57482,-6.90978 9.5e-4,-11.09022 9.5e-4,-11.09022 -2.054,-8 -2.05401,-8 -4.12005,-8.38272 -4.12005,-8.38273 -6.21283,-6.21283 -6.21283,-6.21283 -5.92296,-2.81226 -5.92297,-2.81227 -7.07938,-0.46274 -7.07939,-0.46274 -5.88878,1.71192 -5.88879,1.71192 -5.2941,3.51402 c -10.33547,6.86029 -18.0685,18.67764 -22.71527,34.71267 l -2.56026,8.83494 -0.63642,9.71122 -0.63641,9.71123 1.19045,8.14154 c 1.51296,10.34718 5.01984,20.67108 9.56103,28.14669 l 3.55918,5.85904 5.90159,5.46383 5.90159,5.46383 4.46422,2.16109 c 3.76105,1.8207 9.91348,3.54029 14.26708,3.98761 0.58649,0.0603 3.71552,-0.38016 6.9534,-0.97871 z M 584.5,455.55315 c -0.55,-0.20802 -2.2641,-0.65782 -3.80911,-0.99957 l -2.8091,-0.62135 -4.30546,-3.96864 -4.30547,-3.96864 -2.65172,-5.90881 -2.65171,-5.90881 -0.91566,-7.2923 -0.91565,-7.29229 0.94206,-8.29074 0.94206,-8.29073 2.37959,-5.38067 2.37958,-5.38068 3.8603,-4.27783 3.86029,-4.27783 3.21788,-1.34713 L 582.93576,381 h 4.87484 4.87483 l 4.40729,2.32617 4.40728,2.32617 3.16606,4.14152 c 1.74134,2.27784 4.11309,6.67268 5.27057,9.76633 l 2.10452,5.62481 0.60734,7.18481 0.60733,7.18482 -1.20183,7.12529 -1.20184,7.12528 -2.77649,5.87089 -2.77649,5.8709 -3.25571,3.2557 c -4.98003,4.98003 -13.52796,8.26914 -17.54346,6.75046 z M 598.17126,408.34501 600,406.69002 v -2.77358 -2.77358 l -1.57143,-1.57143 c -2.965,-2.96501 -6.64844,-1.75353 -8.3606,2.74979 l -1.05715,2.78051 2.44914,2.44914 c 2.88061,2.88061 4.22942,3.04021 6.7113,0.79414 z M 359.31574,321.87464 c 1.20134,-0.61894 4.43426,-2.81207 7.18426,-4.87361 10.14422,-7.60464 18.56268,-11.21684 30.43428,-13.05878 l 6.90395,-1.07119 7.83088,1.1412 c 4.30699,0.62766 9.46615,1.38392 11.46479,1.68057 l 3.63391,0.53936 2.11609,-2.11609 L 431,302 v -3.42327 -3.42328 l -2.72906,-3.2433 -2.72905,-3.2433 -6.02095,-2.70055 c -7.2306,-3.2431 -11.61972,-4.11789 -20.39926,-4.06574 l -6.62168,0.0393 -5.98031,1.57733 c -16.42708,4.33271 -29.53175,13.66331 -35.38303,25.19293 L 349,312.92032 v 2.88485 2.88485 l 1.75,1.5245 c 3.21206,2.79817 5.49724,3.24105 8.56574,1.66012 z m 297.34864,-1.44811 2.57346,-2.57346 -0.553,-3.40776 -0.553,-3.40776 -3.73802,-5.63156 -3.73802,-5.63155 -5.03151,-3.97719 c -8.78714,-6.94583 -20.25424,-12.0281 -31.13435,-13.79889 l -5.81048,-0.94568 -6.76378,0.95928 c -3.72007,0.5276 -9.33182,1.92011 -12.47055,3.09446 l -5.70679,2.13518 -3.76674,3.40302 -3.76674,3.40303 -0.60407,2.40678 -0.60406,2.40677 0.95377,2.5086 c 0.52457,1.37973 1.91318,3.02206 3.0858,3.64963 l 2.13203,1.14102 11.41862,-1.65183 11.41863,-1.65184 5.74721,0.70041 c 12.47057,1.51978 22.30112,5.53619 32.56502,13.30491 9.39467,7.1108 10.52049,7.39051 14.34657,3.56443 z M 135.6563,791.86747 c -1.01403,-0.58945 -2.47592,-2.58486 -3.24865,-4.43424 -1.4966,-3.58188 -6.67561,-31.49861 -5.97371,-32.2005 0.22913,-0.22914 4.38773,-1.27822 9.24133,-2.33131 4.8536,-1.05308 9.85563,-2.1499 11.11563,-2.43737 l 2.2909,-0.52268 -0.61,-0.987 c -0.3355,-0.54285 -0.98921,-0.75263 -1.45269,-0.46618 -1.61115,0.99575 -20.33685,4.52746 -20.92612,3.94672 -0.32614,-0.32143 -1.30821,-4.84389 -2.18236,-10.04992 l -1.58937,-9.46551 0.6841,-0.4228 c 0.37626,-0.23253 4.91648,-1.36429 10.08937,-2.51501 5.1729,-1.15072 9.81643,-2.50101 10.31896,-3.00064 l 0.9137,-0.90842 -3.9137,0.62926 c -2.15253,0.34609 -7.06369,1.41206 -10.91369,2.36884 -3.85,0.95677 -7.1557,1.58908 -7.34599,1.40512 -0.64894,-0.62734 -3.94407,-18.97339 -3.53087,-19.65855 0.22645,-0.3755 2.99139,-1.18193 6.1443,-1.79208 3.15291,-0.61014 7.87006,-1.5853 10.48256,-2.16702 l 4.75,-1.05766 v -0.94557 -0.94558 l -3.75,0.68153 c -2.0625,0.37484 -6.88765,1.49507 -10.72256,2.48941 -3.83491,0.99434 -7.10648,1.67398 -7.27015,1.51031 C 117.6598,707.99313 115,692.7408 115,689.91203 V 687 l 3.75,-0.0245 c 5.75197,-0.0375 20.25,-3.50985 20.25,-4.84998 v -0.79734 l -12.07542,2.42713 c -6.64148,1.33492 -12.25088,2.25167 -12.46533,2.03722 -0.21445,-0.21445 -1.11419,-4.58684 -1.99941,-9.71642 l -1.60949,-9.32651 0.82483,-0.72052 c 0.45365,-0.39629 4.69232,-1.50763 9.41926,-2.46966 4.72694,-0.96203 9.22694,-2.14958 10,-2.639 l 1.40556,-0.88984 -1.76059,-0.0153 c -0.96832,-0.008 -5.86629,0.89922 -10.88437,2.01698 -5.01809,1.11776 -9.2311,1.90526 -9.36224,1.75 -0.13115,-0.15526 -1.00369,-4.50178 -1.93898,-9.65893 l -1.70053,-9.37665 0.8491,-0.8491 c 0.467,-0.467 4.43751,-1.5843 8.82335,-2.48288 4.38584,-0.89858 8.64926,-2.02081 9.47426,-2.49384 l 1.5,-0.86007 -2,0.02 c -1.1,0.011 -5.75046,0.83521 -10.33435,1.83158 l -8.33434,1.81157 -0.33923,-1.11198 c -0.18658,-0.61159 -1.05048,-5.13762 -1.91978,-10.05785 l -1.58055,-8.94588 0.75412,-0.66431 c 0.41477,-0.36537 4.80413,-1.4455 9.75413,-2.40029 4.95,-0.9548 9.675,-2.12903 10.5,-2.60941 l 1.5,-0.87342 -2.5,-0.0132 c -1.375,-0.007 -6.44898,0.81749 -11.27552,1.83281 -4.82653,1.01533 -8.93435,1.5701 -9.12848,1.23283 -0.6428,-1.11677 -2.85032,-17.59414 -2.49367,-18.61322 l 0.34998,-1 9.74901,-2.18641 c 5.36195,-1.20253 10.54769,-2.65134 11.52385,-3.21959 l 1.77483,-1.03318 -1.5,-0.0193 c -0.825,-0.0106 -6.225,1.05327 -12,2.36416 -5.775,1.3109 -10.681321,2.21207 -10.902936,2.00261 -0.221614,-0.20947 -1.170744,-4.92547 -2.109176,-10.48 l -1.706242,-10.09916 1.109177,-0.31739 C 97.00087,575.3372 101.775,574.42232 107,573.4787 c 5.225,-0.94362 10.175,-2.09867 11,-2.56678 l 1.5,-0.8511 -2.67447,-0.0304 c -1.47096,-0.0167 -6.78665,0.9164 -11.81265,2.0736 -5.026005,1.15721 -9.344509,1.89769 -9.596679,1.64552 -0.528837,-0.52883 -3.412788,-16.45269 -3.414834,-18.85514 L 92,553.28878 102.65805,551.153 c 10.8975,-2.18375 12.19164,-2.63664 10.98431,-3.84397 l -0.69096,-0.69097 -9.7257,2.435 c -5.349136,1.33925 -10.237945,2.57351 -10.864021,2.74279 l -1.138322,0.30778 -1.078606,-6.30181 C 89.551518,542.33582 88.787289,537.7 88.446464,535.5 l -0.619681,-4 10.745248,-2.24197 c 5.909889,-1.23309 10.973859,-2.47059 11.253279,-2.75 1.27252,-1.27253 -0.96535,-1.11536 -9.32531,0.6549 -4.95,1.04819 -9.88837,2.00283 -10.974155,2.12143 L 87.551689,529.5 85.794282,519.5649 c -0.966574,-5.46431 -1.643067,-10.04945 -1.503317,-10.1892 0.139749,-0.13975 1.368953,-0.46657 2.731562,-0.72627 1.36261,-0.25969 5.852473,-1.18669 9.977473,-2.05998 4.125,-0.8733 7.9275,-1.58818 8.45,-1.58863 L 106.4,505 l -0.96487,-0.96487 -0.96486,-0.96486 -9.301795,1.94704 c -5.115986,1.07088 -9.689398,2.1866 -10.163138,2.47939 l -0.861344,0.53234 -0.534086,-1.76452 c -0.761028,-2.5143 -2.593373,-14.37245 -2.602353,-16.84132 L 81,487.3464 91.185311,485.15455 c 10.183479,-2.19145 11.614229,-2.68834 10.615729,-3.68684 -0.5046,-0.5046 -16.661756,2.77414 -20.018931,4.06241 l -1.578493,0.60572 -1.247251,-7.31792 c -0.685988,-4.02486 -1.294302,-8.84905 -1.351808,-10.72043 L 77.5,464.69498 l 9.418034,-1.81552 c 5.179918,-0.99854 9.882418,-2.27991 10.45,-2.84749 L 98.4,459 h -1.161275 c -1.426111,0 -17.142506,3.63867 -19.298509,4.468 l -1.559784,0.59999 -1.169606,-6.28399 c -0.643283,-3.4562 -1.442023,-8.33513 -1.774977,-10.84207 l -0.605372,-4.55806 10.209703,-2.15021 c 5.615337,-1.18262 10.453479,-2.39399 10.751428,-2.69193 1.415212,-1.41522 -1.106787,-1.18184 -10.758952,0.99559 -5.757039,1.29873 -10.533366,2.27163 -10.614059,2.162 -0.434153,-0.58982 -3.570215,-19.87171 -3.272354,-20.11986 0.194566,-0.1621 4.628757,-1.31766 9.853757,-2.56791 7.559893,-1.80894 13.584245,-4.01552 10.95,-4.01073 -1.003121,0.002 -14.675229,3.0237 -17.752404,3.92373 l -3.302405,0.9659 -0.427162,-1.19523 C 68.021639,416.4462 65,399.28516 65,397.99897 c 0,-0.69471 2.170084,-1.34911 13.75,-4.1464 2.6125,-0.63108 5.1775,-1.53108 5.7,-2 1.319517,-1.18419 0.839627,-1.12381 -9.980217,1.25574 -5.272578,1.15956 -9.723344,1.94706 -9.890591,1.75 C 64.411944,394.66124 62.824935,385.725 61.052504,375 59.280073,364.275 55.822336,343.80639 53.368643,329.5142 l -4.461259,-25.9858 0.296308,-3.48278 0.296308,-3.48278 2.569294,-1.43518 2.569294,-1.43518 2.642078,0.66311 2.642078,0.66312 6.89385,9.74065 c 5.82263,8.22706 25.366304,36.28582 55.193216,79.24064 3.62813,5.225 17.12709,24.575 29.99768,43 12.87059,18.425 26.37526,37.775 30.01037,43 3.63512,5.225 15.54629,22.325 26.46928,38 10.92299,15.675 36.14449,52.125 56.04778,81 19.9033,28.875 48.84483,70.725 64.31452,93 15.46969,22.275 29.0435,42.35317 30.16401,44.61815 l 2.03731,4.11815 -0.94878,2.49546 c -0.52182,1.37251 -1.77074,2.83017 -2.77538,3.23924 -2.10796,0.85834 -22.48889,6.5143 -23.50564,6.52311 -0.37347,0.003 -1.39016,-2.58161 -2.25929,-5.74411 C 327.70134,723.20358 326.62654,720 325.77429,720 h -0.90907 l 0.5199,1.75 c 0.28595,0.9625 0.80741,3.1 1.1588,4.75 0.35138,1.65 1.56337,6.04688 2.6933,9.77085 1.12993,3.72396 1.80436,7.0209 1.49874,7.32653 -0.69388,0.69387 -14.69635,4.3622 -16.73998,4.38548 L 312.49197,748 309.75296,737.30698 c -1.50645,-5.88116 -3.19214,-11.14616 -3.74598,-11.7 L 305,724.6 l 0.002,1.95 c 10e-4,1.0725 1.09519,6.45 2.43138,11.95 l 2.42943,10 -0.68137,0.61733 c -0.83844,0.75965 -17.2775,5.15716 -17.59502,4.70674 -0.12565,-0.17824 -1.46178,-5.26437 -2.96917,-11.3025 -1.50739,-6.03814 -2.93792,-11.17564 -3.17895,-11.41667 -1.57838,-1.57838 -1.29014,2.19756 0.91891,12.03796 1.39486,6.21348 2.39921,11.43412 2.23191,11.60143 -0.60614,0.60613 -14.60891,4.2557 -16.32639,4.25517 l -1.76266,-5.5e-4 -2.38856,-10.41463 c -2.40069,-10.46752 -3.51785,-13.5112 -4.57222,-12.45684 -0.31324,0.31324 0.71776,5.70021 2.2911,11.97104 l 2.86063,11.40152 -1.10439,0.66477 c -1.1869,0.71444 -16.91913,4.87521 -17.15819,4.5379 -0.079,-0.11147 -1.1706,-4.47767 -2.42578,-9.70267 -1.25518,-5.225 -2.87623,-10.625 -3.60233,-12 l -1.32018,-2.5 0.0118,3 c 0.006,1.65 1.06625,7.05 2.35505,12 l 2.34326,9 -0.64509,0.67553 c -0.89757,0.93993 -16.36133,4.80885 -17.18527,4.29963 -0.36931,-0.22825 -1.94295,-5.37853 -3.49697,-11.44508 C 224.90882,751.96354 223.26895,747 222.81868,747 c -1.30898,0 -0.98224,2.49233 1.72893,13.18783 1.40119,5.52765 2.41369,10.18314 2.25,10.34552 -0.16368,0.16239 -4.26698,1.41256 -9.11844,2.77816 l -8.82083,2.48292 -0.40879,-1.14722 c -0.22484,-0.63096 -1.2898,-4.98132 -2.36657,-9.66746 -1.07678,-4.68613 -2.44854,-9.81104 -3.04836,-11.38869 -2.20433,-5.79783 -2.02632,-1.55923 0.41948,9.98817 l 2.51108,11.85559 -0.73259,0.68106 C 204.64721,776.66008 189.90974,781 188.64713,781 c -0.49307,0 -2.27298,-6.51366 -4.16816,-15.2535 -0.92471,-4.26443 -2.08577,-8.00349 -2.58013,-8.30902 L 181,756.88197 l -0.006,2.30901 c -0.003,1.26996 0.97138,6.69702 2.16555,12.06014 1.19417,5.36311 1.9772,9.94513 1.74008,10.18225 C 184.39099,781.94234 169.46387,786 168.10047,786 h -0.93629 l -2.19044,-9.75 c -1.20474,-5.3625 -2.59168,-10.1775 -3.08209,-10.7 L 161,764.6 v 2.23619 c 0,1.2299 0.95921,6.06069 2.13158,10.73508 1.17238,4.67439 1.90636,8.72412 1.63108,8.9994 -0.70946,0.70946 -23.63534,6.43563 -25.61934,6.39892 -0.90383,-0.0167 -2.47298,-0.51268 -3.48702,-1.10212 z M 204.5399,720.448 c 6.4518,-1.68004 13.12396,-5.17457 18.10497,-9.48242 3.81309,-3.29778 6.86805,-4.44068 29.60513,-11.07566 L 270,694.71024 v -0.88175 c 0,-0.48497 -8.70107,-14.03227 -19.33571,-30.10512 C 229.30642,631.44378 209.75774,601.8123 179.92614,556.5 c -24.21225,-36.77688 -35.08065,-52.67882 -35.62917,-52.1303 -0.22955,0.22955 1.83962,11.60277 4.59814,25.27383 2.75853,13.67106 6.88081,34.30647 9.16063,45.85647 l 4.14512,21 0.64957,12.67317 0.64957,12.67317 -4,1.31266 -4,1.31266 -4.17503,4.16289 -4.17503,4.16288 -1.06939,3.85128 c -1.46173,5.26424 -1.34991,10.13842 0.36319,15.83062 l 1.44374,4.79718 3.09034,3.84551 3.09033,3.84551 -1.68869,3.26557 -1.68869,3.26557 0.0627,4.1487 0.0627,4.14871 2.00507,4.53279 2.00506,4.53279 4.23687,3.06917 C 161.39349,693.61887 163.90756,695 164.65004,695 H 166 v 3.53212 c 0,9.35918 7.14396,17.99864 18.03441,21.8097 l 4.46559,1.56271 5.0399,0.0477 5.0399,0.0477 z m -17.54637,-6.32247 c -1.37857,-0.45227 -3.95316,-1.57041 -5.72133,-2.48477 l -3.21484,-1.66246 -2.52868,-3.72128 C 174.13791,704.21031 173,701.57301 173,700.39635 v -2.13938 l 7.75,-0.49923 7.75,-0.49924 5,-1.71412 c 2.75,-0.94276 7.95205,-3.47593 11.56011,-5.62925 L 211.62023,686 h 3.5791 3.5791 l 2.05499,1.75 2.05498,1.75 0.15712,3.5 c 0.0864,1.925 0.11152,4.29755 0.0558,5.27234 L 223,700.04469 l -4.00252,4.34222 -4.00253,4.34223 -6.20277,2.78364 -6.20278,2.78364 -6.5447,0.32571 -6.5447,0.32572 z m 45.67314,-15.7922 C 232.3,697.96667 232,696.59874 232,695.2935 c 0,-5.64697 -7.03797,-14.51197 -12.63672,-15.91717 l -2.48257,-0.62309 0.68073,-1.62662 c 0.3744,-0.89464 0.90345,-3.71166 1.17567,-6.26004 l 0.49494,-4.63342 -1.17708,-3.56659 -1.17708,-3.5666 -3.47374,-3.04999 C 211.49359,654.37249 209.27107,653 208.4652,653 c -2.18501,0 -1.83842,-0.71462 2.3232,-4.79006 2.08362,-2.04046 4.46373,-4.77881 5.28915,-6.0852 l 1.50075,-2.37526 13.04578,12.57696 13.04578,12.57696 3.16507,5.93828 3.16507,5.93827 v 4.15969 4.15968 l -1.40499,2.70034 c -1.86943,3.59299 -5.18808,6.5195 -10.30517,9.08749 -4.72492,2.37118 -4.70365,2.36571 -5.62317,1.44618 z M 170,689.04415 l -5.5,-1.89056 -3.25,-3.7434 -3.25,-3.74341 v -4.14226 -4.14226 l 1.25,-1.69715 1.25,-1.69716 12,-0.35097 12,-0.35097 8.93759,-3.143 C 198.35326,662.41435 203.57102,661 205.0326,661 h 2.65742 l 1.53671,1.75 c 0.84519,0.9625 1.8475,2.76956 2.22736,4.0157 l 0.69065,2.2657 -1.11922,3.39128 -1.11923,3.39129 -4.94419,4.62472 -4.9442,4.62471 -4.28799,1.83805 c -9.96019,4.26944 -17.67401,4.91182 -25.72991,2.1427 z m -4.23596,-27.98035 c -1.50477,-0.48583 -4.28534,-1.8409 -6.17904,-3.01127 l -3.4431,-2.12795 -2.07095,-4.27801 L 152,647.36855 v -3.71639 c 0,-4.8289 2.18841,-9.97029 5.11687,-12.02147 L 159.44501,630 h 3.82967 3.82967 l 7.19783,6.78452 c 8.96504,8.45026 12.82805,10.8372 20.27667,12.52887 l 5.87752,1.33485 -4.47819,2.62037 c -2.463,1.44121 -7.09206,3.81541 -10.2868,5.27602 l -5.80862,2.65566 -5.69138,0.37341 -5.69138,0.37342 z m 29.13475,-18.39224 c -1.98066,-0.73347 -5.73922,-2.86899 -8.35236,-4.7456 l -4.75115,-3.41202 -4.88224,-6.50697 -4.88223,-6.50697 -1.5154,-4.42814 C 169.68193,614.63638 169,611.13096 169,609.28202 v -3.3617 l 1.95012,-3.82255 1.95012,-3.82255 3.45101,-1.63761 C 178.2493,595.73692 181.21171,595 182.93437,595 h 3.13212 l 4.80853,2.43667 4.80853,2.43666 4.94666,5.41244 4.94666,5.41244 3.41584,6.90089 3.41583,6.9009 0.0457,5.73105 0.0457,5.73105 -3.54652,3.5488 -3.54651,3.5488 -3.45349,0.47272 -3.45348,0.47273 z M 825.5,693.28298 c -1.65,-0.22955 -6.6,-1.31237 -11,-2.40628 l -8,-1.98893 -9.05429,-4.37097 -9.05428,-4.37097 -4.29338,-4.16659 -4.29338,-4.16658 -1.87583,-4.24062 c -1.0317,-2.33234 -2.0553,-6.22769 -2.27466,-8.65633 l -0.39884,-4.41571 1.27856,-6.0982 c 0.70321,-3.354 2.43084,-8.37211 3.83918,-11.15134 l 2.56063,-5.05316 2.66369,-2.09526 c 1.46503,-1.15239 4.40495,-2.56413 6.53315,-3.13719 L 796,625.92291 l 3.8412,1.03433 c 3.97549,1.07049 5.94875,2.75774 8.23659,7.04276 l 1.33479,2.5 -0.23931,11.98302 -0.23932,11.98303 0.87354,-0.98303 c 0.48045,-0.54066 3.45942,-7.15672 6.61994,-14.70235 l 5.7464,-13.71933 3.79876,-4.28067 3.79876,-4.28067 h 5.19635 5.19636 l 3.03336,3.39492 3.03336,3.39492 -0.44407,8.60508 -0.44408,8.60508 -3.19736,7.89062 c -1.75856,4.33984 -3.0149,8.07309 -2.79187,8.29611 1.4139,1.4139 9.16206,-11.61199 14.02306,-23.57498 3.10801,-7.64886 6.69309,-12.57924 10.62557,-14.6128 L 866.90068,623 h 4.37535 4.37534 l 2.1077,2.25 c 2.55912,2.7319 4.24093,6.93748 4.24093,10.605 0,6.56805 -7.20099,26.41511 -10.27286,28.31364 l -1.16922,0.72261 0.70145,0.70146 0.70145,0.70145 3.49698,-3.81782 c 3.91848,-4.27798 10.24971,-15.90639 13.59868,-24.97634 l 2.21543,-6 4.3816,-4.25 4.38161,-4.25 3.73244,0.0222 3.73244,0.0222 2.13296,1.72777 c 1.17313,0.95027 2.69811,2.82742 3.38885,4.17145 l 1.25588,2.4437 -0.0813,5.73584 c -0.10452,7.37197 -1.54635,12.63256 -5.93345,21.64861 l -3.53839,7.27184 -6.64852,6.72816 -6.64853,6.72816 -5.79826,3.42329 c -3.18904,1.8828 -9.30246,4.66332 -13.58537,6.17893 l -7.78712,2.75564 -7.70072,1.07107 c -7.3915,1.02806 -24.78574,1.22636 -31.056,0.35405 z m 95.99389,-61.53298 -0.68191,-4.25 -2.11028,-3.15507 c -1.16065,-1.73529 -3.38285,-3.9068 -4.93823,-4.82558 l -2.82795,-1.67051 -5.43185,-0.56062 -5.43184,-0.56061 -3.28592,1.27818 c -1.80725,0.70299 -4.95923,2.39066 -7.0044,3.75036 l -3.7185,2.47219 -2.56668,-3.05033 -2.56667,-3.05032 -5.40693,-1.21002 -5.40693,-1.21001 -4.56795,1.27894 -4.56795,1.27895 -4.50215,3.96295 -4.50214,3.96294 -1.95454,-2.34572 c -1.07499,-1.29014 -1.9695,-2.67166 -1.9878,-3.07004 -0.0485,-1.05614 -5.99413,-3.97088 -9.90765,-4.85706 l -3.37438,-0.7641 -4.78815,1.54639 -4.78814,1.5464 -2.83747,2.63823 c -1.56062,1.45103 -3.91909,4.02627 -5.24106,5.72277 l -2.40358,3.08453 -3.78149,-3.78149 -3.78148,-3.78148 -3.81494,-1.05936 c -5.02816,-1.39625 -9.6592,-1.34632 -14.69891,0.1585 l -4.11602,1.22901 -5.44968,5.27099 C 776.053,630.62805 773.32469,633 772.98741,633 c -0.9799,0 -5.62146,-5.26736 -7.04954,-8 l -1.30649,-2.5 0.10643,-6.5 c 0.0585,-3.575 2.59372,-26.075 5.63374,-50 6.73502,-53.00462 14.66045,-117.68733 18.13411,-148 1.41811,-12.375 3.86758,-33.59371 5.44326,-47.15269 l 2.86489,-24.65269 1.62677,-3.42816 1.62676,-3.42815 3.45465,-1.64741 3.45465,-1.6474 14.76168,0.95695 c 24.17809,1.5674 44.94942,2.98265 58.76168,4.00372 7.15,0.52856 19.525,1.41941 27.5,1.97965 37.07522,2.60454 56.96719,4.04038 62.26231,4.49421 l 5.7623,0.49388 4.02692,2.05438 4.02693,2.05438 1.95703,3.20967 1.95703,3.20966 0.004,4.91965 c 0.002,2.70581 -2.72497,21.60581 -6.06005,42 -11.26889,68.90974 -34.93508,210.04299 -36.13552,215.49403 l -1.19221,5.41368 -3.55424,3.7257 -3.55424,3.7257 -4,1.10504 c -2.2,0.60778 -5.64795,1.10756 -7.6621,1.11062 L 922.1758,636 Z m 3.22093,-28.66667 c 0.66815,-0.0458 1.65758,-0.91065 2.19874,-1.92181 C 928.07913,598.98363 932,576.63873 932,572.17409 v -3.10372 l -1.75,-0.91499 c -0.9625,-0.50324 -7.96715,-1.48943 -15.56588,-2.19152 l -13.81589,-1.27654 -1.84911,1.90634 L 897.17,568.5 895.58855,578 c -0.8698,5.225 -1.86566,12.25034 -2.21302,15.61186 l -0.63157,6.11187 1.37802,0.88564 c 1.37003,0.88052 23.55757,3.1057 27.37802,2.74574 1.1,-0.10365 2.54667,-0.22594 3.21482,-0.27178 z M 873.3932,597.75 l 1.43931,-2.25 1.58375,-10.11933 c 1.76474,-11.27585 1.9946,-18.18353 0.67443,-20.26817 l -0.87868,-1.38749 -13.356,-1.26953 -13.35601,-1.26954 -2.1631,1.37315 -2.1631,1.37314 -0.57952,2.78389 C 843.26412,573.10603 841,590.27662 841,593.97437 v 3.98753 l 2.25,0.50982 c 2.65041,0.60055 10.23235,1.08607 20.97695,1.3433 L 871.95389,600 Z m -51.98929,-2 1.45001,-2.25 2.26134,-15.27599 2.26133,-15.27599 -1.43829,-1.43071 -1.4383,-1.4307 -12.89522,-1.04331 c -16.24415,-1.31425 -16.87284,-1.30737 -18.87777,0.2067 l -1.65525,1.25 -1.48607,10.5 c -0.81734,5.775 -1.76394,12.975 -2.10357,16 l -0.61749,5.5 1.38697,1.86309 1.38696,1.8631 5.93072,0.75579 c 3.2619,0.41568 10.08285,0.81479 15.15767,0.8869 L 819.95389,598 Z m 113.95105,-49 1.40106,-2.25 2.31312,-14.38603 2.31311,-14.38603 -2.13558,-1.72928 -2.13558,-1.72929 -6.80555,-0.59824 c -3.74305,-0.32903 -10.25063,-0.88853 -14.46129,-1.24334 l -7.65576,-0.6451 -1.48756,2.35865 -1.48757,2.35866 -2.07748,14.24431 -2.07747,14.24432 0.58109,1.51432 c 0.31961,0.83287 1.54397,1.74089 2.7208,2.01781 3.10577,0.73082 18.27468,2.1915 24.36665,2.34636 L 933.95389,549 Z m -54.96709,-3.04435 1.77013,-1.29435 1.32575,-6.45565 c 0.72916,-3.55061 1.88566,-10.64111 2.56999,-15.75666 l 1.24424,-9.30101 -1.08883,-1.08883 c -1.3419,-1.3419 -7.77306,-2.38593 -20.20915,-3.28073 l -9.5,-0.68354 -1.69194,1.32756 -1.69194,1.32756 -2.26682,15.75553 -2.26682,15.75552 1.5376,1.5376 1.53759,1.53759 9.92117,0.81695 c 5.45664,0.44932 11.52265,0.87992 13.48003,0.95688 L 878.61774,545 Z m -50.98509,-4.59822 1.71275,-1.89257 2.13338,-15.13056 2.13339,-15.13057 -1.52749,-1.52749 -1.52749,-1.52749 -14.16271,-1.48507 -14.16271,-1.48507 -2.04882,1.0965 c -2.91886,1.56213 -3.58407,3.94656 -5.5471,19.88336 l -1.74658,14.17951 1.45883,1.45882 1.45882,1.45883 10.46148,0.85804 c 5.75381,0.47192 12.52923,0.92065 15.05648,0.99718 L 827.69002,541 Z M 943.38683,490.75 l 1.43294,-2.25 2.22442,-13.64683 2.22441,-13.64683 -0.62567,-2.49287 -0.62567,-2.49287 -1.59163,-0.61076 c -2.65029,-1.01702 -25.38303,-2.83735 -27.81399,-2.22722 l -2.26876,0.56943 -1.16767,2.56276 c -0.64223,1.40952 -2.15803,8.87946 -3.36846,16.59987 l -2.20078,14.0371 1.04715,1.67411 1.04716,1.67411 10.39986,1.116 c 5.71992,0.61381 12.52699,1.17631 15.12681,1.25 l 4.72694,0.134 z m -53.13203,-3.5 1.56478,-1.75 1.5374,-10.5 c 0.84557,-5.775 1.81014,-12.61352 2.14349,-15.19672 l 0.6061,-4.69671 -1.89398,-1.89398 -1.89398,-1.89398 -10.19515,-1.1593 C 876.51613,449.52169 870.36944,449 868.46416,449 H 865 l -1.80535,1.80535 -1.80535,1.80535 -2.16504,15.19003 -2.16503,15.19004 0.58068,1.51325 c 0.31938,0.83228 1.59251,1.76719 2.82917,2.07758 2.4819,0.62291 17.69553,2.06001 24.12593,2.27897 L 888.69002,489 Z M 838.65832,482 c 0.64671,-1.375 1.98155,-8.91554 2.9663,-16.75675 l 1.79046,-14.25674 -1.54576,-1.54576 -1.54577,-1.54577 -6.41177,-0.86448 c -3.52648,-0.47547 -10.53466,-1.17148 -15.57373,-1.54669 l -9.16196,-0.6822 -1.50806,2.3492 -1.50807,2.34919 -1.69958,13.70541 -1.69958,13.70541 0.62766,2.50079 0.62766,2.50079 3.24194,0.58833 c 6.34668,1.15176 19.32723,2.27356 24.73318,2.13749 L 837.48248,484.5 Z m 112.37217,-53.01632 1.899,-1.01631 1.04455,-3.73369 C 954.97192,420.66678 961,380.58695 961,377.51905 v -1.47294 l -2.42451,-1.58861 -2.42452,-1.5886 -49.32548,-3.85162 c -27.12902,-2.1184 -57.74036,-4.41278 -68.0252,-5.09864 l -18.69971,-1.247 -1.46925,1.21936 -1.46924,1.21937 -1.08613,6.69481 C 814.65621,380.55652 811,410.728 811,413.69269 V 416 l 1.81373,1.81373 1.81374,1.81374 14.93626,1.17294 c 8.21495,0.64512 33.38627,2.54774 55.93627,4.22805 22.55,1.6803 44.825,3.42568 49.5,3.87862 12.338,1.19536 13.92589,1.20295 16.03049,0.0766 z"
       id="path1" />
  </g>
</svg>
