<svg xmlns="http://www.w3.org/2000/svg" viewBox="0 0 256 256" width="256" height="256" fill="none" stroke="#111827" stroke-linecap="round" stroke-linejoin="round">
  <title>Yosi detailed outline icon</title>
  <g stroke-width="4.2">
    <path class="outer" d="M 120 6 L 129 6 L 129 7 L 135 7 L 135 8 L 139 8 L 139 9 L 142 9 L 142 10 L 144 10 L 144 11 L 147 11 L 147 12 L 149 12 L 149 13 L 151 13 L 151 14 L 152 14 L 152 15 L 154 15 L 154 16 L 155 16 L 155 17 L 157 17 L 157 18 L 158 18 L 158 19 L 160 19 L 160 20 L 161 20 L 161 21 L 162 21 L 162 22 L 163 22 L 163 23 L 164 23 L 164 24 L 165 24 L 165 25 L 166 25 L 166 26 L 167 26 L 167 27 L 168 27 L 168 28 L 169 28 L 169 29 L 170 29 L 170 30 L 171 30 L 171 31 L 172 31 L 172 33 L 173 33 L 173 34 L 174 34 L 174 36 L 175 36 L 175 37 L 176 37 L 176 38 L 180 38 L 180 37 L 183 37 L 183 36 L 185 36 L 185 35 L 186 35 L 186 33 L 187 33 L 187 30 L 190 30 L 190 31 L 191 31 L 191 32 L 192 32 L 192 34 L 193 34 L 193 37 L 194 37 L 194 47 L 193 47 L 193 51 L 196 51 L 196 52 L 198 52 L 198 53 L 199 53 L 199 54 L 201 54 L 201 55 L 202 55 L 202 56 L 203 56 L 203 57 L 204 57 L 204 58 L 205 58 L 205 60 L 206 60 L 206 61 L 207 61 L 207 64 L 208 64 L 208 66 L 209 66 L 209 68 L 206 68 L 206 67 L 205 67 L 205 66 L 204 66 L 204 68 L 205 68 L 205 69 L 206 69 L 206 72 L 207 72 L 207 75 L 208 75 L 208 87 L 207 87 L 207 89 L 205 89 L 205 88 L 204 88 L 204 86 L 203 86 L 203 95 L 202 95 L 202 99 L 201 99 L 201 101 L 200 101 L 200 102 L 199 102 L 199 103 L 198 103 L 198 105 L 197 105 L 197 106 L 196 106 L 196 107 L 195 107 L 195 109 L 194 109 L 194 111 L 193 111 L 193 113 L 192 113 L 192 115 L 193 115 L 193 116 L 194 116 L 194 117 L 195 117 L 195 119 L 196 119 L 196 120 L 197 120 L 197 123 L 198 123 L 198 134 L 197 134 L 197 137 L 196 137 L 196 139 L 195 139 L 195 141 L 194 141 L 194 142 L 193 142 L 193 144 L 192 144 L 192 145 L 191 145 L 191 146 L 190 146 L 190 147 L 189 147 L 189 148 L 188 148 L 188 149 L 186 149 L 186 150 L 184 150 L 184 151 L 182 151 L 182 152 L 176 152 L 176 153 L 174 153 L 174 155 L 173 155 L 173 157 L 172 157 L 172 158 L 171 158 L 171 159 L 170 159 L 170 160 L 169 160 L 169 161 L 168 161 L 168 162 L 167 162 L 167 163 L 166 163 L 166 164 L 164 164 L 164 165 L 162 165 L 162 166 L 161 166 L 161 167 L 160 167 L 160 169 L 159 169 L 159 170 L 158 170 L 158 171 L 157 171 L 157 172 L 156 172 L 156 174 L 157 174 L 157 175 L 158 175 L 158 177 L 159 177 L 159 178 L 160 178 L 160 179 L 161 179 L 161 180 L 163 180 L 163 181 L 164 181 L 164 182 L 166 182 L 166 183 L 167 183 L 167 184 L 168 184 L 168 185 L 169 185 L 169 186 L 170 186 L 170 187 L 171 187 L 171 188 L 172 188 L 172 189 L 173 189 L 173 190 L 174 190 L 174 191 L 175 191 L 175 192 L 177 192 L 177 193 L 180 193 L 180 194 L 182 194 L 182 195 L 184 195 L 184 196 L 187 196 L 187 197 L 190 197 L 190 198 L 192 198 L 192 199 L 195 199 L 195 200 L 197 200 L 197 201 L 200 201 L 200 202 L 202 202 L 202 203 L 204 203 L 204 204 L 207 204 L 207 205 L 209 205 L 209 206 L 211 206 L 211 207 L 212 207 L 212 208 L 214 208 L 214 209 L 215 209 L 215 210 L 216 210 L 216 212 L 217 212 L 217 213 L 218 213 L 218 215 L 219 215 L 219 217 L 220 217 L 220 220 L 221 220 L 221 222 L 222 222 L 222 225 L 223 225 L 223 228 L 224 228 L 224 232 L 223 232 L 223 233 L 221 233 L 221 234 L 220 234 L 220 235 L 218 235 L 218 236 L 216 236 L 216 237 L 215 237 L 215 238 L 213 238 L 213 239 L 211 239 L 211 240 L 208 240 L 208 241 L 206 241 L 206 242 L 203 242 L 203 243 L 201 243 L 201 244 L 197 244 L 197 245 L 194 245 L 194 246 L 191 246 L 191 247 L 186 247 L 186 248 L 182 248 L 182 249 L 177 249 L 177 250 L 171 250 L 171 251 L 164 251 L 164 252 L 154 252 L 154 253 L 142 253 L 142 254 L 111 254 L 111 253 L 109 253 L 109 254 L 107 254 L 107 253 L 98 253 L 98 252 L 91 252 L 91 251 L 84 251 L 84 250 L 79 250 L 79 249 L 74 249 L 74 248 L 70 248 L 70 247 L 66 247 L 66 246 L 62 246 L 62 245 L 59 245 L 59 244 L 56 244 L 56 243 L 54 243 L 54 242 L 51 242 L 51 241 L 49 241 L 49 240 L 47 240 L 47 239 L 45 239 L 45 238 L 43 238 L 43 237 L 41 237 L 41 236 L 39 236 L 39 235 L 38 235 L 38 234 L 36 234 L 36 233 L 35 233 L 35 232 L 33 232 L 33 227 L 34 227 L 34 224 L 35 224 L 35 221 L 36 221 L 36 218 L 37 218 L 37 216 L 38 216 L 38 214 L 39 214 L 39 212 L 40 212 L 40 211 L 41 211 L 41 210 L 42 210 L 42 208 L 44 208 L 44 207 L 45 207 L 45 206 L 47 206 L 47 205 L 49 205 L 49 204 L 51 204 L 51 203 L 53 203 L 53 202 L 55 202 L 55 201 L 58 201 L 58 200 L 60 200 L 60 199 L 62 199 L 62 198 L 65 198 L 65 197 L 67 197 L 67 196 L 69 196 L 69 195 L 72 195 L 72 194 L 74 194 L 74 193 L 76 193 L 76 192 L 78 192 L 78 191 L 80 191 L 80 190 L 81 190 L 81 189 L 82 189 L 82 188 L 83 188 L 83 187 L 84 187 L 84 186 L 85 186 L 85 185 L 87 185 L 87 184 L 88 184 L 88 183 L 89 183 L 89 182 L 91 182 L 91 181 L 92 181 L 92 179 L 91 179 L 91 178 L 90 178 L 90 177 L 89 177 L 89 176 L 88 176 L 88 175 L 87 175 L 87 174 L 86 174 L 86 173 L 85 173 L 85 172 L 84 172 L 84 170 L 83 170 L 83 169 L 82 169 L 82 167 L 81 167 L 81 166 L 80 166 L 80 165 L 79 165 L 79 163 L 78 163 L 78 161 L 77 161 L 77 159 L 76 159 L 76 157 L 75 157 L 75 154 L 74 154 L 74 151 L 73 151 L 73 148 L 72 148 L 72 147 L 70 147 L 70 146 L 68 146 L 68 145 L 67 145 L 67 144 L 66 144 L 66 143 L 65 143 L 65 142 L 64 142 L 64 140 L 63 140 L 63 139 L 62 139 L 62 137 L 61 137 L 61 134 L 60 134 L 60 131 L 59 131 L 59 117 L 60 117 L 60 115 L 61 115 L 61 114 L 62 114 L 62 113 L 63 113 L 63 110 L 64 110 L 64 109 L 65 109 L 65 108 L 64 108 L 64 104 L 63 104 L 63 101 L 62 101 L 62 99 L 61 99 L 61 97 L 60 97 L 60 94 L 59 94 L 59 93 L 58 93 L 58 91 L 57 91 L 57 90 L 56 90 L 56 88 L 55 88 L 55 86 L 54 86 L 54 83 L 53 83 L 53 73 L 54 73 L 54 70 L 55 70 L 55 69 L 53 69 L 53 70 L 52 70 L 52 71 L 51 71 L 51 72 L 50 72 L 50 73 L 48 73 L 48 67 L 49 67 L 49 64 L 50 64 L 50 62 L 51 62 L 51 61 L 52 61 L 52 59 L 53 59 L 53 58 L 54 58 L 54 57 L 55 57 L 55 56 L 57 56 L 57 55 L 58 55 L 58 54 L 60 54 L 60 53 L 62 53 L 62 52 L 65 52 L 65 51 L 67 51 L 67 49 L 66 49 L 66 37 L 67 37 L 67 35 L 68 35 L 68 33 L 70 33 L 70 34 L 71 34 L 71 37 L 72 37 L 72 39 L 73 39 L 73 41 L 74 41 L 74 42 L 76 42 L 76 41 L 75 41 L 75 31 L 76 31 L 76 28 L 77 28 L 77 25 L 78 25 L 78 23 L 79 23 L 79 22 L 80 22 L 80 20 L 81 20 L 81 19 L 82 19 L 82 18 L 83 18 L 83 17 L 84 17 L 84 16 L 85 16 L 85 15 L 87 15 L 87 14 L 88 14 L 88 13 L 90 13 L 90 12 L 95 12 L 95 14 L 94 14 L 94 16 L 93 16 L 93 18 L 92 18 L 92 21 L 91 21 L 91 29 L 92 29 L 92 31 L 93 31 L 93 29 L 94 29 L 94 26 L 95 26 L 95 24 L 96 24 L 96 22 L 97 22 L 97 20 L 98 20 L 98 19 L 99 19 L 99 18 L 100 18 L 100 16 L 101 16 L 101 15 L 102 15 L 102 14 L 103 14 L 103 13 L 105 13 L 105 12 L 106 12 L 106 11 L 108 11 L 108 10 L 110 10 L 110 9 L 112 9 L 112 8 L 115 8 L 115 7 L 120 7 L 120 6 Z" />
  </g>
  <g stroke-width="1.45">
    <path class="detail" d="M 138 109 L 138 108 L 139 107 L 140 108 L 141 108 L 142 108 L 143 108 L 144 108 L 145 108 L 146 109 L 147 109 L 148 109 L 149 110 L 150 111 L 151 112 L 152 113 L 152 114 L 152 115 L 152 116 L 152 117 L 153 118 L 153 119" /> <path class="detail" d="M 146 100 L 145 100 L 144 100 L 144 101 L 145 102 L 146 102 L 147 103 L 148 104 L 149 105 L 150 105 L 151 106 L 152 107 L 153 108 L 154 109 L 154 110 L 155 111 L 156 112 L 156 113 L 155 113 L 155 112" /> <path class="detail" d="M 154 52 L 153 51 L 153 50 L 152 49 L 151 48 L 151 47 L 150 46 L 149 45 L 148 44 L 147 43 L 146 42 L 145 42 L 144 41 L 143 41 L 142 40 L 141 39 L 140 39 L 141 40 L 142 39" /> <path class="detail" d="M 52 65 L 53 64 L 54 63 L 54 62 L 55 61 L 56 60 L 57 59 L 58 58 L 59 58 L 60 57 L 61 56 L 62 55 L 63 55 L 64 55 L 65 55 L 66 55 L 66 54 L 65 54" /> <path class="detail" d="M 145 65 L 146 66 L 147 67 L 148 68 L 148 69 L 149 70 L 150 71 L 151 72 L 152 73 L 153 74 L 154 75 L 155 76 L 156 76 L 157 77 L 158 78 L 159 78 L 159 77 L 158 77" /> <path class="detail" d="M 183 146 L 184 145 L 185 145 L 186 144 L 187 143 L 188 142 L 189 141 L 190 140 L 191 139 L 191 138 L 192 137 L 193 136 L 193 135 L 193 134 L 192 133 L 193 132 L 194 132 L 194 133" /> <path class="detail" d="M 108 106 L 107 105 L 107 104 L 106 103 L 105 102 L 104 101 L 103 100 L 102 99 L 101 99 L 100 98 L 99 97 L 98 97 L 97 96 L 96 96 L 95 95 L 94 95 L 94 96" /> <path class="detail" d="M 150 214 L 149 214 L 148 215 L 148 216 L 148 217 L 148 218 L 148 219 L 148 220 L 148 221 L 148 222 L 147 223 L 146 224 L 146 225 L 146 226 L 145 227 L 145 226" /> <path class="detail" d="M 152 18 L 153 19 L 154 20 L 155 20 L 156 21 L 157 22 L 158 22 L 159 23 L 160 24 L 161 25 L 162 26 L 163 27 L 164 28 L 165 29 L 166 30" /> <path class="detail" d="M 114 237 L 114 236 L 113 235 L 112 234 L 113 233 L 114 232 L 115 231 L 116 230 L 117 230 L 118 230 L 118 231 L 117 232 L 116 232 L 116 231 L 117 231" /> <path class="detail" d="M 133 82 L 134 82 L 134 83 L 133 83 L 132 84 L 131 84 L 130 85 L 130 86 L 129 87 L 128 88 L 128 89 L 128 90 L 129 90 L 129 89 L 129 88" /> <path class="detail" d="M 131 111 L 131 110 L 132 109 L 133 108 L 134 107 L 135 106 L 136 105 L 137 104 L 138 103 L 139 102 L 140 102 L 141 101 L 141 100 L 140 100" /> <path class="detail" d="M 131 169 L 132 168 L 133 167 L 134 167 L 135 166 L 136 165 L 137 164 L 138 163 L 138 162 L 139 161 L 140 160 L 140 159 L 139 159 L 139 160" /> <path class="detail" d="M 119 9 L 120 10 L 121 10 L 122 10 L 123 10 L 124 10 L 125 10 L 126 10 L 127 10 L 128 10 L 129 10 L 130 10 L 130 9 L 129 9" /> <path class="detail" d="M 136 12 L 137 12 L 138 13 L 139 13 L 140 13 L 141 13 L 142 13 L 143 14 L 144 15 L 145 15 L 146 15 L 147 15 L 148 16 L 147 16" /> <path class="detail" d="M 162 142 L 163 141 L 164 140 L 163 139 L 164 138 L 165 137 L 165 136 L 165 135 L 165 134 L 165 133 L 165 132 L 166 132 L 166 133 L 166 134" /> <path class="detail" d="M 202 60 L 201 59 L 200 58 L 199 57 L 198 56 L 197 55 L 196 55 L 195 55 L 196 56 L 197 56 L 198 57 L 199 58 L 200 59" /> <path class="detail" d="M 173 219 L 174 219 L 175 220 L 176 221 L 177 222 L 178 223 L 179 224 L 180 225 L 180 226 L 180 227 L 179 228 L 179 227 L 179 226" /> <path class="detail" d="M 150 180 L 149 181 L 148 182 L 147 183 L 146 184 L 145 185 L 144 186 L 143 187 L 142 187 L 141 188 L 140 189 L 139 189 L 138 190" /> <path class="detail" d="M 83 66 L 82 67 L 81 68 L 80 69 L 80 70 L 79 71 L 78 72 L 78 73 L 77 74 L 77 75 L 76 76 L 76 77 L 77 77" /> <path class="detail" d="M 164 186 L 165 186 L 166 187 L 167 188 L 168 189 L 169 190 L 170 191 L 170 192 L 171 193 L 172 194 L 172 195 L 171 195 L 171 194" /> <path class="detail" d="M 109 192 L 110 193 L 111 194 L 112 194 L 113 195 L 114 196 L 115 197 L 116 198 L 117 199 L 118 200 L 119 200 L 118 199" /> <path class="detail" d="M 76 104 L 76 103 L 77 102 L 78 102 L 79 101 L 80 100 L 81 100 L 82 100 L 83 100 L 84 100 L 84 99 L 83 99" /> <path class="detail" d="M 104 127 L 103 128 L 103 129 L 102 130 L 101 131 L 100 132 L 99 133 L 98 133 L 97 134 L 96 135 L 95 135 L 95 134" /> <path class="detail" d="M 170 39 L 171 40 L 172 40 L 173 40 L 174 40 L 175 40 L 176 40 L 177 40 L 177 41 L 176 41 L 175 41 L 174 41" /> <path class="detail" d="M 162 143 L 161 144 L 160 145 L 159 146 L 159 147 L 158 148 L 157 149 L 156 150 L 155 151 L 154 152 L 153 153 L 153 152" /> <path class="detail" d="M 40 219 L 39 220 L 39 221 L 39 222 L 38 223 L 38 224 L 38 225 L 38 226 L 38 227 L 37 227 L 37 226" /> <path class="detail" d="M 162 131 L 161 132 L 161 133 L 160 134 L 159 135 L 158 136 L 157 137 L 156 137 L 155 138 L 154 139 L 155 140" /> <path class="detail" d="M 122 109 L 123 108 L 123 107 L 124 106 L 125 105 L 126 104 L 127 103 L 128 102 L 129 101 L 130 100" /> <path class="detail" d="M 173 89 L 174 90 L 175 91 L 175 92 L 175 93 L 176 94 L 177 94 L 178 95 L 179 96 L 178 96" /> <path class="detail" d="M 147 84 L 148 85 L 149 85 L 150 86 L 151 87 L 152 88 L 153 89 L 154 90 L 155 91 L 156 92" /> <path class="detail" d="M 102 112 L 101 112 L 100 111 L 99 110 L 98 109 L 97 108 L 96 107 L 95 107 L 94 107 L 93 107" /> <path class="detail" d="M 168 220 L 169 220 L 170 221 L 171 222 L 172 223 L 173 223 L 174 224 L 175 225 L 176 226 L 175 226" /> <path class="detail" d="M 81 108 L 82 107 L 83 106 L 84 105 L 85 104 L 86 103 L 87 102 L 88 102 L 88 103 L 87 103" /> <path class="detail" d="M 112 200 L 112 199 L 111 198 L 110 199 L 111 200 L 112 201 L 113 201 L 114 201 L 114 200 L 113 200" /> <path class="detail" d="M 71 117 L 70 116 L 71 116 L 70 117 L 70 118 L 70 119 L 70 120 L 71 120 L 71 119 L 71 118" /> <path class="detail" d="M 132 139 L 131 139 L 130 138 L 129 137 L 128 136 L 127 135 L 126 134 L 125 133 L 124 132" /> <path class="detail" d="M 145 189 L 146 189 L 147 188 L 148 187 L 149 186 L 150 185 L 151 184 L 152 183 L 153 182" /> <path class="detail" d="M 122 64 L 123 65 L 124 64 L 125 64 L 126 64 L 127 63 L 128 62 L 127 62 L 128 63" /> <path class="detail" d="M 149 96 L 150 96 L 151 97 L 152 97 L 153 98 L 154 98 L 155 99 L 156 100 L 157 101" /> <path class="detail" d="M 103 86 L 102 85 L 101 84 L 100 83 L 99 82 L 98 81 L 97 81 L 97 82 L 98 82" /> <path class="detail" d="M 159 103 L 160 104 L 161 105 L 161 106 L 162 107 L 163 108 L 164 109 L 163 110 L 163 109" /> <path class="detail" d="M 136 109 L 135 110 L 134 111 L 134 112 L 134 113 L 135 114 L 136 115 L 136 114 L 135 115" /> <path class="detail" d="M 104 169 L 105 170 L 106 169 L 107 168 L 108 167 L 109 166 L 109 165 L 108 165 L 108 166" /> <path class="detail" d="M 119 232 L 120 233 L 121 234 L 121 235 L 121 236 L 120 237 L 120 236 L 120 235 L 120 234" /> <path class="detail" d="M 140 183 L 141 182 L 142 182 L 143 181 L 144 180 L 145 179 L 146 179 L 147 178 L 148 178" /> <path class="detail" d="M 152 103 L 153 104 L 154 105 L 155 105 L 156 106 L 157 107 L 158 108 L 158 109 L 159 110" /> <path class="detail" d="M 127 189 L 127 188 L 128 188 L 129 188 L 130 188 L 131 188 L 132 187 L 131 187 L 130 187" /> <path class="detail" d="M 144 232 L 144 231 L 145 230 L 146 229 L 146 230 L 145 231 L 145 232 L 145 233 L 144 233" /> <path class="detail" d="M 128 157 L 128 156 L 129 156 L 130 156 L 131 156 L 132 156 L 133 155 L 132 155 L 131 155" /> <path class="detail" d="M 213 215 L 214 214 L 214 215 L 214 216 L 215 217 L 216 218 L 216 219 L 216 220 L 215 219" /> <path class="detail" d="M 115 215 L 116 216 L 117 217 L 118 217 L 119 217 L 120 217 L 121 217 L 122 216" /> <path class="detail" d="M 179 127 L 180 126 L 181 125 L 182 124 L 183 123 L 184 122 L 185 121 L 185 122" /> <path class="detail" d="M 168 28 L 167 27 L 166 26 L 165 25 L 164 24 L 163 23 L 162 22 L 161 21" /> <path class="detail" d="M 65 223 L 66 222 L 67 221 L 68 221 L 69 220 L 70 219 L 71 218 L 72 218" /> <path class="detail" d="M 91 109 L 90 110 L 89 111 L 88 112 L 87 113 L 86 114 L 86 115 L 87 115" /> <path class="detail" d="M 94 129 L 94 128 L 95 127 L 95 126 L 95 125 L 94 125 L 93 125 L 94 126" /> <path class="detail" d="M 127 109 L 128 108 L 129 107 L 130 106 L 130 105 L 131 104 L 132 104 L 133 103" /> <path class="detail" d="M 86 108 L 85 109 L 84 110 L 83 111 L 82 112 L 82 113 L 83 113 L 83 112" /> <path class="detail" d="M 102 117 L 103 117 L 103 118 L 103 119 L 103 120 L 102 120 L 102 119 L 102 118" /> <path class="detail" d="M 94 60 L 95 60 L 96 60 L 97 60 L 97 61 L 96 61 L 95 61 L 94 61" /> <path class="detail" d="M 142 222 L 141 223 L 140 224 L 140 225 L 141 225 L 142 224 L 142 223 L 141 224" /> <path class="detail" d="M 176 233 L 177 233 L 176 234 L 176 235 L 175 236 L 174 237 L 174 238 L 175 237" /> <path class="detail" d="M 148 122 L 148 123 L 148 124 L 148 125 L 147 125 L 146 124 L 147 124" /> <path class="detail" d="M 78 90 L 79 89 L 80 88 L 81 87 L 82 86 L 83 85 L 84 84" /> <path class="detail" d="M 111 123 L 111 122 L 111 121 L 112 120 L 112 119 L 111 118 L 112 117" /> <path class="detail" d="M 129 199 L 128 200 L 127 201 L 126 201 L 125 201 L 126 200 L 127 200" /> <path class="detail" d="M 193 123 L 194 122 L 193 121 L 192 120 L 191 119 L 190 118 L 189 117" /> <path class="detail" d="M 154 134 L 155 133 L 156 132 L 157 131 L 158 130 L 158 129 L 159 128" /> <path class="detail" d="M 127 129 L 128 130 L 129 131 L 130 132 L 131 133 L 132 134 L 133 135" /> <path class="detail" d="M 217 222 L 218 223 L 218 224 L 218 225 L 219 226 L 219 227 L 218 227" /> <path class="detail" d="M 145 195 L 146 196 L 147 197 L 148 198 L 149 199 L 149 200 L 148 200" /> <path class="detail" d="M 139 194 L 138 195 L 137 196 L 136 196 L 135 196 L 136 195 L 137 195" /> <path class="detail" d="M 142 220 L 143 219 L 143 218 L 143 217 L 143 216 L 143 215 L 144 215" /> <path class="detail" d="M 110 239 L 110 238 L 111 238 L 112 238 L 112 239 L 111 239 L 110 240" /> <path class="detail" d="M 92 113 L 91 113 L 91 114 L 91 115 L 92 114 L 93 113 L 93 114" /> <path class="detail" d="M 156 178 L 155 178 L 155 179 L 155 180 L 155 181 L 156 180 L 156 179" />
  </g>
</svg>
