<?xml version="1.0" encoding="UTF-8" standalone="no"?>
<!-- Created with Inkscape (http://www.inkscape.org/) -->

<svg
   version="1.1"
   id="svg1"
   width="643.36926"
   height="864.08099"
   viewBox="0 0 643.36926 864.08099"
   xmlns="http://www.w3.org/2000/svg"
   xmlns:svg="http://www.w3.org/2000/svg">
  <defs
     id="defs1" />
  <g
     id="g1"
     transform="translate(-186.5,-71.02504)">
    <path
       style="fill:#000000"
       d="m 227.27451,933.46096 c -17.8552,-4.80908 -33.02661,-19.33537 -38.55905,-36.91943 L 186.5,889.5 V 503 c 0,-372.12017 0.0683,-386.72129 1.83541,-392.44772 6.16003,-19.961769 21.24949,-34.663808 39.46381,-38.45057 3.78642,-0.787199 84.14782,-1.09434 281.5,-1.075893 l 276.20078,0.02582 6.55782,2.235646 c 19.10939,6.514643 33.41231,22.485749 36.90805,41.212717 0.81763,4.3801 1.04093,110.07856 0.82707,391.5 L 829.5,891.5 l -2.77379,7 c -6.74337,17.01768 -22.5937,30.89859 -39.95705,34.99236 -9.21197,2.1719 -551.42717,2.14147 -559.49465,-0.0314 z m 557.2811,-31.83466 c 6.26882,-2.9191 11.62659,-9.03482 13.79379,-15.7452 2.49483,-7.72478 2.55007,-758.45349 0.0564,-766.9496 -1.9645,-6.69326 -10.05677,-15.18552 -16.05825,-16.85197 -2.68552,-0.7457 -85.86353,-1.07006 -275.40125,-1.07395 L 235.39269,101 l -5.19792,2.59023 c -6.15345,3.0664 -10.60473,8.11725 -12.69208,14.40168 -2.60242,7.83513 -1.75736,766.0895 0.85926,771.00809 3.59829,6.76388 9.76086,11.97568 16.63158,14.06566 1.37856,0.41934 124.45647,0.79672 273.50647,0.83862 l 271,0.0762 z M 560.41519,861.57859 c -8.66064,-3.77084 -11.07627,-15.76366 -4.49983,-22.3401 16.10849,-16.10849 173.39135,-84.78316 189.95917,-82.94218 23.84943,2.6501 15.72177,21.40901 -14.37453,33.17692 -60.31465,23.58353 -104.03557,43.33733 -148.24401,66.97896 -13.00965,6.95726 -16.7221,7.79048 -22.8408,5.1264 z m -47.54239,-42.2623 c -3.68394,-2.28634 -5.62641,-6.00639 -7.28613,-13.95381 -1.69834,-8.13231 -15.34276,-82.76171 -15.78267,-86.32474 -0.26583,-2.15313 -1.21374,-1.32022 -7.55031,6.63431 -4.3045,5.40361 -8.62857,9.75249 -10.65113,10.71226 -15.5006,7.35551 -28.04199,-10.33114 -16.79765,-23.68911 35.56517,-42.25046 39.9908,-45.77559 49.89076,-39.7392 6.28011,3.82923 5.82787,2.15206 17.67364,65.544 2.46663,13.2 6.40463,34.27115 8.75113,46.82479 5.8671,31.38867 -1.20742,44.56702 -18.24764,33.9915 z m 66.88915,-34.25815 C 531.44753,769.61324 523.9485,663.85914 569.5,640.34042 c 38.96415,-20.1176 72.70959,11.27301 77.03523,71.65958 3.58257,50.01314 -28.62571,85.25295 -66.77328,73.05814 z m 22.79786,-27.94606 C 629.14601,745.03643 619.0861,664.04392 591,664.04392 c -15.85257,0 -24.61444,19.82837 -21.85392,49.45608 3.2472,34.85121 16.01431,51.51502 33.41373,43.61208 z M 693,742.18058 c -48.40162,-16.04123 -54.98437,-119.44714 -9.1376,-143.53893 39.34537,-20.67541 75.11413,16.76765 75.13358,78.65051 0.0146,46.38334 -30.70284,76.58525 -65.99598,64.88842 z m 23.28212,-28.53281 C 741.97178,702.85239 731.1364,622 704,622 c -14.68493,0 -23.06091,17.18863 -21.67489,44.47981 1.83325,36.09728 15.4132,54.9605 33.95701,47.16796 z M 315.30643,631.82853 c -5.20609,-2.89074 -37.63314,-33.0554 -39.1769,-36.44359 -4.46674,-9.80343 2.55034,-20.37325 13.53067,-20.3812 5.85401,-0.004 7.86224,1.35546 23.30664,15.78008 l 8.46684,7.90778 22.42838,-30.94881 c 23.33364,-32.19798 25.70018,-34.73242 32.4376,-34.73905 12.16224,-0.012 17.79171,12.79819 10.39121,23.64577 -4.89594,7.17643 -31.53692,43.88731 -42.83235,59.02234 -13.71067,18.37129 -19.08584,21.41292 -28.55209,16.15668 z m 118.59145,-81.09846 c -9.69063,-6.47377 -8.86662,-22.11728 1.41079,-26.78327 6.68003,-3.03276 281.68379,-3.01162 287.6304,0.0221 10.58882,5.40202 11.19266,19.9823 1.10898,26.77769 L 720.70423,553 H 579 437.29577 Z M 319.16932,517.98262 c -3.74904,-0.85886 -2.96039,-0.2003 -24.57925,-20.52506 -22.10748,-20.78412 -24.84479,-27.81924 -14.1098,-36.26338 7.87874,-6.19742 13.0256,-4.41786 28.41933,9.82617 l 12.79369,11.83818 6.00176,-8.17927 c 3.30098,-4.49859 13.37069,-18.45728 22.37715,-31.01931 C 367.21345,419.75169 368.98342,418 376,418 c 11.50686,0 18.16909,12.59923 11.69159,22.11045 -5.11454,7.50992 -51.12592,70.55105 -53.08626,72.73456 -3.97154,4.42368 -9.91597,6.40219 -15.43601,5.13761 z M 434.92168,448.7262 c -10.42329,-7.02425 -10.38088,-20.72765 0.0824,-26.60831 L 438.77231,420 l 139.86384,0.022 c 134.19302,0.0211 140.0299,0.0974 143.95931,1.88192 8.37709,3.80446 11.28667,14.14254 6.16044,21.88879 C 723.5957,451.59027 735.88118,451 578.74675,451 H 438.29577 Z M 316.84509,401.7049 c -3.59606,-1.63203 -38.68224,-34.51715 -40.4423,-37.90524 -4.86238,-9.35998 2.49923,-21.78572 12.91295,-21.79592 5.34275,-0.005 6.66688,0.88275 20.18426,13.53587 l 12,11.23277 22.39134,-30.99627 c 25.8122,-35.73176 27.37018,-37.03629 38.61888,-32.33629 15.13876,6.32538 13.52798,9.72062 -38.21951,80.56018 -14.28468,19.55497 -18.03638,21.97516 -27.44562,17.7049 z M 441.32941,348 c -15.7605,-1.27707 -20.18406,-22.623 -6.02074,-29.0532 6.68003,-3.03276 281.68379,-3.01162 287.6304,0.0221 11.36287,5.79691 11.26863,21.69075 -0.16388,27.63876 -2.72386,1.41714 -265.1196,2.71523 -281.44578,1.39233 z M 316.0867,283.91165 c -4.98736,-3.04047 -38.65944,-34.6785 -39.97051,-37.55598 -4.40067,-9.65842 2.70237,-20.36366 13.50184,-20.34908 6.00024,0.008 7.17798,0.77309 20.77384,13.49341 5.87857,5.5 11.00776,10.08712 11.39822,10.19359 0.39045,0.10648 10.37199,-13.34819 22.18119,-29.89927 22.77774,-31.9239 24.54374,-33.78684 32.02872,-33.78684 11.28191,0 17.6166,11.44276 11.73355,21.19506 -7.07048,11.72071 -54.2184,75.11758 -57.23355,76.95841 -3.99868,2.4413 -10.17509,2.33447 -14.4133,-0.2493 z m 119.13148,-39.57473 c -10.34486,-5.09878 -10.90836,-20.28729 -0.97732,-26.34232 4.38817,-2.6755 283.5497,-3.18851 288.68968,-0.53052 10.629,5.49647 11.2577,19.60139 1.17158,26.28447 L 720.70423,246 579.60212,245.97723 c -127.93287,-0.0206 -141.40842,-0.17374 -144.38394,-1.64031 z"
       id="path1" />
  </g>
</svg>
