<?xml version="1.0" encoding="UTF-8" standalone="no"?>
<!-- Created with Inkscape (http://www.inkscape.org/) -->

<svg
   version="1.1"
   id="svg1"
   width="738.99335"
   height="739.01685"
   viewBox="0 0 738.99335 739.01685"
   xmlns="http://www.w3.org/2000/svg"
   xmlns:svg="http://www.w3.org/2000/svg">
  <defs
     id="defs1" />
  <g
     id="g1"
     transform="translate(-142.50674,-141.55424)">
    <path
       style="fill:#000000"
       d="M 485,880.38337 C 379.92707,870.94014 286.32651,821.62285 222.96997,742.3221 178.56536,686.74268 152.23102,622.946 143.78862,550.5 l -1.28187,-11 0.061,-29 0.061,-29 2.19634,-16.39541 C 150.65132,421.61214 160.90595,386.35144 178.44553,349.5 233.12732,234.61113 345.1007,156.06632 473.0099,142.87496 l 12.4901,-1.28811 25,-0.0163 25,-0.0163 12.5,1.26406 c 49.17368,4.97268 91.43328,17.39599 134.5,39.53978 111.26189,57.2079 183.03262,162.18494 197.68069,289.14191 l 1.26916,11 0.0251,29.5 0.0251,29.5 -1.29262,10.5 C 872.62953,613.55494 853.60959,666.12558 821.3985,714.54622 761.43421,804.6863 667.92262,863.19707 560,878.10487 l -14.5,2.00294 -28,0.33999 c -15.4,0.187 -30.025,0.158 -32.5,-0.0644 z m 56.5,-35.47067 c 59.25521,-4.91751 117.8642,-26.96529 168.35837,-63.33377 53.93547,-38.84708 93.92285,-91.12088 117.18231,-153.18747 l 5.12229,-13.66857 4.33541,-17.11144 C 841.13581,579.30797 844.31277,561.93136 846.1173,545 l 1.11908,-10.5 -0.005,-24 -0.005,-24 -1.65605,-14 C 837.91934,407.82122 811.14127,345.01305 770.16392,295.63411 719.82154,234.97004 646.98696,193.659 567.32439,180.58557 l -14.94185,-2.45211 -16.94127,-1.2046 -16.94127,-1.2046 -18.5,0.58137 -18.5,0.58138 -11.9528,1.59731 c -76.32829,10.20014 -142.51601,42.423 -195.09023,94.97783 L 260.41395,287.5 250.29147,300.1661 C 211.52346,348.6759 188.16329,403.18794 179.44055,465.5 l -1.67981,12 -0.47423,26.5 -0.47424,26.5 1.62835,15.4203 c 16.21894,153.59239 133.38237,274.93068 286.89381,297.11661 l 14.16557,2.04725 15,0.70792 c 17.51544,0.82664 29.04139,0.61098 47,-0.87938 z m -36,-124.93201 C 497.28916,717.35953 470.09017,691.90362 451.02845,669 400.50579,608.29447 366.24218,542.49213 354.95837,484.5 l -2.14033,-11 -0.54754,-18.13044 -0.54755,-18.13043 1.21405,-9.86957 c 9.03804,-73.47452 65.00249,-130.20464 138.04096,-139.92953 38.93715,-5.18439 79.29548,4.22403 112.26202,26.17074 l 9.79608,6.52151 9.11072,8.67003 C 652.83798,358.00898 669.49202,393.16966 672.9215,436 l 1.00089,12.5 -0.95159,12.5 c -4.15778,54.61639 -33.84042,121.7512 -82.45817,186.5 -20.29815,27.03294 -50.52824,59.22282 -64.64326,68.834 l -5.63063,3.83401 -5.86937,0.38518 -5.86937,0.38519 z M 537,545.916 c 4.675,-1.1914 12.39766,-3.84189 17.16147,-5.88997 l 8.66146,-3.72379 8.43042,-5.60941 8.43042,-5.60941 8.90811,-9.35337 8.90812,-9.35337 5.24376,-8.86065 c 6.2442,-10.55113 10.45567,-21.09439 12.7887,-32.01603 l 1.70893,-8 v -12 -12 l -1.70428,-8 c -2.3789,-11.16667 -7.3873,-24.02278 -13.14499,-33.74194 L 597.5,383.5 586,372 l -11.5,-11.5 -8,-4.64941 c -9.86929,-5.73579 -18.53023,-9.40427 -28.42094,-12.03813 L 530.5,341.79419 515,341.28981 l -15.5,-0.50437 -11.28553,2.56049 -11.28553,2.56049 -9.56599,4.53146 c -16.29631,7.71963 -28.98857,17.95477 -39.40133,31.77354 l -6.0316,8.00455 -4.88748,10.14201 -4.88748,10.14202 -2.18241,8.5 -2.1824,8.5 -0.49067,13.5 -0.49067,13.5 2.15556,10.45159 2.15556,10.45159 3.40617,8.22843 c 6.22652,15.04167 13.91411,25.92841 26.82751,37.9916 l 8.43194,7.87679 7.91594,4.77164 7.91593,4.77164 9.83143,3.51389 c 5.40729,1.93263 13.48084,4.15957 17.94124,4.94875 l 8.10981,1.43486 13.5,-0.4293 13.5,-0.4293 z"
       id="path1" />
  </g>
</svg>
