<?xml version="1.0" encoding="UTF-8" standalone="no"?>
<!-- Created with Inkscape (http://www.inkscape.org/) -->

<svg
   version="1.1"
   id="svg1"
   width="837.79626"
   height="832.2243"
   viewBox="0 0 837.79626 832.2243"
   xmlns="http://www.w3.org/2000/svg"
   xmlns:svg="http://www.w3.org/2000/svg">
  <defs
     id="defs1" />
  <g
     id="g1"
     transform="translate(-93.661073,-90.391083)">
    <path
       style="fill:#000000"
       d="M 478,921.97143 C 410.71253,915.68662 356.50077,899.29073 304.40928,869.47038 244.53587,835.19518 189.77832,782.11631 154.57748,724.23192 124.01226,673.97034 104.82081,619.24235 96.986315,560 91.525949,518.71015 92.836598,471.85645 100.57756,431.61852 119.72989,332.06366 171.98968,244.56718 249.5,182.28365 300.77254,141.08352 362.69833,112.10462 427.4633,99.003646 486.04303,87.153849 544.68326,87.532314 603,100.13656 c 75.16725,16.24623 152.01142,58.42551 206.31042,113.2425 68.18501,68.83546 110.19272,158.3518 120.89487,257.62094 1.90759,17.69418 1.57378,64.45234 -0.58185,81.5 -6.52553,51.60686 -20.85528,99.17584 -43.07755,143 C 849.35939,768.8349 792.6623,827.86453 719,869.9388 c -48.27664,27.57454 -96.55982,43.441 -154,50.60636 -14.75706,1.84086 -72.43725,2.78647 -87,1.42627 z m 58,-27.00341 c 53.75328,-3.33169 99.61488,-14.30866 141.89716,-33.96304 69.88741,-32.48629 131.31269,-88.24643 172.35513,-156.45911 27.9005,-46.37074 45.14927,-98.72326 51.9072,-157.54587 1.95657,-17.03052 1.66743,-63.74553 -0.50755,-82 C 894.4335,404.41606 873.47874,346.92717 839.50453,294.5 793.62733,223.70479 723.48061,169.37291 640,139.97452 579.3277,118.60826 506.11035,112.69169 442.94545,124.05088 358.66017,139.20822 277.73208,184.12886 221.83369,246.78308 169.17051,305.81108 136.4969,375.31306 125.59412,451.5 c -3.8839,27.1401 -4.92934,63.53848 -2.58499,90 2.32021,26.18908 8.48988,57.12839 16.65091,83.5 11.66303,37.688 33.46846,80.21215 57.68748,112.5 49.71823,66.28241 113.71274,112.99006 189.08027,138.00395 36.07701,11.97367 61.53818,16.58422 109.57221,19.84148 10.50529,0.71238 24.55627,0.57981 40,-0.37741 z M 263.72878,696.96224 C 250.6635,694.76467 234.80153,687.47321 224.02601,678.71161 204.97808,663.22369 194.02646,641.19876 192.34622,615 c -0.73787,-11.50511 0.598,-22.4412 5.19149,-42.5 1.88926,-8.25 6.32899,-28.5 9.86606,-45 31.02526,-144.72907 29.02458,-136.39698 36.49777,-152 11.32932,-23.6541 31.76318,-43.55222 55.00318,-53.56106 14.47832,-6.23542 27.35475,-9.01607 44.72596,-9.6585 27.45367,-1.01531 45.73599,3.93462 68.79192,18.62537 C 426.90721,340.1351 419.54855,339.5 512,339.5 h 81.5 l 5.64442,-2.64634 c 3.10443,-1.45549 8.87874,-4.75765 12.8318,-7.33814 17.97083,-11.73104 33.48486,-16.45613 56.52378,-17.21538 11.12553,-0.36665 17.57192,-0.0727 24.95717,1.13783 38.41127,6.29633 71.6636,30.89903 86.52215,64.01594 5.29672,11.80539 7.87001,21.95446 23.54536,92.8632 8.5332,38.60059 17.72776,79.85789 20.43237,91.68289 2.7046,11.825 5.6207,24.96853 6.48021,29.20784 2.01762,9.9514 2.00556,27.72742 -0.0255,37.58432 -7.31778,35.51393 -34.32148,61.8648 -69.84543,68.15686 -8.45888,1.49825 -28.878,1.26807 -36.82069,-0.41507 -20.23742,-4.28852 -39.19451,-16.56571 -51.68032,-33.46976 -4.40744,-5.96705 -23.92908,-36.60154 -41.14313,-64.56419 -10.36161,-16.83147 -17.72066,-23.64129 -29.1334,-26.95907 -4.81987,-1.40117 -15.48346,-1.55269 -92.36886,-1.31249 L 422.5,570.5 l -6.09969,2.81911 c -9.14618,4.22711 -15.69056,11.59577 -27.69289,31.18089 -21.60175,35.24922 -36.94396,59.06125 -41.45728,64.34414 -5.68763,6.65744 -17.68172,16.32739 -24.59997,19.83313 -6.68274,3.3864 -14.5394,6.07966 -22.96555,7.87256 -7.30557,1.55447 -27.7704,1.7892 -35.95584,0.41241 z m 38.54652,-21.79781 c 10.30475,-3.7008 18.06032,-8.50189 25.30397,-15.66443 6.00205,-5.93484 10.83226,-13.02272 31.74325,-46.58014 13.56519,-21.76908 26.35452,-41.34445 28.42073,-43.50082 9.03811,-9.43248 18.1391,-15.03817 28.97249,-17.84538 8.93963,-2.31649 178.36919,-2.3491 188.18115,-0.0362 16.76392,3.9516 30.18367,15.29436 43.73083,36.96256 27.03442,43.2406 40.11828,63.56696 43.63539,67.78955 7.51926,9.0275 21.33048,17.19995 34.23689,20.25885 8.82792,2.09227 25.57697,1.8616 34.72569,-0.47824 25.22543,-6.45158 44.17243,-25.67492 49.38507,-50.10534 C 813.39355,612.92252 812.18282,602.18265 803.62533,564 792.30947,513.50985 779.56395,456.27478 776.0121,440 765.18435,390.38658 759.52481,376.52694 743.52336,360.43841 726.33869,343.16021 703.98008,333.64846 677.5,332.3509 c -21.01308,-1.02968 -37.77433,3.32122 -55.15455,14.31704 -4.865,3.07791 -11.58778,6.89634 -14.93951,8.48541 -12.48612,5.91972 -12.89964,5.94304 -99.75585,5.62689 -90.13058,-0.32806 -82.02754,0.45067 -99.02181,-9.51634 -14.36727,-8.4263 -26.45174,-14.07091 -35.12828,-16.4083 -11.6731,-3.14464 -36.32023,-3.19428 -48.68676,-0.0981 -27.91996,6.99035 -48.79348,23.24809 -61.46443,47.87275 -7.09045,13.77956 -8.20705,18.32291 -32.90046,133.86971 -6.93486,32.45 -13.71337,63.5 -15.06335,69 -5.21794,21.25858 -4.05113,39.13954 3.589,55 8.20741,17.0381 22.91341,29.36176 42.026,35.21788 6.66412,2.0419 9.06031,2.25469 21.5,1.90934 10.92,-0.30317 15.27056,-0.84498 19.7753,-2.46279 z M 664.5,516.93904 c -4.27177,-1.25389 -10.22407,-6.47785 -12.52902,-10.99593 -2.54916,-4.99676 -2.59126,-13.98086 -0.0913,-19.48448 6.15987,-13.56092 25.78216,-16.8591 36.49179,-6.13366 6.20442,6.21358 8.1449,14.68393 5.23215,22.83878 -4.05457,11.35161 -16.80324,17.3858 -29.1036,13.77529 z m -321,-5.89307 c -1.1,-0.45499 -3.125,-2.03674 -4.5,-3.51501 -2.49116,-2.67825 -2.50107,-2.76703 -2.80318,-25.10936 L 335.89365,460 h -23.79894 c -23.12202,0 -23.89559,-0.0649 -27.19683,-2.2826 -2.1847,-1.46762 -3.92243,-3.78838 -4.86705,-6.5 -1.29222,-3.70946 -1.29222,-4.72927 0,-8.4674 1.18127,-3.41717 2.34352,-4.69091 5.93106,-6.5 4.23776,-2.13698 5.60659,-2.25 27.25,-2.25 H 336 l 0.004,-23.25 c 0.003,-21.29571 0.16782,-23.5191 1.95578,-26.45145 2.09609,-3.43771 6.64857,-6.29855 10.02294,-6.29855 3.8778,0 8.96447,2.86443 10.99191,6.18982 1.87078,3.06845 2.01843,5.00445 2.02189,26.5113 l 0.004,23.20112 24.75,0.29888 c 23.98623,0.28966 24.84952,0.36986 27.97491,2.59911 6.91978,4.93566 6.58817,16.07306 -0.62279,20.91717 -3.30662,2.22129 -4.05198,2.2826 -27.75,2.2826 H 361 v 21.35212 c 0,20.57029 -0.0835,21.476 -2.28002,24.73543 -3.59082,5.32842 -9.59579,7.28474 -15.21998,4.95842 z m 108.04168,0.22459 c -8.12559,-2.06402 -11.87008,-10.93959 -7.58216,-17.97201 3.53499,-5.79758 5.74693,-6.29928 27.74082,-6.29196 17.88693,0.006 20.08296,0.19334 22.73223,1.93975 3.89065,2.56473 5.48901,5.66407 5.53199,10.72693 0.0445,5.23517 -3.53121,9.83441 -8.77884,11.2919 -3.65171,1.01423 -35.87623,1.26246 -39.64404,0.30539 z m 80.07762,-0.26896 c -7.33972,-2.28939 -10.7684,-9.61545 -7.72262,-16.50094 3.14032,-7.09922 5.49569,-7.66247 30.54995,-7.30563 19.95758,0.28425 21.60428,0.44818 24.23234,2.41238 6.56094,4.90363 6.58445,14.92864 0.0459,19.59236 -3.0876,2.20229 -4.09778,2.30875 -23.72491,2.5003 -11.275,0.11003 -21.79631,-0.20428 -23.3807,-0.69847 z m 85.41058,-42.0629 c -4.94086,-2.07447 -9.29687,-6.31583 -11.62772,-11.32167 -4.22278,-9.06903 -2.66392,-17.39885 4.6263,-24.72078 10.9353,-10.98288 28.76251,-8.19854 35.48526,5.54226 2.3386,4.77992 2.67237,6.46949 2.19389,11.10551 -0.73102,7.08294 -4.1261,13.10785 -9.52063,16.89532 -3.69408,2.5936 -5.34438,3.06463 -11.5,3.28231 -3.95284,0.13978 -8.29853,-0.21255 -9.6571,-0.78295 z M 712,468.45892 c -10.05579,-4.50857 -15.59111,-15.85421 -12.59384,-25.81336 3.16454,-10.51497 10.60638,-16.04635 21.67226,-16.10857 5.6088,-0.0315 7.29731,0.40747 11.45578,2.97845 13.7452,8.49801 13.91353,28.20397 0.31778,37.20121 -5.1338,3.39739 -15.27126,4.24441 -20.85198,1.74227 z m -49.74835,-46.5634 C 654.33436,417.97653 650,410.76105 650,401.5 c 0,-13.3734 9.02967,-22.55507 22.35999,-22.73639 24.35336,-0.33125 31.42493,32.12256 9.44295,43.33692 -5.15013,2.6274 -14.01699,2.53443 -19.55129,-0.20501 z"
       id="path1" />
  </g>
</svg>
