<?xml version="1.0" encoding="UTF-8" standalone="no"?>
<!-- Created with Inkscape (http://www.inkscape.org/) -->

<svg
   version="1.1"
   id="svg1"
   width="850.02466"
   height="847.30225"
   viewBox="0 0 850.02466 847.30225"
   xmlns="http://www.w3.org/2000/svg"
   xmlns:svg="http://www.w3.org/2000/svg">
  <defs
     id="defs1" />
  <g
     id="g1"
     transform="translate(-86.204834,-86.54734)">
    <path
       style="fill:#000000"
       d="M 478.11833,932.9637 C 393.28084,926.36036 312.25913,894.15599 244.95241,840.28529 L 231.5,829.5183 215.67314,814.0433 C 206.96836,805.53206 195.98192,794.16422 191.25882,788.78144 133.16719,722.57613 97.574801,640.85073 88.573163,553 l -1.485744,-14.5 -0.441292,-20.5 -0.441292,-20.5 0.878188,-13 C 94.596137,373.28176 143.1232,271.7764 224.5,197.06121 291.06962,135.94106 370.13995,99.890998 463,88.323328 l 13.5,-1.681709 30.5,-0.04714 30.5,-0.04714 13.5,1.275896 c 64.0925,6.057436 118.69093,23.244925 173,54.460095 25.05571,14.40125 59.2199,40.3761 74.4611,56.61236 l 2.9611,3.15443 -13.45823,13.48599 c -7.40203,7.41729 -14.27206,13.74428 -15.26672,14.05998 l -1.80849,0.57399 -1.82877,-1.33504 c -1.00582,-0.73427 -5.81829,-4.89211 -10.69438,-9.23964 C 703.36675,170.55829 630.2313,138.963 550.5,129.79526 l -11,-1.26481 -32,0.0268 -32,0.0268 -12.88148,1.73493 C 370.90961,142.67059 287.72222,185.91116 228.17081,252.18415 210.22053,272.16047 201.28358,283.92787 186.54,307 l -8.62679,13.5 -9.26491,18.5 c -26.44893,52.81274 -38.46722,99.63236 -41.19928,160.5 l -0.6284,14 1.08059,17.70816 c 5.06908,83.0697 34.63243,159.31174 85.55813,220.64909 4.40328,5.30351 14.76376,16.55011 23.02331,24.99244 l 15.01735,15.34969 12.829,10.65031 c 58.47691,48.54605 125.72026,77.98216 200.671,87.84474 l 13.5,1.77643 32.5,0.0146 32.5,0.0146 10.5,-1.29262 C 610.97376,884.19357 661.3447,867.12 708.54913,838.82199 L 724.09921,829.5 739.48463,818 c 84.89516,-63.45583 139.74075,-156.33188 152.94586,-259 1.62066,-12.60038 3.44389,-41.79228 2.65923,-42.57695 C 894.85704,516.19037 838.49167,516 769.83333,516 H 645 V 496.5 477 h 144.39301 144.39301 l 0.54334,1.41591 c 0.29883,0.77876 0.84862,8.99126 1.22175,18.25 l 0.67841,16.83409 -1.17677,19 C 928.28976,641.69445 884.22669,739.06007 807.87625,813.52034 739.72395,879.98541 655.49774,920.25063 561,931.54208 l -13.5,1.61311 -29,0.3472 -29,0.34721 z m 165.21844,-221.44037 -2.10824,-1.47667 -0.65897,-2.62555 -0.65897,-2.62554 3.57402,-7.03513 c 1.96572,-3.86933 3.29843,-7.31083 2.96159,-7.64779 -0.33685,-0.33696 -80.11254,-0.73011 -177.27932,-0.87368 L 292.5,688.97794 290.25,686.43321 288,683.88847 V 507.94424 332 h -0.76787 c -0.42232,0 -2.33482,1.04488 -4.25,2.32195 -1.91517,1.27707 -7.58553,4.65207 -12.6008,7.5 L 261.26265,347 h -2.17678 -2.17678 L 254.45455,344.54545 252,342.09091 v -2.17756 -2.17755 l 12.63675,-27.1179 c 6.95022,-14.91485 16.79411,-35.73327 21.87533,-46.26316 l 9.23857,-19.14525 2.53,-1.65772 2.53,-1.65772 3.34468,1.41531 3.34467,1.41531 21.29819,45.0472 21.29819,45.0472 0.57073,3.517 0.57073,3.517 -2.57346,2.57346 L 346.09091,347 h -2.63912 -2.63912 l -13.40993,-7.5 C 320.02729,335.375 313.76943,332 313.49641,332 313.22338,332 313,403.66808 313,491.26239 v 159.26239 l 85.44935,-85.44935 85.44935,-85.44935 -1.04538,-4.87444 -1.04539,-4.87445 1.06543,-6.04851 1.06542,-6.0485 2.511,-4.28469 c 2.88601,-4.92462 7.04861,-8.68793 12.93375,-11.69312 l 4.11647,-2.10204 6.61623,-0.47496 6.61624,-0.47496 5.104,1.69528 5.10401,1.69527 4.97967,4.47716 4.97968,4.47716 2.55009,5.39043 2.55008,5.39044 v 6.38379 6.38378 l -1.5751,4.62267 -1.5751,4.62267 -4.05155,4.6028 -4.05155,4.60281 -5.12335,2.65523 -5.12335,2.65523 -7.5,0.0474 c -4.125,0.0261 -8.87896,-0.26211 -10.56435,-0.64044 l -3.06434,-0.68787 -84.43344,84.43787 L 330.50444,666 h 158.22253 158.22254 l -3.47476,-7.62484 c -4.0732,-8.93805 -4.11245,-9.29474 -1.40217,-12.7403 L 644.14516,643 h 2.59853 2.59853 l 19.57889,9.12758 c 10.76839,5.02017 24.59656,11.49258 30.72926,14.38313 l 11.15037,5.25554 1.79326,2.73686 1.79326,2.73686 -1.94363,3.55501 -1.94363,3.55501 -20,9.39152 c -45.08339,21.17009 -43.29075,20.49421 -47.16323,17.78182 z M 535.03769,410.75 l 0.0377,-8.25 17.2804,-21 17.28039,-21 -16.31809,-0.27418 L 537,359.95164 V 350.47582 341 h 32 32 v 7.86804 7.86804 L 583.06264,378.11804 565.12527,399.5 583.56264,399.77207 602,400.04413 V 409.52207 419 H 568.5 535 Z"
       id="path1" />
  </g>
</svg>
