<?xml version="1.0" encoding="UTF-8" standalone="no"?>
<!-- Created with Inkscape (http://www.inkscape.org/) -->

<svg
   version="1.1"
   id="svg1"
   width="745.63153"
   height="737.72046"
   viewBox="0 0 745.63153 737.72046"
   xmlns="http://www.w3.org/2000/svg"
   xmlns:svg="http://www.w3.org/2000/svg">
  <defs
     id="defs1" />
  <g
     id="g1"
     transform="translate(-143.69679,-113.74992)">
    <path
       style="fill:#000000"
       d="m 462.03402,849.24845 c -5.49529,-2.77215 -6.50824,-5.76022 -14.4969,-42.76389 -4.15401,-19.24151 -7.89384,-36.51823 -8.31073,-38.39272 -0.75461,-3.393 -0.82682,-3.43092 -16.24218,-8.5293 -17.79718,-5.88612 -30.29648,-11.24773 -44.43876,-19.06211 C 373.07044,737.47519 368.32004,735 367.989,735 c -0.33105,0 -14.9765,10.79462 -32.54545,23.98805 -35.07148,26.33697 -36.36715,27.07665 -42.99503,24.54544 -4.07775,-1.55731 -39.18948,-36.40905 -71.2124,-70.68509 -12.75091,-13.64807 -14.84577,-8.78183 33.30105,-77.3561 l 4.21808,-6.00771 -5.38444,-9.90164 c -8.27877,-15.2241 -14.11786,-28.58158 -19.41376,-44.41077 -5.92178,-17.69995 -2.1382,-15.20177 -30.45705,-20.10979 -68.20592,-11.82095 -59.63974,-1.20718 -59.27503,-73.44371 0.30489,-60.387 0.029,-57.94436 6.92674,-61.33303 2.0969,-1.03016 60.54133,-11.35482 73.68326,-13.01672 2.38423,-0.3015 4.48149,-1.04786 4.66058,-1.65856 6.37907,-21.75265 14.64456,-41.9338 24.00564,-58.61248 l 5.54647,-9.8822 -11.85258,-17.30785 c -32.89792,-48.03949 -35.137,-51.8491 -33.7666,-57.45142 1.10691,-4.52517 77.90316,-81.06147 82.82447,-82.54411 4.89899,-1.47592 37.7793,20.96544 70.01859,47.78887 2.75954,2.29596 2.78553,2.29778 6,0.41923 10.93956,-6.39309 59.16434,-24.97504 64.90756,-25.01015 1.23736,-0.008 1.99143,-1.52298 2.86628,-5.76026 16.51525,-79.99029 16.31102,-79.24749 22.50028,-81.83353 6.04889,-2.52738 103.91233,-2.04435 108.14052,0.53376 4.98196,3.03772 6.50507,8.787 20.99491,79.24935 1.51136,7.34958 1.72506,7.72924 4.70112,8.35182 10.84527,2.2688 43.09295,14.06487 60.74635,22.22076 l 8.60159,3.97395 9.88493,-7.54122 c 15.90186,-12.13155 25.99164,-19.91999 40.5131,-31.27264 14.386,-11.24673 17.01429,-12.57444 21.55242,-10.88743 3.18893,1.18547 78.66889,75.98496 80.88471,80.15552 3.48626,6.56175 0.28755,12.15913 -43.03936,75.3138 -0.71061,1.0358 1.09499,5.41808 6.67594,16.20283 8.43843,16.30661 13.97234,29.59532 18.65154,44.78842 l 3.08149,10.00539 38.2479,6.27071 c 52.77198,8.65192 46.81054,-0.29128 46.80685,70.21851 -0.004,70.67974 9.02238,60.64387 -65.87088,73.24025 L 803.73758,559.5 801.07781,569 c -5.00473,17.8756 -15.25284,41.53786 -23.7431,54.8214 l -3.40121,5.32139 9.88258,14.17861 c 38.67862,55.49247 38.55476,55.26986 34.76378,62.47826 -2.87156,5.46019 -75.79698,76.84533 -79.83332,78.14715 -7.19089,2.31923 -4.46448,3.9905 -50.77442,-31.12437 l -24.52788,-18.59846 -8.47212,4.6461 c -15.1172,8.29026 -30.14944,14.89051 -46.08879,20.23637 l -15.61667,5.23764 -1.59836,7.57795 c -19.10843,90.59435 -8.0852,79.07485 -75.6683,79.07485 -46.08993,0 -50.80268,-0.15269 -53.96598,-1.74844 z M 564.19291,815 c 12.90126,-60.49054 13.49771,-62.69369 17.56166,-64.86865 0.96502,-0.51646 7.82896,-2.96846 15.25322,-5.44887 17.64868,-5.89638 32.23378,-12.13881 49.67917,-21.26272 15.13606,-7.91614 17.91693,-8.56834 23.08881,-5.41505 3.24605,1.97911 42.79158,31.15887 57.22423,42.22447 l 7.5,5.75029 33.25,-33.23414 C 786.0375,714.46656 801,699.24568 801,698.92115 c 0,-0.32452 -5.02618,-7.75204 -11.16929,-16.50559 -38.7837,-55.26441 -37.03776,-50.89868 -27.20427,-68.02462 10.6402,-18.5309 17.74589,-36.15515 24.77006,-61.43724 2.70281,-9.72823 1.35743,-9.23088 44.73166,-16.53615 21.10451,-3.55451 38.93434,-6.66345 39.62184,-6.90876 1.40804,-0.50241 1.8637,-89.99566 0.46938,-92.18807 -0.70587,-1.10989 -7.61569,-2.43447 -56.60381,-10.85069 -25.69853,-4.41504 -25.51874,-4.29356 -30.05617,-20.30837 -4.77781,-16.86322 -14.67729,-39.27767 -25.45962,-57.64579 -7.12516,-12.13798 -4.11063,-18.3841 36.08567,-74.76949 2.648,-3.71449 4.81455,-7.092 4.81455,-7.50559 0,-0.41359 -15.05578,-15.80273 -33.45728,-34.19808 l -33.45728,-33.4461 -3.79272,3.03772 c -62.81673,50.31203 -61.38203,49.5175 -76.34562,42.28005 C 636.421,235.43752 612.96029,226.48754 595,221.42678 576.33545,216.16757 579.18959,222.37771 565.38991,157 c -1.45115,-6.875 -3.18062,-14.975 -3.84326,-18 l -1.2048,-5.5 h -44.35181 -44.3518 l -1.29678,6 c -0.71323,3.3 -4.44063,21.03346 -8.28311,39.4077 -8.27705,39.57973 -7.14622,37.43034 -21.8857,41.59857 -20.0779,5.67791 -35.97545,11.80842 -59.37451,22.89638 -13.38482,6.34257 -14.9534,6.151 -27.23323,-3.3261 C 350.22921,237.50219 340.975,230.4009 333,224.2959 c -7.975,-6.10499 -18.55,-14.28704 -23.5,-18.18234 -4.95,-3.89529 -9.37273,-7.08937 -9.8283,-7.09795 -0.45556,-0.009 -15.83559,15.14595 -34.17784,33.67673 l -33.34956,33.69235 17.64359,26.05765 C 279.05894,335.6725 277,332.30032 277,337.01103 c 0,3.07614 -0.96391,5.81412 -3.5396,10.05416 -9.14898,15.06084 -19.74357,39.80907 -26.93583,62.92023 -3.02201,9.71071 -4.42429,11.64122 -9.43627,12.9908 -3.18997,0.85897 -73.45824,12.99995 -75.3383,13.01699 -0.4125,0.004 -0.75,21.1364 -0.75,46.96148 v 46.95468 l 3.25,0.55971 c 1.7875,0.30784 18.55,3.04178 37.25,6.07542 43.88263,7.11894 40.65435,5.61141 45.08755,21.05477 6.27584,21.86233 13.02514,37.9256 23.90796,56.90073 9.5782,16.70039 10.08163,15.4965 -30.45474,72.8282 l -8.36312,11.82821 17.39983,17.67179 c 38.98395,39.59328 47.98879,48.359 49.17864,47.87277 0.68413,-0.27957 14.98514,-10.78915 31.78001,-23.35464 40.17137,-30.05517 34.3852,-28.23012 55.19818,-17.41038 17.57379,9.13583 31.83139,15.11674 50.26569,21.08592 19.67871,6.37214 17.32355,2.20701 27.45405,48.55283 4.43922,20.30891 8.27828,37.49249 8.53125,38.18572 0.36248,0.99338 9.83668,1.20525 44.71759,1 L 560.46056,832.5 Z M 495.5,681.94568 C 317.65481,663.51306 254.71334,438.16406 397.3604,330.57699 513.84741,242.72033 685.92574,309.08183 712.21571,452 735.73246,579.84238 626.68902,695.54266 495.5,681.94568 Z m 44.79954,-18.44035 C 762.19276,634.41767 738.41877,308.31957 514.5,309.62362 c -223.84793,1.30364 -239.50641,328.02859 -17,354.71688 8.10765,0.97247 32.66579,0.49325 42.79954,-0.83517 z"
       id="path1" />
  </g>
</svg>
