<?xml version="1.0" encoding="UTF-8" standalone="no"?>
<!-- Created with Inkscape (http://www.inkscape.org/) -->

<svg
   version="1.1"
   id="svg1"
   width="931.75665"
   height="930"
   viewBox="0 0 931.75665 930"
   xmlns="http://www.w3.org/2000/svg"
   xmlns:svg="http://www.w3.org/2000/svg">
  <defs
     id="defs1" />
  <g
     id="g1"
     transform="translate(-46.041042,-46.631096)">
    <path
       style="fill:#000000"
       d="m 487.5,975.87415 c -40.30472,-2.23687 -78.98006,-9.20756 -114,-20.54692 C 239.72094,912.00995 136.69173,817.21759 80.728005,685.96141 42.41126,596.09411 35.593772,492.0534 61.498326,392.5 70.10578,359.42082 81.48134,329.21226 96.519094,299.5 120.2543,252.60292 147.07362,215.75191 183.13032,180.4921 203.09375,160.96988 217.63817,148.67748 238,134.11832 299.87086,89.879255 370.1067,61.771384 445.5,51.078328 c 27.60318,-3.914968 36.73448,-4.520191 67,-4.440764 80.56745,0.211438 146.17806,15.777999 214,50.772952 48.88629,25.224484 84.81328,51.694044 122.66891,90.377514 31.76927,32.46403 55.22051,66.03312 77.70398,111.22878 27.40117,55.08108 43.58165,110.41046 49.12487,167.98319 1.81464,18.84709 2.39464,58.87269 1.10131,76 -4.96558,65.75784 -23.09478,128.68225 -52.86832,183.5 -27.86546,51.30468 -59.61922,91.69725 -103.15001,131.21263 -53.38966,48.46482 -123.28169,86.16888 -193.17191,104.20878 -47.28135,12.20416 -91.94469,16.64245 -140.40883,13.95274 z m 75,-33.82554 c 39.4905,-4.65447 76.69445,-13.88696 110,-27.2975 C 762.2877,878.59794 835.20605,817.16228 884.66076,736 c 37.37735,-61.34161 57.88939,-124.23132 63.4379,-194.5 1.30479,-16.52434 0.69938,-57.25876 -1.0998,-74 C 937.99588,383.72815 900.39604,294.25132 847.61713,231 786.5438,157.80849 696.08975,104.46516 601,85.562864 565.92467,78.590459 542.03625,76.562257 503.55167,77.289194 473.16874,77.863098 458.92542,79.157522 434,83.610005 372.60885,94.576443 306.51128,122.19739 255,158.41079 228.26617,177.20518 196.47682,206.47922 175.07533,232.0115 122.54174,294.68481 87.608315,376.43543 77.438333,460.5 c -2.13238,17.62615 -2.983138,62.20576 -1.536264,80.5 4.59386,58.08464 19.013877,109.90859 45.049731,161.90374 17.2093,34.368 36.32353,62.8664 62.8934,93.77102 45.76785,53.23466 107.58252,95.99183 175.1548,121.15445 37.0359,13.79147 76.12647,22.36772 119,26.10795 17.8544,1.55759 64.01449,0.52593 84.5,-1.88855 z M 313.44866,801.44854 C 306.71415,798.12488 307,801.43575 307,726.75542 c 0,-37.0898 -0.29567,-74.93287 -0.65704,-84.09571 L 305.68592,626 h -10.85765 -10.85764 l -3.73532,-3.4206 -3.73531,-3.42059 -0.3212,-13.32941 c -0.30394,-12.61352 -0.19491,-13.51659 2.03002,-16.81483 1.29317,-1.91699 3.4627,-4.04785 4.8212,-4.73526 1.86923,-0.94584 13.79403,-1.25341 49.02885,-1.26457 35.73061,-0.0113 46.92149,-0.30545 48.11803,-1.26474 0.85754,-0.6875 14.52064,-18.575 30.36243,-39.75 45.1403,-60.33694 44.00401,-59 50.14519,-59 4.09476,0 8.86745,2.29433 10.28584,4.94461 0.5663,1.05815 1.02964,3.69575 1.02964,5.86134 0,4.5725 -3.23552,9.7616 -21.32071,34.19405 l -11.47329,15.5 39.647,0.30632 c 26.81185,0.20716 41.42755,-0.0608 45.147,-0.82772 3.025,-0.62373 9.325,-2.96594 14,-5.20491 8.11016,-3.88417 9.53192,-5.1134 31,-26.80227 24.079,-24.32664 27.11586,-26.60742 39.23084,-29.46378 16.61874,-3.9182 33.59593,0.15533 45.50328,10.91813 8.54142,7.72042 11.1014,14.33818 18.79018,48.57423 11.31238,50.37097 19.43772,85.29535 19.9677,85.82534 0.2794,0.27939 0.69346,0.32049 0.92013,0.0913 1.46018,-1.47627 17.6603,-90.55935 21.41291,-117.74782 1.06132,-7.68945 2.55748,-10.28106 7.37294,-12.77123 3.34565,-1.7301 13.44588,-1.80135 16.772,-0.11831 3.61061,1.82699 7.03002,7.44737 7.03002,11.55504 0,2.95576 -23.18701,142.90006 -28.66823,173.02602 -1.96762,10.81443 -2.3581,7.77017 9.25309,72.13963 3.52199,19.525 6.40621,36.53485 6.40938,37.79966 0.0164,6.53585 -6.47641,12.19286 -13.99424,12.19286 -5.8225,0 -10.1096,-2.65576 -12.26035,-7.59501 -0.93342,-2.14363 -5.33587,-22.57251 -9.78322,-45.39751 -4.44735,-22.825 -8.33205,-42.51786 -8.63266,-43.76192 l -0.54657,-2.26191 -37.60838,0.26191 -37.60837,0.26192 -7.29738,43.82317 c -4.01355,24.10274 -7.93758,45.35539 -8.72005,47.2281 -1.98241,4.7446 -6.80104,7.44037 -13.30771,7.44499 -4.55947,0.003 -5.74474,-0.4362 -8.84853,-3.28061 -5.11828,-4.69055 -5.20565,-8.04492 -0.91725,-35.21565 7.36622,-46.67135 9.24442,-65.33974 6.16609,-61.28784 -1.31217,1.72718 -4.58993,12.37262 -18.03559,58.57576 -4.70755,16.17649 -8.39334,26.9531 -10.22956,29.90946 -3.80804,6.13104 -8.95182,8.80262 -16.94831,8.80262 -7.47292,0 -11.71102,-2.78361 -15.35893,-10.08784 -4.32303,-8.65603 -4.01097,-11.25894 12.45784,-103.91216 2.44402,-13.75 4.88345,-26.50872 5.42095,-28.35271 1.42533,-4.88981 5.59293,-9.86939 10.2474,-12.24392 8.96253,-4.57235 12.52278,-5.15296 34.56058,-5.63627 11.6875,-0.25632 21.25,-0.65234 21.25,-0.88005 0,-0.22771 -3.56852,-13.57045 -7.93005,-29.65053 -4.36153,-16.08009 -8.6714,-32.16152 -9.57749,-35.73652 -1.97635,-7.79772 -2.83623,-8.90386 -5.23441,-6.73353 -3.00056,2.71547 -14.53662,7.67678 -21.84561,9.39515 -5.82126,1.36859 -15.89588,1.69494 -63.82072,2.0674 -62.77148,0.48784 -63.48687,0.4323 -68.53848,-5.32117 l -2.91888,-3.32441 -4.6181,6.20828 -4.61811,6.20828 13.80093,0.62799 c 7.5905,0.34539 32.70092,0.68457 55.80092,0.75374 39.74665,0.119 42.17144,0.23028 45.19553,2.07418 4.50696,2.74807 5.54961,7.16576 5.1435,21.79294 -0.32771,11.80355 -0.4315,12.30365 -3.10913,14.98117 -2.6972,2.69708 -3.13145,2.78314 -16.5,3.26998 l -13.7299,0.5 0.36963,81.5 c 0.26126,57.60657 0.0447,82.69178 -0.73877,85.56513 -1.7743,6.50744 -5.00846,8.80607 -13.0276,9.25919 -8.01259,0.45275 -12.15575,-1.2224 -15.14374,-6.12287 -1.89495,-3.10782 -1.95215,-5.65088 -1.95578,-86.95145 L 470,626 H 403.5 337 l -0.022,82.75 c -0.0212,79.82364 -0.0908,82.90163 -1.96796,87.03764 -1.40025,3.08519 -2.92754,4.69775 -5.44592,5.75 -4.49751,1.87918 -12.21376,1.83652 -16.1155,-0.0891 z M 575.41389,470.82722 c -14.51697,-1.51859 -27.63968,-8.16441 -38.36557,-19.42974 -12.35814,-12.97968 -17.74468,-27.9921 -16.77864,-46.76248 0.90882,-17.65858 7.24339,-31.36768 19.91515,-43.09978 29.32374,-27.14929 73.21997,-21.62592 95.74178,12.04699 7.32843,10.9569 10.40202,21.11087 10.41822,34.41779 0.0227,18.65286 -5.39736,31.95594 -18.36924,45.08568 -13.59077,13.75617 -31.82468,19.91079 -52.5617,17.74154 z M 219.49955,412.61406 c -3.95978,-1.72575 -14.30496,-12.97652 -16.62168,-18.0767 -2.43506,-5.3607 -2.34141,-8.54156 0.37213,-12.63948 1.43113,-2.16125 55.74947,-43.53032 149.25,-113.66941 80.85,-60.64934 148.98965,-111.61184 151.42144,-113.25 5.86756,-3.95263 11.26631,-4.0263 16.74394,-0.22847 2.18148,1.5125 24.73851,18.3875 50.12673,37.5 25.38822,19.1125 46.39608,34.75 46.68414,34.75 0.28806,0 0.52375,-7.21412 0.52375,-16.03138 0,-11.95007 -0.31823,-16.13086 -1.25,-16.42209 -0.6875,-0.21489 -2.93573,-0.67082 -4.99606,-1.01319 -2.06033,-0.34237 -4.98533,-1.68847 -6.5,-2.99133 -2.75347,-2.36844 -2.75394,-2.37116 -2.75394,-15.9327 0,-13.48914 0.0153,-13.57913 2.77173,-16.33658 l 2.77173,-2.77273 37.92418,-0.28424 37.92417,-0.28423 3.3041,2.95129 3.30409,2.95129 v 13.47602 c 0,15.23433 -0.6073,16.74291 -7.58117,18.83233 -2.41581,0.7238 -3.95818,1.88012 -4.32354,3.24137 -0.75956,2.82997 -0.73185,72.50481 0.03,75.34694 0.55956,2.08758 27.94595,23.02293 113.87474,87.05083 14.3,10.65532 27.0125,20.78826 28.25,22.51764 3.2016,4.47416 3.05985,11.20707 -0.34341,16.31121 -4.18558,6.27744 -12.55217,14.28249 -16.17835,15.47924 -1.84723,0.60964 -4.90151,0.81898 -6.78729,0.46521 C 793.69105,412.85141 796.65305,415.01481 661,313.90062 513.25537,203.7735 514.94001,205 511.42054,205 c -2.56665,0 -9.39794,4.72952 -37.03386,25.63973 C 444.4651,253.27934 402.9899,284.38003 270,383.90161 c -19.525,14.61132 -37.05765,27.36082 -38.96144,28.33222 -4.06706,2.07518 -7.39805,2.18494 -11.53901,0.38023 z"
       id="path1" />
  </g>
</svg>
