<?xml version="1.0" encoding="UTF-8" standalone="no"?>
<!-- Created with Inkscape (http://www.inkscape.org/) -->

<svg
   version="1.1"
   id="svg1"
   width="840.4176"
   height="834.08984"
   viewBox="0 0 840.4176 834.08984"
   xmlns="http://www.w3.org/2000/svg"
   xmlns:svg="http://www.w3.org/2000/svg">
  <defs
     id="defs1" />
  <g
     id="g1"
     transform="translate(-92.709724,-88.750534)">
    <path
       style="fill:#000000"
       d="M 475.5,921.92976 C 358.39406,910.08055 261.76453,859.01319 187.7396,769.85239 132.78209,703.65772 100.67758,622.93744 93.954135,534.04784 l -1.244411,-16.45217 0.602514,-22.04783 0.602514,-22.04784 1.605589,-14 C 108.8896,342.92611 167.20401,242.0694 263,169.83831 c 9.075,-6.84263 22.125,-15.93986 29,-20.21606 l 12.5,-7.77491 20,-9.83991 C 368.26245,110.47649 408.3215,98.452515 458,91.936559 l 16.5,-2.164181 29.177,-0.510923 29.17699,-0.510923 14.82301,1.177598 c 37.64516,2.99068 69.14788,9.305849 102.823,20.61234 100.77439,33.8352 188.68461,109.93593 235.84774,204.16493 29.11469,58.16932 43.07295,112.81051 46.18456,180.7946 l 0.595,13 -1.08224,19.5 C 927.89912,602.70181 906.9899,668.33849 867.71211,729.94921 816.57409,810.16377 734.26442,873.77136 643.3625,903.323 616.69352,911.99291 598.6724,916.05766 569,920.09583 l -15.5,2.10941 -34.5,0.31759 -34.5,0.31758 z m 71,-33.9301 c 39.50974,-3.58701 82.17805,-14.1516 117.182,-29.01403 14.76033,-6.26713 43.53131,-21.12555 44.07716,-22.76311 L 708.16667,835 H 574.48446 440.80226 l -3.45758,-1.64073 -3.45757,-1.64072 -2.61152,-3.42388 -2.61152,-3.42387 -8.17152,-27.36595 -8.17152,-27.36594 -1.73829,-2.65298 -1.7383,-2.65298 -3.3901,-1.41648 -3.3901,-1.41647 -6.28212,0.0107 c -3.45517,0.006 -12.50762,0.67137 -20.11656,1.47885 -7.60894,0.80749 -19.75894,1.75277 -27,2.10062 l -13.16556,0.63247 -10,-1.13685 c -5.5,-0.62527 -13.49867,-2.07767 -17.77482,-3.22757 l -7.77482,-2.09073 -5.842,-3.77586 -5.842,-3.77587 -2.60318,-3.41294 c -1.43174,-1.87712 -3.57842,-5.61764 -4.77038,-8.31227 l -2.1672,-4.89932 -0.47049,-8.54562 -0.47049,-8.54562 2.19077,-11.95958 2.19078,-11.95958 -0.54502,-2.72511 c -0.29977,-1.49881 -2.52856,-5.62236 -4.95289,-9.16345 l -4.40786,-6.43834 -1.25042,-5.21234 -1.25042,-5.21233 0.51396,-3.83181 0.51395,-3.83182 3.10626,-6.11273 c 1.70845,-3.362 3.10627,-6.3224 3.10627,-6.57867 0,-0.25627 -2.91395,-3.64122 -6.47545,-7.52211 l -6.47544,-7.05618 -1.13355,-3.78344 -1.13355,-3.78345 4.609,-14.1024 L 271,595.12426 v -3.9907 -3.9907 l -1.50592,-1.50592 c -1.93234,-1.93234 -3.05596,-2.2476 -14.49408,-4.0667 -5.225,-0.83098 -11.84264,-2.21076 -14.70587,-3.06619 l -5.20587,-1.55532 -4.28272,-3.26654 c -7.35586,-5.6105 -11.83288,-14.77151 -11.78445,-24.11369 l 0.0211,-4.0685 2.31083,-6.54546 2.31083,-6.54546 7.35269,-11.45454 c 4.04397,-6.3 11.17057,-17.30454 15.83688,-24.45454 4.6663,-7.15 12.92424,-20.2 18.35096,-29 l 9.86677,-16 1.99836,-6.4652 1.99837,-6.46519 -1.17491,-14.53481 -1.17491,-14.5348 0.61702,-13 c 1.3862,-29.20613 8.11471,-54.45128 22.12171,-83 l 7.35952,-15 6.98944,-10.5 C 351.57061,231.26711 408.0443,198.1049 483.5,188.35297 l 14,-1.80936 h 31 31 l 14,1.80439 c 81.48795,10.50259 142.89092,46.60311 183.95454,108.152 l 6.6717,10 7.75083,15.53471 7.75084,15.53472 4.62613,13.96528 c 6.78732,20.48942 9.78827,34.42814 11.8338,54.96529 l 1.19522,12 -0.60464,17 -0.60465,17 -2.03507,13 c -6.5259,41.6872 -20.83906,77.34957 -48.65204,121.22032 -4.80479,7.57882 -12.44531,19.75733 -16.97893,27.06335 l -8.24295,13.28367 -3.0901,8.53992 c -1.69956,4.69696 -3.76164,12.39075 -4.58239,17.09732 L 711,661.26198 v 15.12514 15.12514 l 1.51959,12.99387 c 3.07637,26.30584 17.44737,115.56517 18.86792,117.19004 0.31886,0.36473 22.09027,-16.14459 31.13263,-23.60796 12.65791,-10.44757 36.43751,-34.5348 47.29886,-47.91076 51.74795,-63.72856 80.5948,-134.81698 87.27101,-215.06538 L 898.287,520.72414 897.68769,497.11207 897.08838,473.5 895.07237,458.42916 C 883.71645,373.53676 848.77546,299.52761 792.50497,241.17925 726.23643,172.46364 641.71918,132.19764 546.5,123.97671 l -12,-1.03604 -22.5,-0.008 -22.5,-0.008 -12,1.05972 C 359.66772,134.39116 255.92125,196.49843 189.32465,296.5 156.35314,346.01009 137.05856,400.19365 129.32239,465 l -1.73092,14.5 v 26.5 26.5 l 1.76619,14.5 c 9.33283,76.62018 34.85649,138.06547 82.10877,197.66742 l 10.96643,13.83258 17.03357,17.09304 17.03357,17.09304 12.78137,10.22208 c 57.8146,46.23805 125.32206,74.8248 197.21863,83.51431 17.77849,2.14873 18.83935,2.20473 45.5,2.40199 l 23.5,0.17387 z M 706.61608,811.25 C 703.53139,795.62274 694.53019,737.33508 691.44361,713 l -1.58546,-12.5 -0.568,-20.07925 -0.568,-20.07926 1.73093,-10.35174 1.73094,-10.35175 2.99258,-8.569 c 3.8588,-11.04931 7.99041,-18.69469 22.55639,-41.73964 33.29239,-52.67217 46.737,-83.07537 53.21089,-120.32936 5.45738,-31.40452 5.31365,-53.77345 -0.5333,-83 l -2.5007,-12.5 -4.40667,-13.22392 C 741.48778,294.2104 689.37385,243.41187 621.21612,221.58045 600.11257,214.82083 578.19293,210.83401 551.5,208.90024 l -16,-1.15911 -17.5,0.59099 -17.5,0.59099 -12,1.59863 c -6.6,0.87925 -18.28824,2.92783 -25.97386,4.5524 l -13.97387,2.95377 -12.02613,4.07106 c -31.80298,10.76588 -61.3582,29.13067 -81.62025,50.71658 -28.86405,30.74994 -46.85698,66.34542 -53.42176,105.68445 l -1.66876,10 -0.14135,16 c -0.0777,8.8 0.0284,21.625 0.23578,28.5 l 0.37714,12.5 -2.15097,5.92836 c -3.68876,10.16668 -20.76566,38.62474 -44.16383,73.59746 -4.24119,6.3392 -8.89495,13.86174 -10.34169,16.71675 L 241,546.93351 v 2.89839 2.89838 l 2.01564,2.56247 2.01563,2.56247 3.23437,1.00125 c 1.7789,0.55069 6.60936,1.50436 10.73436,2.11926 4.125,0.61491 10.64169,2.08685 14.48154,3.27099 l 6.98153,2.15298 4.19268,4.31395 4.19269,4.31395 1.70797,5.14225 1.70798,5.14224 -0.56743,7.59396 -0.56744,7.59395 -3.06476,9.29606 C 286.37914,614.90889 285,620.09798 285,621.32736 v 2.23525 l 6.10996,5.96869 6.10997,5.9687 1.39003,3.21788 c 0.76452,1.76984 1.38264,4.91984 1.37359,7 l -0.0164,3.78212 -2.46699,4 c -1.35684,2.2 -3.40089,5.9247 -4.54233,8.27711 l -2.07535,4.2771 0.56444,1.7784 c 0.31045,0.97813 2.5605,4.81746 5.00013,8.53186 l 4.43569,6.75345 1.14335,5.50751 1.14335,5.5075 -0.67064,5.18354 c -0.36885,2.85094 -1.34109,9.17997 -2.16052,14.0645 l -1.48988,8.88098 0.70339,5.11423 0.70339,5.11424 3.64999,3.64999 3.64999,3.64999 5.47244,1.73506 5.47245,1.73505 16.52235,0.47992 16.52235,0.47992 16.04391,-1.64748 c 27.26302,-2.7995 39.72451,-2.27022 49.07275,2.08429 l 5.16137,2.40422 3.70347,4.0993 c 5.30359,5.87045 7.54054,11.46449 14.93125,37.33932 3.61325,12.65 6.77436,23.5625 7.02467,24.25 l 0.45511,1.25 H 577.54807 707.15891 Z M 512,634.83105 l -6.5,-2.05663 -5.23398,-3.47381 C 492.54961,624.17919 486,615.36207 486,610.0956 v -1.98407 l 2.41245,-2.80577 2.41245,-2.80576 31.57246,-0.30408 31.57246,-0.30408 3.52592,1.67316 3.52593,1.67317 0.59922,2.38749 c 0.32958,1.31312 0.30516,3.95498 -0.0543,5.87081 l -0.65348,3.48332 -5.41457,5.84839 -5.41458,5.84839 -5.79201,3.05301 c -6.49335,3.4227 -14.07895,5.29804 -21.09122,5.21425 L 518.5,636.88767 Z M 475.92308,588.07692 473,585.15385 v -3.5002 -3.5002 l 2.58889,-3.07672 2.5889,-3.07673 h 46.95656 46.95656 l 2.41388,2.41388 c 1.32763,1.32763 2.70815,3.58637 3.06782,5.01941 l 0.65395,2.60553 -1.2511,3.02042 c -0.6881,1.66123 -2.1892,3.67749 -3.33578,4.48059 L 571.55499,591 h -46.35442 -46.35442 z m 3.11102,-30.29709 c -1.84261,-1.2539 -4.28209,-3.53761 -5.42106,-5.07491 l -2.07085,-2.79508 -0.69648,-14.70492 -0.69648,-14.70492 -2.05261,-7 c -2.79909,-9.54575 -9.51524,-22.76139 -18.49365,-36.39071 C 436.6415,457.43367 432.27166,446.38968 429.97375,427.5 l -1.09484,-9 0.66482,-7.5 c 1.50247,-16.94981 5.26941,-28.74168 13.66054,-42.76232 l 4.94486,-8.26233 8.10191,-8.55911 8.10191,-8.5591 8.80593,-5.80128 8.80594,-5.80128 10.79642,-3.58645 10.79642,-3.58646 11.67879,-1.14037 11.67879,-1.14037 8.79238,1.14475 c 12.19005,1.58713 19.29324,3.62298 29.97059,8.58991 11.58968,5.39132 16.78898,8.97903 26.60965,18.36164 l 7.85019,7.50003 5.7561,8.60546 5.7561,8.60547 3.17097,7.617 c 1.74403,4.18935 3.94109,10.69001 4.88236,14.4459 l 1.7114,6.82891 -0.0533,14.5 -0.0533,14.5 -2.16435,8 c -2.85905,10.56778 -8.28928,21.72703 -17.06962,35.07847 C 598.12412,481.58531 592.67235,491 589.95937,496.5 l -4.93268,10 -2.01569,8 -2.01568,8 -0.80986,13.75997 -0.80985,13.75997 -1.99959,2.67824 c -1.09978,1.47303 -3.24179,3.60605 -4.76003,4.74003 l -2.76044,2.06179 -43.73562,0.27983 -43.73562,0.27984 z M 561,531.60696 v -9.39303 l 1.61765,-7.85697 c 3.03262,-14.72949 9.24441,-28.09856 22.49261,-48.40883 l 8.83977,-13.55188 2.85923,-6.94812 c 3.42594,-8.32527 4.00268,-10.51366 5.12372,-19.44168 l 0.86139,-6.86012 -0.91577,-8.32316 -0.91577,-8.32317 -2.1192,-6.5 c -8.07855,-24.7785 -28.14904,-44.08241 -53.00499,-50.9805 l -7.33864,-2.03664 -9.52718,-0.62715 -9.52719,-0.62714 -8.47281,1.70743 c -9.73445,1.96167 -17.58843,4.92293 -25.75161,9.70939 L 479.5,356.5 l -8.08577,8 -8.08577,8 -4.10647,7 c -2.25855,3.85 -5.31693,10.6 -6.7964,15 l -2.68994,8 -0.49584,11.52524 -0.49583,11.52525 2.13408,8.43914 c 2.78791,11.02472 6.21807,18.18072 15.53639,32.41211 4.2101,6.42988 9.87109,16.10069 12.57996,21.49069 l 4.92522,9.8 2.64578,8.90378 2.64579,8.90379 0.35376,12.5 c 0.19457,6.875 0.37205,12.6125 0.3944,12.75 0.0224,0.1375 16.01564,0.25 35.54064,0.25 H 561 Z M 364.92308,406.07692 362,403.15385 V 398.5 393.84615 l 2.92308,-2.92307 L 367.84615,388 h 22.11211 22.11211 l 2.45774,1.61038 2.45775,1.61037 1.12225,3.74576 1.12226,3.74576 -1.75003,3.68792 -1.75003,3.68791 -2.8155,1.45595 L 410.09932,409 h -21.12658 -21.12659 z m 272.8427,0.005 L 634.5,403.16406 V 398.5 393.83594 l 3.26578,-2.91797 L 641.03155,388 h 22.04997 22.04996 l 1.92391,1.02964 c 4.23099,2.26436 6.07524,9.39479 3.74992,14.4983 l -1.19468,2.62205 -2.75566,1.42501 -2.75565,1.425 H 662.56544 641.03155 Z M 437.99494,328.34229 c -1.73718,-1.46174 -9.13298,-9.05282 -16.43512,-16.86906 l -13.2766,-14.21135 -0.45516,-2.38101 c -0.25034,-1.30955 -0.0989,-3.75577 0.33648,-5.43604 l 0.79164,-3.05503 2.40398,-2.25843 2.40399,-2.25843 2.87273,-0.0817 c 1.58001,-0.0449 3.82494,0.22054 4.98874,0.58992 l 2.11601,0.67159 9.45028,10.22362 c 5.19765,5.62298 12.23079,13.30648 15.62918,17.07444 L 455,317.20167 v 3.97609 3.97609 l -2.92308,2.92307 L 449.15385,331 h -4.0002 -4.0002 z m 162.2107,0.17729 -2.94781,-2.48042 -0.61805,-3.09025 -0.61805,-3.09025 1.60258,-3.09905 c 0.88142,-1.70448 8.15944,-10.04034 16.17338,-18.52413 l 14.5708,-15.42508 2.4598,-0.93521 2.45979,-0.93522 3.34033,1.10241 3.34032,1.1024 2.01563,2.56247 2.01564,2.56247 v 4.3445 4.3445 l -13.41822,14.36293 c -7.38001,7.89961 -14.83954,15.5589 -16.57672,17.02064 L 610.84655,331 H 607 603.15345 Z m -80.48412,-25.29508 -2.77847,-1.72229 -1.04379,-3.87635 -1.0438,-3.87635 0.32227,-20.45858 0.32227,-20.45859 3.39326,-3.03007 3.39326,-3.03008 4.57374,0.51553 4.57375,0.51552 2.28299,2.65415 2.283,2.65414 v 23.02116 23.02116 l -2.92308,2.92307 L 530.15385,305 526.32692,304.9734 522.5,304.9468 Z"
       id="path1" />
  </g>
</svg>
