<?xml version="1.0" encoding="UTF-8" standalone="no"?>
<!-- Created with Inkscape (http://www.inkscape.org/) -->

<svg
   version="1.1"
   id="svg1"
   width="1024"
   height="1024"
   viewBox="0 0 1024 1024"
   xmlns="http://www.w3.org/2000/svg"
   xmlns:svg="http://www.w3.org/2000/svg">
  <defs
     id="defs1" />
  <g
     id="g1">
    <path
       style="fill:#000000"
       d="m 486,980.48666 c -24.45322,-3.36492 -45.02805,-10.6492 -61.33019,-21.71323 l -5.83019,-3.95686 -2.87801,-4.53816 -2.87802,-4.53816 -0.64084,-4.27349 -0.64085,-4.27348 1.62569,-5.59219 1.62569,-5.59218 3.20774,-3.65341 3.20773,-3.65341 3.23351,-1.35105 C 426.48069,916.60797 429.08339,916 430.48605,916 h 2.55029 l 9.73183,4.88358 c 12.21205,6.12819 24.4468,10.47005 37.54342,13.32337 l 10.18841,2.21972 21.5,0.0367 21.5,0.0367 10.3805,-2.32418 c 13.80695,-3.09137 25.6039,-7.32739 36.98034,-13.27882 L 590.22168,916 h 2.82406 c 6.76235,0 11.96503,3.84101 15.57684,11.5 l 2.35788,5 -0.0122,5.5 -0.0122,5.5 -1.89257,4.16829 -1.89256,4.16829 -5.83548,4.607 -5.83547,4.60701 -10,4.91808 c -16.114,7.925 -32.38682,12.57888 -52.47377,15.00701 L 524.55247,982 510.02623,981.89696 495.5,981.79392 Z M 367.48519,891.89087 c -5.7141,-3.02415 -7.16916,-4.54559 -10.1248,-10.5867 l -2.63143,-5.37845 0.52599,-5.80071 0.52599,-5.80071 1.7265,-3.41215 c 2.39831,-4.73986 5.34958,-7.77707 9.74936,-10.03326 l 3.7568,-1.92647 139.90763,0.016 139.90763,0.016 2.83557,1.06912 c 3.85577,1.45377 9.07253,6.60451 11.59316,11.44645 l 2.08234,4 v 6 6 l -2.07838,4 c -2.62803,5.05783 -6.71781,8.95791 -11.47943,10.94695 L 650.06424,894 H 510.76731 371.47038 Z M 367.5,818.61651 c -1.65,-0.72376 -4.52653,-2.60244 -6.3923,-4.17484 l -3.3923,-2.85893 -1.83574,-4.04137 -1.83574,-4.04137 v -5.5 -5.5 l 1.85194,-4 c 2.26936,-4.90158 6.39185,-8.8875 11.32202,-10.94695 L 370.93576,776 h 142.85281 142.8528 l 5.42313,2.75 5.42312,2.75 3.00619,4.33543 3.00619,4.33544 v 7.73344 7.73343 l -2.75854,4.17259 -2.75854,4.17259 -4.16827,2.75854 L 659.64637,819.5 515.07319,819.71622 370.5,819.93243 Z m -4.45283,-70.91468 -3.45283,-1.10749 -3.57117,-3.57117 -3.57117,-3.57117 -1.25471,-4.18784 -1.25471,-4.18784 -0.91283,-22.37853 -0.91283,-22.37852 -1.62105,-9.34307 C 341.3915,647.5567 332.13042,631.04711 294.03913,583.46237 261.56217,542.89122 251.79939,528.65026 239.15639,503.40493 227.04975,479.23062 219.68391,456.96288 214.96567,430.27374 L 212.88425,418.5 l -0.58489,-21 -0.58489,-21 1.22092,-12 c 8.25944,-81.17937 49.67908,-153.93405 116.92212,-205.37676 40.1862,-30.74351 87.66292,-50.30017 140.48402,-57.86831 L 482.5,99.512883 l 29,0.07408 29,0.07408 13.51255,2.087147 c 65.49001,10.11562 121.57653,37.69468 169.27796,83.23795 47.16152,45.0278 76.98457,102.04672 86.8315,166.01385 l 2.23209,14.5 0.0238,24.5 0.0238,24.5 -1.80328,12 c -5.34746,35.58494 -18.75384,70.22302 -39.23286,101.36597 -9.97536,15.16977 -20.69504,29.32895 -40.98398,54.13403 -34.94716,42.72608 -46.63134,62.64896 -52.19585,89 -2.71983,12.87985 -3.05901,16.1993 -4.18345,40.94121 l -0.97444,21.4412 -2.26394,4.55215 -2.26394,4.55214 -4.33596,3.00665 L 659.82808,748.5 513.16404,748.65466 366.5,748.80932 Z m 83.27582,-48.10113 c 0.29533,-0.76962 1.08106,-15.05712 1.74608,-31.75 l 1.20912,-30.3507 -0.61034,-37 -0.61034,-37 -1.584,-24 c -0.87119,-13.2 -1.89663,-27.55733 -2.27875,-31.90519 l -0.69476,-7.90518 -9,-1.83291 c -37.42751,-7.62234 -66.31014,-28.41608 -80.46283,-57.92834 l -4.04186,-8.42838 -1.49765,-7.83797 c -1.90125,-9.95018 -1.88522,-14.85285 0.08,-24.45419 l 1.57764,-7.70784 2.93799,-6 c 1.6159,-3.3 4.82794,-8.20999 7.13787,-10.9111 l 4.19988,-4.91109 5.99296,-3.87345 5.99297,-3.87344 7.04152,-2.1689 7.04153,-2.16891 9,0.0278 9,0.0278 7.5,2.26871 c 4.125,1.24779 10.875,4.02992 15,6.18252 l 7.5,3.91381 7.29642,6.05501 7.29642,6.055 6.27515,7.93582 6.27516,7.93582 4.61419,8.75233 c 5.45268,10.3428 10.02844,23.51356 12.8301,36.92984 1.11345,5.33199 2.25084,10.06082 2.52752,10.50851 L 486.11803,455 h 25.92193 25.92194 l 0.48263,-2.25 c 0.26546,-1.2375 1.22537,-6.075 2.13314,-10.75 9.28228,-47.8033 40.44144,-80.89306 79.5545,-84.48364 l 7.36783,-0.67637 7.5,1.57261 7.5,1.57262 6.5,3.18227 6.5,3.18227 6.23978,6.22231 6.23978,6.2223 3.42852,7.15413 3.42853,7.15414 1.21176,7.18411 1.21175,7.18411 -0.60384,7.83055 -0.60385,7.83054 -2.91095,8.44524 c -3.48519,10.11122 -7.45885,16.89032 -15.61784,26.64417 l -6.08851,7.27864 -8.09149,6.5 c -14.98484,12.03751 -30.77394,19.52212 -52.53333,24.90273 -5.87933,1.45382 -10.89705,2.85796 -11.15049,3.12029 -0.25345,0.26234 -1.28807,13.30198 -2.29917,28.97698 l -1.83836,28.5 -0.0111,54 c -0.006,29.7 0.37503,61.995 0.84704,71.76666 l 0.85818,17.76667 25.61978,-0.26667 25.61979,-0.26666 1.1436,-11.5 c 5.26175,-52.9121 22.61189,-90.52299 64.35225,-139.5 41.37473,-48.548 61.99802,-91.37972 67.12461,-139.40851 L 762.29418,398.68297 761.6865,382.09149 761.07878,365.5 759.50696,356 C 743.44617,258.92905 657.92717,173.56458 557.67258,154.53033 539.60204,151.09948 530.53739,150.27295 509,150.09232 l -18.5,-0.15516 -11.931,1.56938 C 427.91377,158.16962 381.62861,180.33587 341,217.38918 297.48838,257.0718 270.59863,307.0272 263.53574,361.30122 L 262,373.10243 v 13.70491 13.70492 l 1.48355,12.68247 c 5.54108,47.36923 24.75988,86.77544 66.47746,136.30527 15.55285,18.46535 19.78549,24.01014 29.00744,38 l 7.25108,11 7.33716,15 7.33716,15 3.03722,9.5 c 5.37993,16.82767 8.29858,32.25381 10.64257,56.25 l 0.65935,6.75 h 25.27652 25.27651 z M 530.29691,688.25 C 529.46207,673.7639 529.24144,551.02469 530,523.08138 l 0.5,-18.41861 -19,0.12302 -19,0.12302 0.12384,2.79559 c 0.0681,1.53758 0.69439,16.0706 1.39171,32.2956 l 1.26786,29.5 -0.63551,51.5 c -0.34953,28.325 -0.93008,57.9125 -1.2901,65.75 L 492.70321,701 h 19.16424 19.16424 z m -96.94832,-245.5 c -0.84898,-2.8875 -3.38467,-8.80437 -5.63485,-13.14861 l -4.09124,-7.89861 -5.24216,-5.36935 -5.24217,-5.36935 -4.31908,-1.96008 -4.31909,-1.96008 -3.17742,-0.022 -3.17742,-0.022 -2.07258,2.63486 L 394,412.26972 v 3.54941 3.54942 l 2.11921,4.3777 2.1192,4.37769 5.04196,4.96306 5.04196,4.96305 7.13616,3.52688 c 6.32743,3.12719 14.82597,6.07861 18.23761,6.33365 L 434.8922,448 Z m 162.74934,3.38833 c 2.97607,-1.02392 8.3073,-3.3237 11.84717,-5.11062 l 6.43614,-3.24895 5.60058,-5.63938 5.60057,-5.63938 1.70881,-3.65113 L 629,419.19774 V 415.09887 411 l -2,-2 -2,-2 h -3.68428 -3.68427 l -4.56573,2.19411 -4.56572,2.1941 -5,5.0957 -5,5.0957 -3.29516,6.1849 C 591.87874,434.00748 588,444.17805 588,446.65655 V 448 h 1.34345 c 0.7389,0 3.77841,-0.83775 6.75448,-1.86167 z"
       id="path1" />
  </g>
</svg>
