<?xml version="1.0" encoding="UTF-8" standalone="no"?>
<!-- Created with Inkscape (http://www.inkscape.org/) -->

<svg
   version="1.1"
   id="svg1"
   width="908.61157"
   height="904.30664"
   viewBox="0 0 908.61157 904.30664"
   xmlns="http://www.w3.org/2000/svg"
   xmlns:svg="http://www.w3.org/2000/svg">
  <defs
     id="defs1" />
  <g
     id="g1"
     transform="translate(-58.68116,-60.314968)">
    <path
       style="fill:#000000"
       d="m 478.5,963.98939 c -17.15121,-1.49618 -41.30902,-5.0314 -58.77182,-8.60059 C 330.23732,937.09793 241.97247,886.7323 179.37778,818.2402 111.72409,744.21248 70.014344,651.46547 59.870342,552.5 58.284309,537.02657 58.284895,491.96494 59.871329,476.5 68.03887,396.88089 92.700268,325.16468 132.23293,266.06994 205.12802,157.10391 313.79797,85.90399 437.6366,65.971231 512.75255,53.880752 596.57539,61.389116 665.9806,86.424964 767.32091,122.98045 853.48725,194.82405 906.43614,286.9115 961.09726,381.97684 979.42257,488.49524 959.43937,595 947.93323,656.32438 923.14251,715.15778 886.96523,766.99576 858.24041,808.15521 821.19483,846.50174 783,874.61202 c -68.04604,50.07988 -137.94274,78.08623 -219.5,87.94969 -15.25708,1.84518 -69.72649,2.76006 -85,1.42768 z m 66.55011,-35.02808 C 603.46585,924.45006 652.74137,910.96321 703,885.72997 771.28879,851.44437 825.75837,802.55229 868.35244,737.30908 931.37281,640.778 950.55122,521.39187 921.12552,408.79514 903.11475,339.87733 870.44921,281.07139 819.3087,225.5 766.84608,168.49196 694.32028,126.19714 617,107.51977 564.76521,94.902015 494.6602,92.471687 440,101.38372 372.89055,112.32552 312.44327,138.12026 258.67445,178.76096 207.3353,217.56521 162.37832,271.38881 133.96957,328.0607 94.223315,407.34949 81.591035,510.25118 100.5693,600.13702 c 7.88853,37.36207 17.51746,64.88168 34.41656,98.36298 16.32429,32.34245 33.20273,57.27761 59.22817,87.5 18.27404,21.22098 45.56784,46.94997 65.23293,61.49299 54.14766,40.04408 111.43314,64.73224 176.05304,75.87305 14.25591,2.4578 37.98111,5.21529 51,5.92754 14.5916,0.79829 46.23594,0.61871 58.55011,-0.33227 z M 501.5,866.32105 c -8.42322,-0.72174 -22.98288,-3.48927 -28.86458,-5.48664 -8.57802,-2.91301 -20.61016,-9.26497 -25.53463,-13.48013 C 441.83196,842.84435 440,839.27906 440,833.53497 c 0,-6.19733 4.54811,-11.39642 10.69016,-12.22024 3.58544,-0.48091 5.24217,0.0142 11.49939,3.43678 15.1313,8.27644 31.1015,12.25166 49.19144,12.24447 18.70348,-0.007 33.68221,-3.49204 49.79421,-11.58397 C 566.36602,822.80502 571.33962,821 573.33213,821 c 4.48879,0 9.73349,3.63997 12.04689,8.36087 2.65808,5.42427 0.99682,10.6124 -5.37815,16.79599 -14.28744,13.85855 -48.75756,22.71275 -78.50087,20.16419 z M 415.21818,800.3449 C 410.01266,797.76654 407.5,793.42209 407.5,787 c 0,-4.08803 0.57257,-6.30269 2.23031,-8.62671 C 414.53285,771.6405 408.5948,772 515,772 c 107.19132,0 100.59753,-0.42944 105.56106,6.87505 4.53573,6.67492 2.54967,15.0244 -4.88411,20.533 -2.81363,2.08497 -3.14745,2.09274 -100,2.32716 -88.00158,0.213 -97.48682,0.0817 -100.45877,-1.39031 z m -2.67103,-54.43764 c -6.69012,-5.87401 -7.14184,-15.10518 -1.06373,-21.7379 l 3.36254,-3.66936 98.82702,-0.25449 c 97.22503,-0.25037 98.87985,-0.22215 102.08616,1.74086 9.31543,5.70321 9.49461,18.63001 0.34298,24.7437 L 612.70423,749 h -98.31732 -98.31732 z m 0.72254,-49.38204 c -3.59516,-1.57161 -7.01864,-6.45328 -7.73189,-11.02522 -0.25742,-1.65 -1.14849,-8.625 -1.98016,-15.5 -4.52823,-37.43237 -17.40177,-64.4276 -50.07263,-105 -36.82233,-45.72793 -53.74121,-82.56219 -58.56387,-127.5 -1.44361,-13.45158 -0.65493,-40.42799 1.5495,-53 C 310.82025,302.66324 370.1038,233.74731 446.64978,209.91977 480.619,199.34569 522.46068,197.3297 558,204.55476 c 46.78699,9.51168 92.02888,36.81504 122.48635,73.92017 28.3539,34.54245 45.42231,73.93579 50.48817,116.52507 1.4203,11.94062 1.43402,36.10525 0.0271,47.67872 -2.09117,17.20185 -7.23892,35.83689 -14.72948,53.32128 -5.6102,13.09526 -9.65597,20.51422 -18.81938,34.51018 -6.78035,10.35615 -11.01741,15.88567 -32.9414,42.98982 -27.42315,33.90264 -39.76653,62.68087 -43.53475,101.5 -1.21589,12.52572 -2.88914,17.21002 -7.29963,20.43547 -2.80161,2.04885 -3.56134,2.06619 -100,2.2832 -81.84858,0.18417 -97.68649,-0.004 -100.40726,-1.19345 z M 468.1338,664.5 c 0.36618,-2.2 1.22897,-14.56557 1.91732,-27.47904 1.88368,-35.33809 0.48222,-80.75281 -3.61117,-117.02096 -2.33865,-20.72077 -0.99384,-18.39819 -12.75692,-22.03207 -31.89092,-9.85181 -48.2075,-23.98549 -53.62763,-46.45311 -1.49141,-6.18224 -1.49609,-18.13485 -0.009,-23.77564 2.67271,-10.14011 11.57764,-19.94858 21.50449,-23.68647 8.48043,-3.19324 22.38678,-2.65081 30.73157,1.19872 17.58714,8.11311 30.20658,28.0465 36.85344,58.21285 1.08635,4.93035 2.45536,9.54285 3.04224,10.25 1.5113,1.821 39.14731,1.85418 40.52275,0.0357 0.52001,-0.6875 2.19443,-6.42012 3.72093,-12.73916 7.04614,-29.16789 18.70865,-47.32799 35.57849,-55.40048 6.1092,-2.92336 7.19141,-3.11036 18,-3.11036 10.15323,0 12.04728,0.27977 16.17318,2.38889 6.84417,3.49868 13.66537,10.67273 17.22033,18.11111 2.83489,5.9317 3.10649,7.37431 3.10649,16.5 0,8.47458 -0.42453,11.14406 -2.78302,17.5 -5.58951,15.06322 -14.66667,24.42245 -31.95459,32.94757 -5.35569,2.64103 -14.273,6.06854 -19.81625,7.61668 -6.61279,1.84684 -10.40946,3.43295 -11.04067,4.61238 -1.46152,2.73087 -4.66832,33.69977 -5.98756,57.82337 -1.73508,31.72772 0.27976,105.59767 2.95314,108.27105 0.42983,0.42983 7.90255,0.65718 16.60606,0.50523 l 15.82456,-0.27628 2.77289,-14 c 7.87091,-39.73926 22.43032,-70.38194 48.93893,-103 21.98699,-27.05434 31.5375,-41.03619 39.47216,-57.78686 C 692.71937,469.99791 697.80392,449.36809 698.66758,424 700.01806,384.33281 689.91165,350.20298 666.24283,314.5 659.40511,304.18571 654.71947,298.59064 643.56232,287.41745 627.47674,271.30872 615.94588,262.68033 598.86893,253.97398 578.69964,243.69106 556.20922,237.27454 532.5,235.0389 460.56006,228.25541 396.58089,258.03282 357.47428,316.5 c -21.65733,32.37927 -31.81439,69.3967 -30.18243,110 0.9508,23.65603 6.45028,44.93427 17.57497,68 7.6,15.75769 14.87596,26.87932 29.01726,44.35417 22.1263,27.34218 29.74545,38.45602 38.91287,56.76112 9.00334,17.97749 14.93396,36.14187 19.22571,58.88471 1.14168,6.05 2.31244,11.79849 2.6017,12.77441 0.47996,1.61939 1.93764,1.75044 16.68478,1.5 L 467.46801,668.5 Z m 58.4547,-0.75 c -0.36628,-2.8875 -0.83726,-29.1 -1.04663,-58.25 -0.34406,-47.90287 0.12491,-71.05401 1.8991,-93.75 L 528.0468,504 h -15.60286 -15.60285 l 0.55019,2.75 c 0.30261,1.5125 1.04294,12.425 1.64518,24.25 1.10964,21.78793 1.47645,128.15397 0.45969,133.29936 -0.30424,1.53965 -0.28878,3.22715 0.0344,3.75 C 499.85518,668.57464 506.1892,669 513.68629,669 H 527.2545 Z M 460,466.16516 c 0,-2.1985 -4.44851,-14.1585 -6.73304,-18.10206 -6.10791,-10.54347 -16.96496,-18.26902 -22.64131,-16.11087 -7.31463,2.78102 -5.56489,12.95064 3.84772,22.36325 C 441.65766,461.49976 460,470.01443 460,466.16516 Z m 116.5184,-2.57831 c 9.14156,-4.22366 13.77535,-7.7 17.52157,-13.14494 4.75452,-6.91046 5.53306,-15.18653 1.66022,-17.64837 -2.49915,-1.58862 -7.46867,-0.69204 -11.96329,2.15836 -6.93207,4.39619 -11.06576,10.58364 -15.73192,23.5481 -0.98978,2.75 -2.11895,5.7875 -2.50928,6.75 -1.12463,2.77322 2.65508,2.20293 11.0227,-1.66315 z"
       id="path1" />
  </g>
</svg>
