<?xml version="1.0" encoding="UTF-8" standalone="no"?>
<!-- Created with Inkscape (http://www.inkscape.org/) -->

<svg
   version="1.1"
   id="svg1"
   width="142.15997"
   height="552.85468"
   viewBox="0 0 142.15997 552.85468"
   xmlns="http://www.w3.org/2000/svg"
   xmlns:svg="http://www.w3.org/2000/svg">
  <defs
     id="defs1" />
  <g
     id="g1"
     transform="translate(-441.00001,-241.62762)">
    <path
       style="fill:#000000"
       d="M 501.00684,793.87321 C 466.36216,788.68063 441,758.93266 441,723.48956 c 0,-26.18151 15.82639,-51.43602 39.5,-63.031 9.39569,-4.60187 17.09324,-6.53146 28.6269,-7.17606 12.59548,-0.70395 22.37237,1.39385 34.8731,7.48263 8.07283,3.93206 10.85205,5.98734 18.5,13.68103 14.28016,14.36559 20.53124,28.917 20.64323,48.05384 0.15713,26.84894 -15.50486,52.07686 -39.9997,64.43049 -12.02834,6.06632 -29.15567,8.88834 -42.13669,6.94272 z m 2.80335,-204.01098 C 475.42713,586.9546 452.15538,567.31511 443.54117,539 c -2.30118,-7.56402 -3.08831,-23.03709 -1.60517,-31.55387 2.54808,-14.63218 11.33312,-30.08773 23.22379,-40.8577 7.78212,-7.04865 21.50889,-14.03837 31.84021,-16.21316 8.60909,-1.81224 25.18594,-1.34775 33.50515,0.93883 24.86604,6.83458 45.93546,29.19894 51.36664,54.52369 1.61234,7.51806 1.39264,21.44101 -0.45916,29.09832 -2.12467,8.78562 -8.33868,21.15019 -14.50745,28.86675 -14.97255,18.72927 -38.75688,28.55263 -63.09499,26.05937 z M 497.5,382.50066 c -18.572,-4.14879 -34.00843,-14.4712 -43.90701,-29.36079 -27.67841,-41.63427 -7.35519,-96.66788 40.5346,-109.76434 8.45757,-2.3129 25.91676,-2.33385 35.22869,-0.0423 19.89291,4.89545 37.85629,19.79044 47.13663,39.08508 9.43983,19.62622 8.83091,42.53156 -1.67132,62.86839 -6.39829,12.38984 -19.10532,24.79694 -31.82159,31.07051 -5.225,2.57775 -12.65,5.34409 -16.5,6.14743 -8.57754,1.78978 -20.97783,1.78807 -29,-0.004 z"
       id="path1" />
  </g>
</svg>
