<?xml version="1.0" encoding="UTF-8" standalone="no"?>
<!-- Created with Inkscape (http://www.inkscape.org/) -->

<svg
   version="1.1"
   id="svg1"
   width="740.32275"
   height="741.57489"
   viewBox="0 0 740.32275 741.57489"
   xmlns="http://www.w3.org/2000/svg"
   xmlns:svg="http://www.w3.org/2000/svg">
  <defs
     id="defs1" />
  <g
     id="g1"
     transform="translate(-141.9427,-141)">
    <path
       style="fill:#000000"
       d="M 484.5,882.39387 C 446.7043,878.67659 419.16793,873.09965 391,863.45729 335.34543,844.40579 288.59224,814.2668 245,769.3398 l -14.5,-14.94398 -9.32493,-11.94791 C 176.55863,685.28144 150.65343,621.3752 143.49681,550.82127 L 141.9427,535.5 l 0.007,-23.5 0.007,-23.5 1.55386,-15.5 C 153.95334,368.83048 207.19659,275.55016 292.08137,212.70892 345.05359,173.49294 409.59061,148.87026 475.93738,142.5627 L 492.37477,141 h 17.00605 c 42.93167,0 79.73574,5.75575 118.11918,18.47254 113.30817,37.54003 200.24142,124.66503 236.91225,237.43479 l 5.45848,16.78586 3.50685,16.4034 c 4.37169,20.44878 6.21796,33.10837 7.71537,52.90341 l 1.17251,15.5 -0.59759,24 -0.59758,24 -1.48915,11.27521 C 869.24163,636.06184 838.30645,704.16196 787.61158,760.23523 726.12329,828.24704 648.32898,868.86241 557,880.63446 l -11.5,1.48232 -28.5,0.33525 c -15.675,0.18439 -30.3,0.15822 -32.5,-0.0582 z m 61.27844,-33.91733 c 78.42681,-8.11597 146.74465,-40.05536 203.07518,-94.94001 60.15446,-58.61042 94.61103,-135.75102 100.07552,-224.04679 l 1.05274,-17.01026 -0.97129,-17.48974 C 847.95934,476.06018 846.79359,465.26475 844.36832,452 827.22239,358.22222 772.40671,276.59916 693.056,226.68898 l -12.556,-7.8975 -19,-9.3377 -19,-9.33771 -12.75289,-4.56489 C 604.48393,186.50823 580.1679,180.62825 554.5,177.3553 l -14,-1.78516 -29,-0.0351 -29,-0.0351 -10.5,1.29367 c -65.19481,8.03241 -121.55364,31.38172 -172,71.25913 l -10.5,8.30016 -17.05502,17.07352 -17.05502,17.07352 -8.65143,11.18757 c -40.00671,51.73458 -61.17163,102.40862 -69.9247,167.41702 l -2.20756,16.39541 -0.0246,25 -0.0246,25 1.7832,14.5 c 8.18798,66.58025 32.69575,125.62194 73.26384,176.5 l 8.77095,11 15.56248,15.5 15.56248,15.5 11.5,8.91607 c 51.75797,40.1285 110.66705,63.87254 176.20098,71.01999 l 12.299,1.34145 20.77844,0.11127 L 531.05688,850 Z M 317.5,664.61502 c -5.74181,-1.81473 -11.65493,-5.80981 -15.84584,-10.70595 l -3.63816,-4.25038 -2.13106,-5.57934 -2.13105,-5.57935 0.024,-7 0.024,-7 2.26165,-5.99263 2.26166,-5.99263 5.59474,-5.59474 5.59474,-5.59474 5.78015,-2.16263 L 321.07503,597 H 512 702.92497 l 5.48915,2.05375 5.48914,2.05375 4.99801,4.49364 4.998,4.49363 2.80037,5.70262 2.80036,5.70261 -7.5e-4,9.5 -7.5e-4,9.5 -2.17852,4.71723 -2.17853,4.71723 -4.54316,4.85701 -4.54317,4.85702 -5.77756,2.92575 L 704.5,665.5 513,665.68962 321.5,665.87924 Z m 3.24592,-122.70069 c -5.74696,-1.35446 -13.27914,-5.51422 -17.34268,-9.57776 l -3.66361,-3.66361 -2.37711,-5.19229 c -1.30741,-2.85577 -2.83883,-7.68993 -3.40314,-10.74258 l -1.02602,-5.55027 1.596,-7.0171 1.59601,-7.0171 3.01719,-4.55513 c 3.84156,-5.7997 7.94136,-9.25128 14.85744,-12.50833 L 319.5,473.5 h 192 192 l 6.23431,2.87952 6.23431,2.87953 4.54739,4.86152 4.54739,4.86153 2.17786,4.75895 2.17786,4.75895 0.0404,9.5 0.0404,9.5 -3.42984,6.32601 -3.42984,6.32602 -3.93404,3.36738 c -4.92544,4.216 -11.36359,7.27772 -17.91681,8.52052 L 695.72702,543 510.11351,542.89955 324.5,542.7991 Z m 0.38582,-123.98426 c -2.40255,-0.47639 -6.25718,-1.78056 -8.56585,-2.89817 l -4.19759,-2.03202 -4.63974,-4.63974 -4.63973,-4.63973 -2.08434,-4.43425 c -1.14639,-2.43883 -2.52218,-6.74292 -3.0573,-9.56465 l -0.97297,-5.1304 0.98816,-5.34543 c 0.54349,-2.93999 1.92374,-7.46049 3.06722,-10.04556 l 2.07906,-4.70012 5.00741,-4.70125 5.00741,-4.70125 5.47577,-2.04875 L 320.07503,351 h 192.06952 192.06952 l 6.24964,2.98268 6.24964,2.98268 4.23243,4.59165 c 2.32784,2.52541 5.20484,6.6957 6.39333,9.26732 L 729.5,375.5 l -0.0768,9 -0.0768,9 -2.14146,4.75895 -2.14147,4.75895 -4.54739,4.86153 -4.54739,4.86152 -6.23431,2.87953 L 703.5,418.5 l -189,0.14811 -189,0.14812 z"
       id="path1" />
  </g>
</svg>
