<?xml version="1.0" encoding="UTF-8" standalone="no"?>
<!-- Created with Inkscape (http://www.inkscape.org/) -->

<svg
   version="1.1"
   id="svg1"
   width="825.82312"
   height="828.3623"
   viewBox="0 0 825.82312 828.3623"
   xmlns="http://www.w3.org/2000/svg"
   xmlns:svg="http://www.w3.org/2000/svg">
  <defs
     id="defs1" />
  <g
     id="g1"
     transform="translate(-99.439301,-91.311418)">
    <path
       style="fill:#000000"
       d="m 490.5,919.39307 c -2.75,-0.21476 -11.70241,-1.08666 -19.89424,-1.93756 -84.64861,-8.79253 -167.431,-44.73392 -228.23867,-99.09372 C 175.50141,758.58635 131.89891,686.84536 110.56357,601.5 c -3.69094,-14.76442 -6.32011,-28.86439 -9.23009,-49.5 -2.513437,-17.82358 -2.528982,-74.47699 -0.0259,-94.25832 4.0568,-32.05957 9.82648,-57.89917 19.03347,-85.24168 31.58616,-93.80316 96.4965,-173.19855 183.15891,-224.03169 102.82736,-60.31493 221.84247,-73.403469 335,-36.84121 27.62712,8.92658 67.57378,27.49479 91.5,42.53148 80.2535,50.4362 137.09013,120.04459 169.94743,208.13632 12.18995,32.68175 20.41329,69.13369 24.18484,107.2051 1.52441,15.38794 1.50214,57.47215 -0.0386,73 -8.16263,82.26308 -38.75584,157.64722 -90.04507,221.87834 -67.93086,85.07194 -167.05789,139.974 -276.54857,153.16795 -12.34684,1.48783 -56.13969,2.69493 -67,1.84678 z M 551,876.5214 C 637.03504,866.42952 711.56272,831.33312 771.86505,772.51216 793.26053,751.64229 808.25526,733.47013 824.27204,709 c 33.33742,-50.93227 53.01715,-105.10749 60.30128,-166 2.08362,-17.41825 2.34264,-54.8126 0.49873,-72 C 880.16141,425.22727 867.35406,381.8127 846.27936,339.5 826.92868,300.64869 808.03298,274.08388 779.00155,244.91648 747.76188,213.5305 721.42563,194.27557 682.5,174.36237 641.95934,153.62298 604.3443,141.68588 561,135.80446 538.7161,132.78074 487.11515,132.51559 466.02639,135.31644 423.67291,140.9415 389.0541,151.32015 350.1439,170.05779 261.00382,212.98418 198.3719,281.65232 162.3049,376 c -9.01009,23.5695 -17.0311,55.69543 -20.9726,84 -2.22401,15.97093 -2.53925,68.90232 -0.50623,85 8.62866,68.32268 33.24185,130.28449 72.49479,182.5 16.53091,21.98993 42.13618,48.99129 62.17914,65.56934 58.61212,48.47962 131.09905,78.06889 208,84.90591 13.97914,1.24284 51.37729,0.43734 67.5,-1.45385 z M 335.4,712.6 332,709.2 V 512.02308 314.84615 l 2.92308,-2.92307 L 337.84615,309 H 400 462.15385 l 2.92307,2.92308 2.92308,2.92307 v 196.62659 c 0,213.89044 0.35559,200.67732 -5.47206,203.33257 C 460.58728,715.68954 444.17019,716 399.35295,716 H 338.8 Z m 225.71007,2.01692 c -5.32759,-2.98056 -5.03654,8.65898 -5.07463,-202.94384 L 556,314.84615 558.92308,311.92308 561.84615,309 h 62.02116 62.02116 l 2.80577,2.41342 2.80576,2.41341 v 198.06386 198.06386 l -2.77227,2.77272 -2.77228,2.77273 -61.22772,0.22699 c -49.57583,0.18379 -61.68254,-0.0275 -63.61766,-1.11007 z"
       id="path1" />
  </g>
</svg>
