<?xml version="1.0" encoding="UTF-8" standalone="no"?>
<!-- Created with Inkscape (http://www.inkscape.org/) -->

<svg
   version="1.1"
   id="svg1"
   width="891.89832"
   height="887.37036"
   viewBox="0 0 891.89832 887.37036"
   xmlns="http://www.w3.org/2000/svg"
   xmlns:svg="http://www.w3.org/2000/svg">
  <defs
     id="defs1" />
  <g
     id="g1"
     transform="translate(-66.562355,-68.269341)">
    <path
       style="fill:#000000"
       d="M 490.5,955.38776 C 394.08133,949.20781 307.11653,917.63088 237.5,863.52345 204.4776,837.85775 180.51164,813.45224 154.98983,779.5 115.45423,726.9049 85.365547,657.85228 73.07154,591.5 c -5.492732,-29.64496 -6.493195,-41.94147 -6.508923,-80 -0.01585,-38.36511 0.666255,-47.33615 5.904921,-77.6609 C 91.168673,325.58494 150.66405,227.94936 239.5,159.72852 305.34264,109.16521 379.40425,79.732264 464,70.509621 c 39.39896,-4.295282 91.11301,-2.310695 132,5.065655 59.41475,10.71891 122.39312,37.186024 173.40902,72.876384 42.88795,30.00411 85.87866,73.37848 113.73567,114.75069 35.04212,52.04326 58.46349,109.11837 69.2679,168.79765 5.19817,28.71267 6.06426,39.95422 6.0479,78.5 -0.0134,31.69309 -0.28652,38.03382 -2.28257,53 -8.43086,63.21383 -26.26079,117.61522 -55.06161,168 C 849.21222,822.30215 764.35736,893.64606 665.75085,929.3896 632.17947,941.55878 596.82534,949.69873 561,953.50748 c -14.00519,1.48895 -58.21094,2.66795 -70.5,1.88028 z m 62,-45.02147 C 681.54867,898.23427 793.77845,826.57867 861.03043,713.37816 887.26665,669.21659 905.39528,616.10048 913.06344,560.92366 915.7514,541.58225 916.72995,503.21385 915.10181,481 909.48474,404.36206 879.28887,327.01706 831.16475,266 800.59857,227.24483 761.40737,192.96463 718,167.01577 670.77348,138.78382 619.31466,121.47276 561.5,114.3682 c -16.65253,-2.04635 -68.61521,-2.93092 -85.57347,-1.45674 -41.64302,3.62002 -76.14139,11.73871 -115.42882,27.16449 C 262.51145,178.54918 178.53687,262.10963 137.47379,362 115.88708,414.51199 104.97141,479.97244 108.90564,533.32104 117.63127,651.64174 171.34614,754.2503 263,827.67902 c 41.57349,33.30671 96.64791,59.96346 150.5,72.84401 47.29924,11.31321 90.68409,14.3855 139,9.84326 z M 363.5,749.04446 C 345.95543,746.20343 333.64748,734.7757 330.06435,718 c -0.88371,-4.1374 -1.09913,-56.29314 -0.86955,-210.52119 l 0.3052,-205.02119 3.27411,-6.65051 c 4.11351,-8.35551 11.99263,-15.80203 19.97923,-18.88225 7.02997,-2.71128 21.20011,-3.70112 28.76101,-2.00906 6.14398,1.37496 11.34493,4.30666 79.98565,45.08679 9.9,5.88169 26.1,15.43019 36,21.21888 21.46882,12.55318 147.20361,86.53461 173.5,102.08613 10.175,6.01743 29.75,17.44906 43.5,25.40362 13.75,7.95456 26.40575,15.80694 28.12389,17.44974 10.03407,9.59409 12.65476,29.33546 5.7822,43.55662 -5.62151,11.63239 -0.29279,8.2062 -133.40609,85.77577 -43.175,25.15951 -87.5,51.03209 -98.5,57.49461 -11,6.46253 -36.425,21.32962 -56.5,33.038 -20.075,11.70837 -43.7,25.50313 -52.5,30.65501 -8.8,5.15189 -18.12242,10.00253 -20.71648,10.7792 -6.20479,1.85773 -17.0414,2.59508 -23.28352,1.58429 z m 20.35592,-49.41712 c 11.54402,-6.91147 40.81753,-23.9549 110.14408,-64.12736 24.475,-14.18246 48.55,-28.14216 53.5,-31.02155 14.51309,-8.44218 86.10906,-49.97687 123.73401,-71.78132 19.10371,-11.071 34.40371,-20.43274 34,-20.80387 C 704.8303,511.5221 684.025,499.31761 659,484.77214 633.975,470.22667 601.575,451.33963 587,442.80094 572.425,434.26224 541.6,416.3521 518.5,403.00062 495.4,389.64914 461.65,370.07986 443.5,359.51333 394.918,331.22995 375.71323,320.19965 373.75,319.45225 372.08707,318.81917 372,328.41827 372,512.39301 372,618.87686 372.27266,706 372.60592,706 c 0.33325,0 5.39575,-2.8677 11.25,-6.37266 z"
       id="path1" />
  </g>
</svg>
