<svg xmlns="http://www.w3.org/2000/svg" viewBox="0 0 256 256" width="256" height="256" fill="none" stroke="#ffffff" stroke-linecap="round" stroke-linejoin="round">
  <title>Yosi detailed outline icon</title>
  <g stroke-width="4.2">
    <path class="outer" d="M 127 6 L 136 6 L 136 7 L 141 7 L 141 8 L 144 8 L 144 9 L 146 9 L 146 10 L 148 10 L 148 11 L 150 11 L 150 12 L 151 12 L 151 13 L 153 13 L 153 14 L 154 14 L 154 15 L 155 15 L 155 16 L 156 16 L 156 18 L 157 18 L 157 19 L 158 19 L 158 20 L 159 20 L 159 22 L 160 22 L 160 24 L 161 24 L 161 26 L 162 26 L 162 29 L 163 29 L 163 31 L 164 31 L 164 29 L 165 29 L 165 21 L 164 21 L 164 18 L 163 18 L 163 16 L 162 16 L 162 14 L 161 14 L 161 12 L 166 12 L 166 13 L 168 13 L 168 14 L 169 14 L 169 15 L 171 15 L 171 16 L 172 16 L 172 17 L 173 17 L 173 18 L 174 18 L 174 19 L 175 19 L 175 20 L 176 20 L 176 22 L 177 22 L 177 23 L 178 23 L 178 25 L 179 25 L 179 28 L 180 28 L 180 31 L 181 31 L 181 41 L 180 41 L 180 42 L 182 42 L 182 41 L 183 41 L 183 39 L 184 39 L 184 37 L 185 37 L 185 34 L 186 34 L 186 33 L 188 33 L 188 35 L 189 35 L 189 37 L 190 37 L 190 49 L 189 49 L 189 51 L 191 51 L 191 52 L 194 52 L 194 53 L 196 53 L 196 54 L 198 54 L 198 55 L 199 55 L 199 56 L 201 56 L 201 57 L 202 57 L 202 58 L 203 58 L 203 59 L 204 59 L 204 61 L 205 61 L 205 62 L 206 62 L 206 64 L 207 64 L 207 67 L 208 67 L 208 73 L 206 73 L 206 72 L 205 72 L 205 71 L 204 71 L 204 70 L 203 70 L 203 69 L 201 69 L 201 70 L 202 70 L 202 73 L 203 73 L 203 83 L 202 83 L 202 86 L 201 86 L 201 88 L 200 88 L 200 90 L 199 90 L 199 91 L 198 91 L 198 93 L 197 93 L 197 94 L 196 94 L 196 97 L 195 97 L 195 99 L 194 99 L 194 101 L 193 101 L 193 104 L 192 104 L 192 108 L 191 108 L 191 109 L 192 109 L 192 110 L 193 110 L 193 113 L 194 113 L 194 114 L 195 114 L 195 115 L 196 115 L 196 117 L 197 117 L 197 131 L 196 131 L 196 134 L 195 134 L 195 137 L 194 137 L 194 139 L 193 139 L 193 140 L 192 140 L 192 142 L 191 142 L 191 143 L 190 143 L 190 144 L 189 144 L 189 145 L 188 145 L 188 146 L 186 146 L 186 147 L 184 147 L 184 148 L 183 148 L 183 151 L 182 151 L 182 154 L 181 154 L 181 157 L 180 157 L 180 159 L 179 159 L 179 161 L 178 161 L 178 163 L 177 163 L 177 165 L 176 165 L 176 166 L 175 166 L 175 167 L 174 167 L 174 169 L 173 169 L 173 170 L 172 170 L 172 172 L 171 172 L 171 173 L 170 173 L 170 174 L 169 174 L 169 175 L 168 175 L 168 176 L 167 176 L 167 177 L 166 177 L 166 178 L 165 178 L 165 179 L 164 179 L 164 181 L 165 181 L 165 182 L 167 182 L 167 183 L 168 183 L 168 184 L 169 184 L 169 185 L 171 185 L 171 186 L 172 186 L 172 187 L 173 187 L 173 188 L 174 188 L 174 189 L 175 189 L 175 190 L 176 190 L 176 191 L 178 191 L 178 192 L 180 192 L 180 193 L 182 193 L 182 194 L 184 194 L 184 195 L 187 195 L 187 196 L 189 196 L 189 197 L 191 197 L 191 198 L 194 198 L 194 199 L 196 199 L 196 200 L 198 200 L 198 201 L 201 201 L 201 202 L 203 202 L 203 203 L 205 203 L 205 204 L 207 204 L 207 205 L 209 205 L 209 206 L 211 206 L 211 207 L 212 207 L 212 208 L 214 208 L 214 210 L 215 210 L 215 211 L 216 211 L 216 212 L 217 212 L 217 214 L 218 214 L 218 216 L 219 216 L 219 218 L 220 218 L 220 221 L 221 221 L 221 224 L 222 224 L 222 227 L 223 227 L 223 232 L 221 232 L 221 233 L 220 233 L 220 234 L 218 234 L 218 235 L 217 235 L 217 236 L 215 236 L 215 237 L 213 237 L 213 238 L 211 238 L 211 239 L 209 239 L 209 240 L 207 240 L 207 241 L 205 241 L 205 242 L 202 242 L 202 243 L 200 243 L 200 244 L 197 244 L 197 245 L 194 245 L 194 246 L 190 246 L 190 247 L 186 247 L 186 248 L 182 248 L 182 249 L 177 249 L 177 250 L 172 250 L 172 251 L 165 251 L 165 252 L 158 252 L 158 253 L 149 253 L 149 254 L 147 254 L 147 253 L 145 253 L 145 254 L 114 254 L 114 253 L 102 253 L 102 252 L 92 252 L 92 251 L 85 251 L 85 250 L 79 250 L 79 249 L 74 249 L 74 248 L 70 248 L 70 247 L 65 247 L 65 246 L 62 246 L 62 245 L 59 245 L 59 244 L 55 244 L 55 243 L 53 243 L 53 242 L 50 242 L 50 241 L 48 241 L 48 240 L 45 240 L 45 239 L 43 239 L 43 238 L 41 238 L 41 237 L 40 237 L 40 236 L 38 236 L 38 235 L 36 235 L 36 234 L 35 234 L 35 233 L 33 233 L 33 232 L 32 232 L 32 228 L 33 228 L 33 225 L 34 225 L 34 222 L 35 222 L 35 220 L 36 220 L 36 217 L 37 217 L 37 215 L 38 215 L 38 213 L 39 213 L 39 212 L 40 212 L 40 210 L 41 210 L 41 209 L 42 209 L 42 208 L 44 208 L 44 207 L 45 207 L 45 206 L 47 206 L 47 205 L 49 205 L 49 204 L 52 204 L 52 203 L 54 203 L 54 202 L 56 202 L 56 201 L 59 201 L 59 200 L 61 200 L 61 199 L 64 199 L 64 198 L 66 198 L 66 197 L 69 197 L 69 196 L 72 196 L 72 195 L 74 195 L 74 194 L 76 194 L 76 193 L 79 193 L 79 192 L 81 192 L 81 191 L 82 191 L 82 190 L 83 190 L 83 189 L 84 189 L 84 188 L 85 188 L 85 187 L 86 187 L 86 186 L 87 186 L 87 185 L 88 185 L 88 184 L 89 184 L 89 183 L 90 183 L 90 182 L 92 182 L 92 181 L 93 181 L 93 180 L 95 180 L 95 179 L 96 179 L 96 178 L 97 178 L 97 177 L 98 177 L 98 175 L 99 175 L 99 174 L 100 174 L 100 172 L 99 172 L 99 171 L 98 171 L 98 170 L 97 170 L 97 169 L 96 169 L 96 167 L 95 167 L 95 166 L 94 166 L 94 165 L 92 165 L 92 164 L 90 164 L 90 163 L 89 163 L 89 162 L 88 162 L 88 161 L 87 161 L 87 160 L 86 160 L 86 159 L 85 159 L 85 158 L 84 158 L 84 157 L 83 157 L 83 155 L 82 155 L 82 153 L 80 153 L 80 152 L 74 152 L 74 151 L 72 151 L 72 150 L 70 150 L 70 149 L 68 149 L 68 148 L 67 148 L 67 147 L 66 147 L 66 146 L 65 146 L 65 145 L 64 145 L 64 144 L 63 144 L 63 142 L 62 142 L 62 141 L 61 141 L 61 139 L 60 139 L 60 137 L 59 137 L 59 134 L 58 134 L 58 123 L 59 123 L 59 120 L 60 120 L 60 119 L 61 119 L 61 117 L 62 117 L 62 116 L 63 116 L 63 115 L 64 115 L 64 113 L 63 113 L 63 111 L 62 111 L 62 109 L 61 109 L 61 107 L 60 107 L 60 106 L 59 106 L 59 105 L 58 105 L 58 103 L 57 103 L 57 102 L 56 102 L 56 101 L 55 101 L 55 99 L 54 99 L 54 95 L 53 95 L 53 86 L 52 86 L 52 88 L 51 88 L 51 89 L 49 89 L 49 87 L 48 87 L 48 75 L 49 75 L 49 72 L 50 72 L 50 69 L 51 69 L 51 68 L 52 68 L 52 66 L 51 66 L 51 67 L 50 67 L 50 68 L 47 68 L 47 66 L 48 66 L 48 64 L 49 64 L 49 61 L 50 61 L 50 60 L 51 60 L 51 58 L 52 58 L 52 57 L 53 57 L 53 56 L 54 56 L 54 55 L 55 55 L 55 54 L 57 54 L 57 53 L 58 53 L 58 52 L 60 52 L 60 51 L 63 51 L 63 47 L 62 47 L 62 37 L 63 37 L 63 34 L 64 34 L 64 32 L 65 32 L 65 31 L 66 31 L 66 30 L 69 30 L 69 33 L 70 33 L 70 35 L 71 35 L 71 36 L 73 36 L 73 37 L 76 37 L 76 38 L 80 38 L 80 37 L 81 37 L 81 36 L 82 36 L 82 34 L 83 34 L 83 33 L 84 33 L 84 31 L 85 31 L 85 30 L 86 30 L 86 29 L 87 29 L 87 28 L 88 28 L 88 27 L 89 27 L 89 26 L 90 26 L 90 25 L 91 25 L 91 24 L 92 24 L 92 23 L 93 23 L 93 22 L 94 22 L 94 21 L 95 21 L 95 20 L 96 20 L 96 19 L 98 19 L 98 18 L 99 18 L 99 17 L 101 17 L 101 16 L 102 16 L 102 15 L 104 15 L 104 14 L 105 14 L 105 13 L 107 13 L 107 12 L 109 12 L 109 11 L 112 11 L 112 10 L 114 10 L 114 9 L 117 9 L 117 8 L 121 8 L 121 7 L 127 7 L 127 6 Z" />
  </g>
  <g stroke-width="1.45">
    <path class="detail" d="M 89 132 L 90 132 L 90 133 L 90 134 L 90 135 L 90 136 L 90 137 L 91 138 L 92 139 L 92 140 L 92 141 L 93 142 L 93 143 L 94 144 L 95 145 L 96 146 L 96 147 L 97 148 L 98 149 L 99 150 L 100 151 L 101 152 L 102 153 L 102 152" /> <path class="detail" d="M 102 119 L 102 118 L 103 117 L 103 116 L 103 115 L 103 114 L 103 113 L 104 112 L 105 111 L 106 110 L 107 109 L 108 109 L 109 109 L 110 108 L 111 108 L 112 108 L 113 108 L 114 108 L 115 108 L 116 107 L 117 108 L 117 109" /> <path class="detail" d="M 109 100 L 110 100 L 111 100 L 111 101 L 110 102 L 109 102 L 108 103 L 107 104 L 106 105 L 105 105 L 104 106 L 103 107 L 102 108 L 101 109 L 101 110 L 100 111 L 99 112 L 99 113 L 100 113 L 100 112" /> <path class="detail" d="M 141 237 L 141 236 L 142 235 L 143 234 L 142 233 L 141 232 L 140 231 L 139 230 L 138 230 L 137 230 L 137 231 L 136 232 L 135 233 L 134 234 L 134 235 L 134 236 L 135 237 L 135 236 L 135 235 L 135 234" /> <path class="detail" d="M 101 52 L 102 51 L 102 50 L 103 49 L 104 48 L 104 47 L 105 46 L 106 45 L 107 44 L 108 43 L 109 42 L 110 42 L 111 41 L 112 41 L 113 40 L 114 39 L 115 39 L 114 40 L 113 39" /> <path class="detail" d="M 110 65 L 109 66 L 108 67 L 107 68 L 107 69 L 106 70 L 105 71 L 104 72 L 103 73 L 102 74 L 101 75 L 100 76 L 99 76 L 98 77 L 97 78 L 96 78 L 96 77 L 97 77" /> <path class="detail" d="M 203 65 L 202 64 L 201 63 L 201 62 L 200 61 L 199 60 L 198 59 L 197 58 L 196 58 L 195 57 L 194 56 L 193 55 L 192 55 L 191 55 L 190 55 L 189 55 L 189 54 L 190 54" /> <path class="detail" d="M 72 146 L 71 145 L 70 145 L 69 144 L 68 143 L 67 142 L 66 141 L 65 140 L 64 139 L 64 138 L 63 137 L 62 136 L 62 135 L 62 134 L 61 133 L 61 132 L 62 132 L 63 133" /> <path class="detail" d="M 147 106 L 148 105 L 148 104 L 149 103 L 150 102 L 151 101 L 152 100 L 153 99 L 154 99 L 155 98 L 156 97 L 157 97 L 158 96 L 159 96 L 160 95 L 161 95 L 161 96" /> <path class="detail" d="M 103 18 L 102 19 L 101 20 L 100 20 L 99 21 L 98 22 L 97 22 L 96 23 L 95 24 L 94 25 L 93 26 L 92 27 L 91 28 L 90 29 L 89 30" /> <path class="detail" d="M 122 82 L 121 82 L 121 83 L 122 83 L 123 84 L 124 84 L 125 85 L 125 86 L 126 87 L 127 88 L 127 89 L 127 90 L 126 90 L 126 89 L 126 88" /> <path class="detail" d="M 124 111 L 124 110 L 123 109 L 122 108 L 121 107 L 120 106 L 119 105 L 118 104 L 117 103 L 116 102 L 115 102 L 114 101 L 114 100 L 115 100" /> <path class="detail" d="M 136 9 L 135 10 L 134 10 L 133 10 L 132 10 L 131 10 L 130 10 L 129 10 L 128 10 L 127 10 L 126 10 L 125 10 L 125 9 L 126 9" /> <path class="detail" d="M 124 169 L 123 168 L 122 167 L 121 167 L 120 166 L 119 165 L 118 164 L 117 163 L 117 162 L 116 161 L 115 160 L 115 159 L 116 159 L 116 160" /> <path class="detail" d="M 119 12 L 118 12 L 117 13 L 116 13 L 115 13 L 114 13 L 113 13 L 112 14 L 111 15 L 110 15 L 109 15 L 108 15 L 107 16 L 108 16" /> <path class="detail" d="M 91 186 L 90 186 L 89 187 L 88 188 L 87 189 L 86 190 L 85 191 L 85 192 L 84 193 L 83 194 L 83 195 L 84 195 L 84 194" /> <path class="detail" d="M 53 60 L 54 59 L 55 58 L 56 57 L 57 56 L 58 55 L 59 55 L 60 55 L 59 56 L 58 56 L 57 57 L 56 58 L 55 59" /> <path class="detail" d="M 82 219 L 81 219 L 80 220 L 79 221 L 78 222 L 77 223 L 76 224 L 75 225 L 75 226 L 75 227 L 76 228 L 76 227 L 76 226" /> <path class="detail" d="M 172 66 L 173 67 L 174 68 L 175 69 L 175 70 L 176 71 L 177 72 L 177 73 L 178 74 L 178 75 L 179 76 L 179 77 L 178 77" /> <path class="detail" d="M 105 180 L 106 181 L 107 182 L 108 183 L 109 184 L 110 185 L 111 186 L 112 187 L 113 187 L 114 188 L 115 189 L 116 189 L 117 190" /> <path class="detail" d="M 151 127 L 152 128 L 152 129 L 153 130 L 154 131 L 155 132 L 156 133 L 157 133 L 158 134 L 159 135 L 160 135 L 160 134" /> <path class="detail" d="M 179 104 L 179 103 L 178 102 L 177 102 L 176 101 L 175 100 L 174 100 L 173 100 L 172 100 L 171 100 L 171 99 L 172 99" /> <path class="detail" d="M 146 192 L 145 193 L 144 194 L 143 194 L 142 195 L 141 196 L 140 197 L 139 198 L 138 199 L 137 200 L 136 200 L 137 199" /> <path class="detail" d="M 85 39 L 84 40 L 83 40 L 82 40 L 81 40 L 80 40 L 79 40 L 78 40 L 78 41 L 79 41 L 80 41 L 81 41" /> <path class="detail" d="M 108 221 L 107 220 L 108 219 L 108 220 L 107 221 L 107 222 L 108 223 L 109 224 L 109 225 L 109 226 L 110 227 L 110 226" /> <path class="detail" d="M 44 212 L 44 211 L 43 212 L 43 213 L 42 214 L 41 215 L 41 216 L 40 217 L 39 218 L 39 219 L 39 220 L 40 219" /> <path class="detail" d="M 100 140 L 101 139 L 100 138 L 99 137 L 98 137 L 97 136 L 96 135 L 95 134 L 94 133 L 94 132 L 93 131" /> <path class="detail" d="M 215 219 L 216 220 L 216 221 L 216 222 L 217 223 L 217 224 L 217 225 L 217 226 L 217 227 L 218 227 L 218 226" /> <path class="detail" d="M 76 230 L 77 230 L 77 231 L 78 232 L 79 233 L 79 234 L 79 235 L 80 236 L 81 237 L 81 238 L 80 237" /> <path class="detail" d="M 125 100 L 126 101 L 127 102 L 128 103 L 129 104 L 130 105 L 131 106 L 132 107 L 132 108 L 133 109" /> <path class="detail" d="M 87 220 L 86 220 L 85 221 L 84 222 L 83 223 L 82 223 L 81 224 L 80 225 L 79 226 L 80 226" /> <path class="detail" d="M 174 108 L 173 107 L 172 106 L 171 105 L 170 104 L 169 103 L 168 102 L 167 102 L 167 103 L 168 103" /> <path class="detail" d="M 153 112 L 154 112 L 155 111 L 156 110 L 157 109 L 158 108 L 159 107 L 160 107 L 161 107 L 162 107" /> <path class="detail" d="M 108 84 L 107 85 L 106 85 L 105 86 L 104 87 L 103 88 L 102 89 L 101 90 L 100 91 L 99 92" /> <path class="detail" d="M 82 89 L 81 90 L 80 91 L 80 92 L 80 93 L 79 94 L 78 94 L 77 95 L 76 96 L 77 96" /> <path class="detail" d="M 107 219 L 107 218 L 107 217 L 107 216 L 107 215 L 106 214 L 105 214 L 105 215 L 106 216 L 106 215" /> <path class="detail" d="M 184 118 L 184 117 L 184 116 L 185 116 L 185 117 L 185 118 L 185 119 L 185 120 L 184 120 L 184 119" /> <path class="detail" d="M 98 101 L 99 100 L 100 99 L 101 98 L 102 98 L 103 97 L 104 97 L 105 96 L 106 96" /> <path class="detail" d="M 102 182 L 103 183 L 104 184 L 105 185 L 106 186 L 107 187 L 108 188 L 109 189 L 110 189" /> <path class="detail" d="M 115 183 L 114 182 L 113 182 L 112 181 L 111 180 L 110 179 L 109 179 L 108 178 L 107 178" /> <path class="detail" d="M 96 103 L 95 104 L 94 105 L 94 106 L 93 107 L 92 108 L 91 109 L 92 110 L 92 109" /> <path class="detail" d="M 152 86 L 153 85 L 154 84 L 155 83 L 156 82 L 157 81 L 158 81 L 158 82 L 157 82" /> <path class="detail" d="M 133 64 L 132 65 L 131 64 L 130 64 L 129 64 L 128 63 L 127 62 L 128 62 L 127 63" /> <path class="detail" d="M 119 109 L 120 110 L 121 111 L 121 112 L 121 113 L 120 114 L 119 115 L 119 114 L 120 115" /> <path class="detail" d="M 151 169 L 150 170 L 149 169 L 148 168 L 147 167 L 146 166 L 146 165 L 147 165 L 147 166" /> <path class="detail" d="M 123 139 L 124 139 L 125 138 L 126 137 L 127 136 L 128 135 L 129 134 L 130 133 L 131 132" /> <path class="detail" d="M 96 110 L 97 109 L 97 108 L 98 107 L 99 106 L 100 105 L 101 104 L 102 104 L 103 103" /> <path class="detail" d="M 167 93 L 166 93 L 165 93 L 165 94 L 165 95 L 166 95 L 167 95 L 167 94 L 168 93" /> <path class="detail" d="M 87 122 L 88 122 L 89 123 L 89 124 L 89 125 L 90 126 L 91 127 L 91 126 L 91 125" /> <path class="detail" d="M 110 231 L 109 230 L 109 229 L 110 230 L 111 231 L 111 232 L 111 233 L 110 233 L 110 232" /> <path class="detail" d="M 189 123 L 188 122 L 189 122 L 188 123 L 188 124 L 188 125 L 188 126 L 187 126 L 187 125" /> <path class="detail" d="M 133 216 L 134 217 L 135 217 L 136 217 L 137 217 L 138 217 L 139 216 L 140 215" /> <path class="detail" d="M 183 218 L 184 218 L 185 219 L 186 220 L 187 221 L 188 221 L 189 222 L 190 223" /> <path class="detail" d="M 76 127 L 75 126 L 74 125 L 73 124 L 72 123 L 71 122 L 70 121 L 70 122" /> <path class="detail" d="M 164 109 L 165 110 L 166 111 L 167 112 L 168 113 L 169 114 L 169 115 L 168 115" /> <path class="detail" d="M 87 28 L 88 27 L 89 26 L 90 25 L 91 24 L 92 23 L 93 22 L 94 21" /> <path class="detail" d="M 122 103 L 123 104 L 124 104 L 125 105 L 126 106 L 127 107 L 127 108 L 128 109" /> <path class="detail" d="M 142 200 L 143 199 L 144 198 L 145 198 L 146 197 L 147 196 L 148 196 L 148 197" /> <path class="detail" d="M 127 156 L 126 156 L 125 156 L 124 156 L 123 156 L 122 155 L 123 155 L 124 155" /> <path class="detail" d="M 153 19 L 152 18 L 151 17 L 150 16 L 149 15 L 148 15 L 147 15 L 147 14" /> <path class="detail" d="M 153 120 L 152 119 L 152 118 L 152 117 L 153 117 L 153 118 L 153 119 L 152 120" /> <path class="detail" d="M 169 108 L 170 109 L 171 110 L 172 111 L 173 112 L 173 113 L 172 113 L 172 112" /> <path class="detail" d="M 114 224 L 113 223 L 113 222 L 114 223 L 115 224 L 115 225 L 114 225 L 113 224" /> <path class="detail" d="M 160 60 L 159 60 L 158 60 L 158 61 L 159 61 L 160 61 L 161 61 L 161 60" /> <path class="detail" d="M 126 199 L 127 200 L 128 201 L 129 201 L 130 201 L 129 200 L 128 200" /> <path class="detail" d="M 62 123 L 61 122 L 62 121 L 63 120 L 64 119 L 65 118 L 66 117" /> <path class="detail" d="M 144 123 L 144 122 L 144 121 L 143 120 L 143 119 L 144 118 L 143 117" /> <path class="detail" d="M 116 194 L 117 195 L 118 196 L 119 196 L 120 196 L 119 195 L 118 195" /> <path class="detail" d="M 107 122 L 107 123 L 107 124 L 107 125 L 108 125 L 109 124 L 108 124" /> <path class="detail" d="M 38 222 L 37 223 L 37 224 L 37 225 L 36 226 L 36 227 L 37 227" /> <path class="detail" d="M 166 186 L 167 187 L 168 188 L 169 189 L 170 190 L 171 190 L 172 191" /> <path class="detail" d="M 101 134 L 100 133 L 99 132 L 98 131 L 97 130 L 97 129 L 96 128" /> <path class="detail" d="M 128 129 L 127 130 L 126 131 L 125 132 L 124 133 L 123 134 L 122 135" /> <path class="detail" d="M 113 220 L 112 219 L 112 218 L 112 217 L 112 216 L 112 215 L 111 215" /> <path class="detail" d="M 110 195 L 109 196 L 108 197 L 107 198 L 106 199 L 106 200 L 107 200" /> <path class="detail" d="M 177 90 L 176 89 L 175 88 L 174 87 L 173 86 L 172 85 L 171 84" /> <path class="detail" d="M 127 189 L 126 188 L 125 187 L 124 187 L 123 187 L 124 188 L 125 188" /> <path class="detail" d="M 195 67 L 196 68 L 196 69 L 197 70 L 198 71 L 198 72 L 197 72" /> <path class="detail" d="M 100 180 L 99 179 L 99 178 L 100 178 L 100 179 L 99 180 L 100 181" /> <path class="detail" d="M 144 199 L 145 199 L 144 200 L 143 201 L 142 201 L 141 201 L 141 200" /> <path class="detail" d="M 143 239 L 143 238 L 144 238 L 145 238 L 145 239 L 145 240 L 144 239" />
  </g>
</svg>
