<?xml version="1.0" encoding="UTF-8" standalone="no"?>
<!-- Created with Inkscape (http://www.inkscape.org/) -->

<svg
   version="1.1"
   id="svg1"
   width="641.69507"
   height="863.97662"
   viewBox="0 0 641.69507 863.97662"
   xmlns="http://www.w3.org/2000/svg"
   xmlns:svg="http://www.w3.org/2000/svg">
  <defs
     id="defs1" />
  <g
     id="g1"
     transform="translate(-186.15294,-70.0131)">
    <path
       style="fill:#000000"
       d="M 221.97691,931.72418 C 203.97166,925.58492 190.08012,909.46505 187.05344,891.19868 186.25022,886.35117 186.02039,777.69162 186.22175,498 L 186.5,111.5 l 2.54061,-6.51508 c 5.14981,-13.206027 13.30646,-22.69329 24.75812,-28.796959 12.40165,-6.610013 -9.05436,-6.156899 292.31478,-6.17318 177.99028,-0.0096 275.496,0.334279 279,0.984009 17.53035,3.250564 34.07106,18.051912 40.15125,35.92908 L 827.5,113.5 l 0.27891,385 c 0.20192,278.73234 -0.0276,386.84897 -0.8317,391.69868 -2.46974,14.89644 -14.88479,31.82057 -27.94721,38.09749 -12.73696,6.12053 8.70975,5.70627 -293.9601,5.67801 L 228.5,933.94837 Z M 783.5,901.33763 c 4.71539,-2.5491 9.53894,-7.45198 12.13805,-12.33763 1.8066,-3.39596 1.86195,-14.88515 1.86195,-386.5 v -383 l -2.76061,-5.62135 c -2.94267,-5.99209 -7.80001,-10.17526 -13.81983,-11.90172 C 778.73984,101.35179 679.82164,101 506.22448,101 c -227.91297,0 -271.81485,0.21983 -274.57933,1.3749 -4.8807,2.03929 -10.71502,7.57064 -12.78017,12.11652 -1.75119,3.85479 -1.82152,18.70205 -1.83325,387.00858 l -0.0122,383 2.36123,5.07086 c 2.80307,6.01975 8.40519,10.96163 14.61923,12.8963 3.81822,1.18876 45.48265,1.37313 275,1.21693 L 779.5,903.5 Z M 538.99949,851.75 c -8.45234,-5.76948 -9.35435,-17.66771 -1.8445,-24.33052 1.28975,-1.14428 10.67001,-7.17643 20.84501,-13.40476 10.175,-6.22833 23.45,-14.35616 29.5,-18.06184 19.09367,-11.69502 127.45161,-74.06559 142.99204,-82.30586 9.55645,-5.06728 19.65903,-2.78242 23.75641,5.37291 2.28457,4.54716 2.21472,9.70821 -0.18465,13.64319 -2.00437,3.28717 -2.29385,3.46737 -57.5638,35.83401 C 630.4952,807.1502 608.36174,820.36214 575,841.02306 556.3716,852.55963 553.30879,854 547.40584,854 c -3.656,0 -6.04803,-0.64024 -8.40635,-2.25 z m -35.25897,-42.18094 c -4.85849,-1.7316 -6.48907,-3.14184 -8.67427,-7.50216 -1.63736,-3.26718 -3.95957,-11.78003 -19.11347,-70.0669 -2.78838,-10.725 -5.52228,-21.23014 -6.07534,-23.34477 l -1.00556,-3.84476 -2.95,4.65167 C 459.37944,719.77849 445.54635,719.53385 439.7909,709 c -3.18237,-5.8245 -2.02585,-9.84505 10.41633,-36.21153 11.26133,-23.8641 11.53807,-24.32778 15.83907,-26.53847 2.40761,-1.2375 5.96963,-2.24832 7.91559,-2.24626 4.03351,0.004 9.22156,2.81752 11.43096,6.19852 0.82583,1.26376 6.72458,22.54774 13.10833,47.29774 6.38375,24.75 14.75354,57.14254 18.59953,71.98342 l 6.99272,26.98343 -1.636,4.28378 c -2.93268,7.67913 -11.10725,11.53056 -18.71691,8.81843 z M 565,759.98017 c -8.77457,-1.82116 -20.25968,-8.4339 -26.8102,-15.43643 -17.95569,-19.19468 -28.47539,-53.46223 -25.35894,-82.60583 3.43952,-32.16473 16.79628,-52.21098 39.35315,-59.06242 5.8146,-1.76613 8.76177,-2.05111 17.28941,-1.67185 9.17394,0.40801 11.07582,0.83515 17.67694,3.97 21.47772,10.19972 39.11854,39.05762 43.91076,71.83181 1.66283,11.37216 0.68331,30.32307 -2.06637,39.97822 -5.64441,19.81961 -19.06938,35.34978 -35.49475,41.06078 -6.87049,2.38883 -21.52215,3.38397 -28.5,1.93572 z m 23.46992,-32.74283 c 9.22202,-6.48148 13.05239,-18.12222 12.25289,-37.23734 -0.62214,-14.87461 -3.06675,-25.08335 -8.74037,-36.5 -7.63683,-15.36708 -16.15839,-22.14771 -26.73216,-21.27085 -14.13142,1.17189 -21.67973,15.30493 -21.50821,40.27085 0.18325,26.67563 12.00184,52.47268 26.10702,56.98517 6.54568,2.09408 13.66602,1.23454 18.62083,-2.24783 z M 688,701.02911 c -2.475,-0.45948 -6.74301,-1.60766 -9.48447,-2.55152 -28.06753,-9.6634 -49.35007,-51.78009 -47.19442,-93.39452 0.75219,-14.52087 2.61891,-22.29806 7.94075,-33.08307 7.20673,-14.60486 19.23849,-25.10676 33.66964,-29.38848 6.60419,-1.95946 19.72186,-2.0823 26.5685,-0.24881 24.69919,6.6143 43.14289,31.6342 49.8797,67.66458 6.14249,32.85181 0.47569,58.87765 -16.53725,75.95038 C 721.44007,697.42012 702.6082,703.74106 688,701.02911 Z m 18.76972,-31.38705 c 4.06515,-2.13074 8.46995,-8.10955 11.41735,-15.49724 1.99512,-5.00078 2.24062,-7.29919 2.15167,-20.14482 -0.11723,-16.93059 -2.72422,-29.05944 -8.95769,-41.67501 C 697.66323,564.56229 674.2632,563.89703 664.77542,591 c -2.0008,5.71551 -2.26362,8.31037 -2.17761,21.5 0.0866,13.28232 0.40928,16.03051 2.81781,23.99913 6.28536,20.79506 15.65603,33.06543 27.08438,35.46548 3.94622,0.82874 10.19919,-0.189 14.26972,-2.32255 z M 290.20602,539.8571 c -3.9106,-2.50403 -7.20663,-8.48229 -7.20447,-13.06726 0.002,-4.60203 2.88894,-9.8428 6.89633,-12.51991 L 293.29577,512 l 132.60211,0.004 c 131.20948,0.004 132.63686,0.0249 135.91026,2.02066 3.52011,2.14615 7.14794,8.73172 7.14794,12.9756 0,4.24388 -3.62783,10.82945 -7.14794,12.9756 -3.27374,1.99595 -4.686,2.01679 -135.80814,2.00382 l -132.5,-0.0131 z m 1.19024,-97.28647 c -5.07328,-2.20845 -7.89626,-7.12322 -7.89626,-13.7473 0,-6.13303 1.68541,-9.37935 6.88506,-13.26154 l 2.76147,-2.06179 213.51702,-0.25686 c 209.3908,-0.25189 213.60172,-0.21939 217.90006,1.68197 4.72204,2.08879 8.01897,6.39697 9.04332,11.81713 0.82335,4.35664 -3.01478,12.03121 -7.50481,15.00631 L 722.70423,444 508.60212,443.96086 C 331.03975,443.9284 293.9703,443.69113 291.39626,442.57063 Z m 0.58815,-99.81156 c -6.08187,-3.06944 -9.21313,-8.5196 -8.66589,-15.08356 0.44846,-5.37925 2.71695,-9.0536 7.67131,-12.42551 l 3.30594,-2.25 h 213.14022 213.14023 l 4.46189,2.25 c 10.9316,5.51249 11.46504,20.52432 0.96189,27.06907 l -3.5,2.18093 -213.01971,0.25907 -213.0197,0.25907 z m 0.46601,-97.16567 C 283.19065,241.5601 280.279,229.57561 286.70383,221.94013 292.10537,215.52076 274.23418,216 508.21594,216 c 205.69566,0 213.43973,0.0661 216.79966,1.85161 4.14,2.2 7.69155,7.07044 8.56989,11.75238 0.9998,5.32941 -2.946,12.3214 -8.54738,15.14601 L 720.57622,247 508.03811,246.9609 C 333.58762,246.9287 294.9535,246.68368 292.45042,245.5934 Z"
       id="path1" />
  </g>
</svg>
