<?xml version="1.0" encoding="UTF-8" standalone="no"?>
<!-- Created with Inkscape (http://www.inkscape.org/) -->

<svg
   version="1.1"
   id="svg1"
   width="654.60852"
   height="417.38882"
   viewBox="0 0 654.60852 417.38882"
   xmlns="http://www.w3.org/2000/svg"
   xmlns:svg="http://www.w3.org/2000/svg">
  <defs
     id="defs1" />
  <g
     id="g1"
     transform="translate(-184.47441,-300.81827)">
    <path
       style="fill:#000000"
       d="M 212.59709,716.00713 C 178.08988,704.98595 174.3939,658.27025 206.76346,642.27234 L 214.39627,638.5 H 511.44814 808.5 l 6.72333,3.18498 c 35.28639,16.71589 29.89321,67.27357 -8.02255,75.20632 -10.74751,2.24859 -587.48015,1.391 -594.60369,-0.88417 z m -1.52747,-169.02872 c -33.20285,-11.96205 -35.88221,-57.3282 -4.27033,-72.30401 L 213.5,471.5 H 512 810.5 l 5.5,2.58616 c 30.99263,14.57307 30.56624,56.38271 -0.72617,71.20523 L 808.5,548.5 l -296,0.21741 c -291.56882,0.21416 -296.08129,0.18812 -301.43038,-1.739 z m 2.95462,-167.5815 c -39.09316,-10.50529 -38.85584,-66.56943 0.32595,-77.00198 8.24758,-2.19601 586.68763,-2.05274 595.18971,0.14741 40.03142,10.35926 39.14265,66.44942 -1.2195,76.96242 -8.61472,2.24385 -585.93469,2.13908 -594.29616,-0.10785 z"
       id="path1" />
  </g>
</svg>
