<?xml version="1.0" encoding="UTF-8" standalone="no"?>
<!-- Created with Inkscape (http://www.inkscape.org/) -->

<svg
   version="1.1"
   id="svg1"
   width="950.92712"
   height="944.26233"
   viewBox="0 0 950.92712 944.26233"
   xmlns="http://www.w3.org/2000/svg"
   xmlns:svg="http://www.w3.org/2000/svg">
  <defs
     id="defs1" />
  <g
     id="g1"
     transform="translate(-36.769947,-34.564125)">
    <path
       style="fill:#000000"
       d="m 485,978.35041 c -1.925,-0.18124 -9.125,-0.81055 -16,-1.39848 -25.14081,-2.14997 -55.13816,-7.35504 -80.63539,-13.99168 C 321.26374,945.49465 254.04722,909.83119 199.5,862.75323 177.66525,843.90836 147.77626,811.76272 129.5296,787.5 94.952396,741.52243 65.220349,680.42882 52.110367,628.41845 41.076773,584.64559 36.816283,550.78452 36.770262,506.5 36.699262,438.17934 48.636035,378.6337 74.615806,317.71051 106.55968,242.80134 163.08991,172.78836 231.82993,123 277.51952,89.907049 327.87189,66.018991 385.5,50.096192 c 16.8095,-4.64451 48.91922,-10.774733 69.5,-13.268584 16.03613,-1.94316 23.42774,-2.24458 55.5,-2.26322 43.54621,-0.02531 63.51042,1.771341 100.5,9.04435 113.87414,22.39029 221.42956,92.191452 289.51844,187.891262 27.31224,38.3877 49.12769,81.80497 63.81245,127 14.07801,43.32762 20.33758,78.17962 22.79462,126.91564 C 992.54524,592.91776 959.28064,700.5155 893.42486,788.5 847.01387,850.50589 789.80687,897.6943 719.5,931.96559 c -54.49163,26.5621 -106.53486,40.56244 -171,46.00134 -10.89019,0.9188 -54.98556,1.18509 -63.5,0.38348 z m 82.5,-29.24274 C 622.4068,941.6532 668.58359,927.83627 713,905.57143 795.94736,863.99199 859.47482,802.96644 906.32449,719.86065 934.1433,670.51338 952.43356,612.57421 959.15698,552.5 c 1.79901,-16.07432 1.8103,-74.76968 0.0175,-91 C 947.51016,355.90237 903.14413,262.78193 829.57695,189.48602 788.19498,148.25665 736.07365,114.22675 681.19826,92.609928 623.37979,69.833743 566.21936,59.909421 501,61.323499 446.44818,62.506284 402.73842,70.534801 354,88.324152 266.27846,120.3422 190.38534,179.63623 138.10412,257 c -12.77745,18.90758 -18.50303,28.74536 -29.1,50 -22.887896,45.90693 -36.811886,92.71384 -43.135515,145.00443 -1.897724,15.69243 -2.242801,23.64852 -2.276872,52.49557 -0.04336,36.71064 0.595501,45.43416 5.527518,75.47718 C 82.01563,658.53453 114.3505,728.62576 166.93077,792 c 19.34782,23.31965 52.79852,54.98327 77.06923,72.95186 62.7231,46.43644 136.74572,75.20361 217.5,84.52629 20.16597,2.32806 19.96176,2.32089 56.5,1.98406 27.78825,-0.25618 37.41815,-0.71423 49.5,-2.35454 z M 261.99353,783.06566 C 255.13516,780.97944 249.86582,776.57444 246.36416,770 244.73377,766.93891 244.4373,763.36496 244,741.5 l -0.5,-25 -7.2129,-0.56144 c -5.15308,-0.4011 -7.82388,-1.11436 -9.35238,-2.49764 -6.95215,-6.29161 -6.41109,-18.07474 1.00607,-21.9103 1.60092,-0.82787 5.86869,-1.56746 9.49917,-1.64619 l 6.59222,-0.14294 -0.26609,-26.48904 -0.26609,-26.48904 -6.57434,-0.25251 c -3.61588,-0.13888 -7.57746,-0.78937 -8.80351,-1.44553 -5.48979,-2.93805 -7.86603,-12.79241 -4.60522,-19.0981 C 225.69062,611.76381 229.80907,610 237.45034,610 H 244 v -26.35496 -26.35497 l -6.93852,-0.5817 C 226.49864,555.82282 222,551.72834 222,543 c 0,-8.96502 4.79552,-13 15.45034,-13 H 244 v -26.3907 -26.3907 l -7.50021,-0.37874 c -6.83294,-0.34505 -7.77936,-0.6579 -10.63787,-3.5164 -5.72419,-5.72419 -4.94673,-17.28957 1.43016,-21.27474 1.21436,-0.7589 5.47042,-1.5895 9.45792,-1.84577 l 7.25,-0.46596 v -26.2592 -26.25919 l -7.50021,-0.37874 c -6.85779,-0.34631 -7.77281,-0.65134 -10.68272,-3.56125 -2.69023,-2.69023 -3.2479,-4.08673 -3.60535,-9.02837 -0.37643,-5.20408 -0.12974,-6.19421 2.24699,-9.0188 2.98471,-3.54713 7.71269,-5.21755 14.79129,-5.22586 L 244,370 V 343.5 317 h -7.01469 c -6.54682,0 -7.25573,-0.2209 -10.62873,-3.31203 -3.0093,-2.75782 -3.69479,-4.15242 -4.09663,-8.33439 C 221.31858,295.55651 226.14073,291 237.45034,291 H 244 l 0.01,-23.25 c 0.009,-22.32668 0.10354,-23.45138 2.371,-28.32086 2.78866,-5.9888 8.21205,-10.7859 13.97551,-12.36162 3.03814,-0.83062 57.12612,-1.05746 202.72223,-0.8502 l 198.57852,0.28268 4.89505,3.02644 c 3.03222,1.87471 6.04677,4.88857 7.92148,7.91968 l 3.02644,4.89324 0.29317,40.49927 0.29316,40.49927 29.20684,-29.07879 c 28.36923,-28.24487 29.37535,-29.12748 35.08299,-30.77659 6.62588,-1.9144 11.5326,-1.50116 18.43639,1.55271 5.38716,2.383 47.34299,43.46195 50.33518,49.28316 2.59463,5.0478 3.34651,12.1284 1.87759,17.68161 -1.08647,4.10734 -7.02935,10.34897 -68.10783,71.53163 L 678,470.56326 v 147.02202 147.02203 l -2.65371,5.3253 c -2.74317,5.50483 -8.4239,10.44132 -14.66223,12.74131 -2.39744,0.88391 -51.72952,1.17148 -199.68406,1.16405 -108.075,-0.005 -197.62791,-0.35297 -199.00647,-0.77231 z M 653,626.28805 V 495.57609 l -29.25,29.0625 c -28.88525,28.70008 -33.43656,32.53996 -49.25,41.55159 -26.77638,15.2591 -82.19134,39.83444 -90.5,40.13481 -8.10478,0.29299 -14,-5.27891 -14,-13.23218 0,-9.09455 19.92754,-56.08699 42.44519,-100.09281 l 4.86112,-9.5 67.85678,-68.02671 67.85678,-68.0267 -0.25994,-47.4733 L 652.5,252.5 H 461 269.5 l -0.27122,19.14315 -0.27122,19.14315 8.00884,0.3637 c 7.42557,0.33722 8.23827,0.59313 11.15909,3.51395 5.94062,5.94063 4.8035,17.25293 -2.09276,20.81912 C 284.22455,316.41812 280.39513,317 276.04966,317 H 269 v 26.5 26.5 l 5.75,0.0564 c 11.68146,0.11467 17.25,4.66833 17.25,14.10613 0,4.14423 -0.50669,5.41969 -3.41273,8.59074 -3.32133,3.62419 -3.62936,3.73377 -11.5,4.0912 L 269,397.21177 V 423.60589 450 l 5.75,0.0564 c 7.92217,0.0778 12.22961,1.77836 15.05444,5.94356 1.95841,2.88765 2.29899,4.43055 1.94666,8.81874 -0.34765,4.32989 -1.01723,5.90893 -3.60145,8.49315 -2.94735,2.94735 -3.74574,3.20035 -11.16203,3.53714 L 269,477.21177 V 503.5 529.78823 l 7.98762,0.36274 c 7.42818,0.33733 8.2114,0.58651 11.18272,3.55783 2.70392,2.70393 3.26009,4.09374 3.61794,9.04096 0.37672,5.20814 0.13065,6.19314 -2.25572,9.02917 -3.09849,3.68235 -8.58966,5.4918 -15.39437,5.07274 l -4.63819,-0.28563 -0.26613,26.61036 -0.26613,26.61036 8.00375,0.36347 c 7.43408,0.3376 8.22969,0.58941 11.17816,3.53788 2.60616,2.60616 3.24247,4.1265 3.55465,8.49315 0.70304,9.83372 -3.4389,13.79637 -14.74969,14.11123 L 269.5,636.5 v 26.5 26.5 l 7.5,0.50849 c 4.125,0.27966 8.50784,1.0805 9.73965,1.77964 3.08793,1.75262 5.26035,6.34295 5.26035,11.11516 0,8.74028 -4.06371,12.28525 -14.97252,13.06125 L 269.5,716.5 269.22929,736.75 268.95859,757 H 460.97929 653 Z m -308.11765,-24.1704 c -3.4496,-3.4496 -3.88162,-4.42494 -3.87576,-8.75 0.007,-5.35306 2.33728,-9.88065 6.18317,-12.01479 1.77589,-0.98547 12.27957,-1.29019 45.41236,-1.31742 L 435.70423,580 l 3.39789,2.2826 c 2.15162,1.44539 3.92224,3.78738 4.82754,6.38532 1.28081,3.67558 1.24775,4.57901 -0.31749,8.67755 -1.15196,3.01635 -2.87153,5.26974 -5.04769,6.61468 C 435.37563,605.93096 433.80021,606 392.01432,606 h -43.24961 z m 2.4162,-78.07717 c -4.56364,-2.78261 -6.62504,-7.29079 -6.05352,-13.23872 0.55245,-5.74949 3.4211,-9.33631 8.69508,-10.87191 2.32095,-0.67577 22.25991,-0.93094 57.29123,-0.73318 l 53.73135,0.30333 3.18068,3.18126 c 2.62137,2.62184 3.26172,4.1584 3.6415,8.73805 0.53071,6.39975 -0.96464,9.50005 -6.0892,12.62469 -3.06337,1.86786 -5.43125,1.94852 -57.19567,1.94852 -51.79771,0 -54.13057,-0.0796 -57.20145,-1.95204 z m 0,-78.99035 c -5.866,-3.59439 -8.04431,-11.77352 -4.80426,-18.03909 C 345.79821,420.62196 340.12849,421 432.64578,421 h 84.20077 l 3.00997,2.53273 c 6.29939,5.30058 6.34319,14.0273 0.10041,20.0088 l -3.0877,2.95847 -83.18462,0.25591 c -81.12493,0.24957 -83.26388,0.20734 -86.38606,-1.70578 z m -1.91177,-83.33448 c -6.47531,-5.93418 -5.66326,-16.75826 1.57817,-21.03587 C 349.58448,339.13238 359.0773,339 467.41898,339 h 117.61039 l 3.58385,3.28435 c 6.49416,5.95145 5.54959,16.20668 -1.91177,20.75613 -3.12709,1.9067 -5.92533,1.95213 -120.46614,1.95578 L 348.97063,365 Z m 196.54535,192.60767 21.43214,-10.43578 -15.88464,-15.90794 c -8.73654,-8.74936 -15.9713,-15.81156 -16.07724,-15.69377 C 531.06364,512.66249 503,572.19961 503,572.54161 c 0,0.46956 14.18228,-6.16704 38.93213,-18.21829 z m 119.56415,-103.3196 76.99141,-76.99628 -18.98771,-19.00746 -18.9877,-19.00745 -77.25254,77.24772 -77.25254,77.24771 18.73653,18.75602 C 575.04882,519.55979 583.7108,528 583.99256,528 c 0.28177,0 35.15844,-34.64833 77.50372,-76.99628 z m 107.25446,-144.74632 -18.74197,-18.74196 -15.50562,15.48142 -15.50563,15.48142 18.74432,18.76381 18.74432,18.76381 15.50327,-15.50326 15.50327,-15.50327 z"
       id="path1" />
  </g>
</svg>
