<?xml version="1.0" encoding="UTF-8" standalone="no"?>
<!-- Created with Inkscape (http://www.inkscape.org/) -->

<svg
   version="1.1"
   id="svg1"
   width="933.97418"
   height="926.42853"
   viewBox="0 0 933.97418 926.42853"
   xmlns="http://www.w3.org/2000/svg"
   xmlns:svg="http://www.w3.org/2000/svg">
  <defs
     id="defs1" />
  <g
     id="g1"
     transform="translate(-45.182915,-49.137093)">
    <path
       style="fill:#000000"
       d="M 475,974.95073 C 401.11053,968.63165 335.64114,947.59147 272,909.71177 208.61979,871.98737 152.41593,815.49581 113.01001,749.90791 95.399255,720.59626 79.437956,686.45837 69.336789,656.5 51.771552,604.40444 44.010263,554.78767 45.325597,503 46.253707,466.4582 50.195821,437.29542 59.113566,401 83.29261,302.59076 140.34816,214.23357 221.5,149.52563 c 25.53296,-20.35919 61.32455,-42.48275 91,-56.249093 87.46647,-40.575394 186.09412,-53.618542 282,-37.293476 80.85785,13.763596 152.48324,46.840719 218.5,100.904889 13.65891,11.18591 40.72005,37.66447 52.74761,51.61205 63.5602,73.7066 105.26949,173.96526 112.32454,270 1.45346,19.78473 1.44545,52.55894 -0.0171,70 -2.87384,34.27086 -11.47129,74.94483 -22.94899,108.57014 -23.36093,68.43865 -62.56555,131.40322 -113.59644,182.44152 -35.94942,35.95464 -71.09256,61.43602 -118.00962,85.5657 -49.26044,25.33489 -97.26385,40.0574 -156.5,47.99809 -12.33729,1.65384 -22.23351,2.14875 -48.5,2.42552 -18.15,0.19125 -37.725,-0.0564 -43.5,-0.55024 z m 65.17045,-32.98919 c 88.11726,-5.96926 166.73373,-34.96501 235.63098,-86.9067 C 822.11639,820.13795 862.26545,773.86529 892.54963,720.5 923.22615,666.44334 942.65847,601.751 947.09303,538.91899 948.48013,519.26565 947.70278,484.2389 945.45255,465 935.84503,382.85817 898.52934,297.49528 843.60938,232.02487 833.14687,219.55245 808.27105,194.98359 794.18575,183.21112 722.23927,123.07835 636.55376,88.455272 543.5,81.916134 522.89725,80.468323 483.00071,81.251941 464.5,83.467792 377.51281,93.88635 301.68266,125.85409 234.09098,180.6014 216.9154,194.51313 189.50084,221.57374 175.43507,238.5 117.62014,308.07251 83.761151,391.41959 76.921668,481 c -1.43167,18.75136 -0.683555,56.38865 1.465663,73.73684 7.03809,56.81048 25.929669,116.33175 51.289299,161.59602 32.48657,57.98512 79.05545,110.5484 129.81893,146.52937 82.51845,58.48878 179.88096,85.92732 280.67489,79.09931 z M 673.99353,798.06566 c -9.03604,-2.74864 -16.23426,-10.44464 -19.09336,-20.41374 -0.46768,-1.63071 -0.94274,-73.882 -1.05569,-160.55842 -0.11295,-86.67643 -0.46166,-162.0586 -0.77492,-167.51593 l -0.56956,-9.92244 -20,15.97694 c -11,8.78731 -21.79196,17.18991 -23.98213,18.67243 -7.02694,4.75652 -10.0987,3.88478 -32.01787,-9.08641 -48.95262,-28.96888 -77.86048,-46.86463 -80.42998,-49.79112 -6.17856,-7.03699 -6.47092,-16.65349 -0.76286,-25.09253 4.29984,-6.35708 10.07598,-9.33516 18.10012,-9.33216 7.32566,0.003 8.74607,0.75995 52.39492,27.93116 16.1162,10.03226 29.8412,18.0136 30.5,17.73629 0.65879,-0.2773 7.4978,-5.96844 15.1978,-12.64699 38.10164,-33.04719 46.64488,-39.9884 52.73807,-42.84858 C 676.04954,365.62977 677.50777,365.5 728,365.5 c 41.33462,0 47.22204,0.19626 53,1.76678 19.18945,5.21593 35.07888,19.36047 42.92732,38.21328 4.60722,11.06703 11.91301,40.75474 21.03446,85.47529 14.28734,70.0478 15.04921,76.18379 10.63606,85.66168 -3.81304,8.18908 -11.00708,12.74663 -20.09784,12.73233 -7.19364,-0.0113 -12.68161,-2.5143 -17.46978,-7.96772 -4.81344,-5.48221 -5.80287,-8.63943 -8.50279,-27.13196 C 804.01287,516.47889 793.6922,458.33623 792.26502,457 c -0.29372,-0.275 -0.22204,71.19171 0.15928,158.81491 0.7892,181.34963 1.50723,165.384 -7.85908,174.75031 -6.58243,6.58242 -12.95174,8.89051 -22.62416,8.19845 -10.68947,-0.76483 -18.67728,-6.45781 -23.13483,-16.48837 -2.12994,-4.79289 -2.56812,-10.98785 -5.81944,-82.2753 -1.11627,-24.475 -2.46121,-53.95 -2.98875,-65.5 -0.52755,-11.55 -1.2253,-23.3625 -1.55056,-26.25 L 727.85609,603 h -5.3086 -5.30859 l -0.65224,10.25 c -0.63697,10.00986 -3.12086,60.02059 -6.07181,122.25 -2.16274,45.60767 -2.35189,46.68905 -9.61323,54.95926 -6.21236,7.07549 -17.84407,10.36355 -26.90809,7.6064 z M 275.3783,684.56308 C 271.28044,682.77959 269,679.37976 269,675.05389 269,671.58337 283.06168,642.8307 317.91183,575.04129 325.11032,561.03901 331,549.22651 331,548.79129 331,548.35608 307.6071,548 279.01578,548 H 227.03155 L 223.76578,545.08213 220.5,542.16425 220,385.26489 c -0.275,-86.29465 -0.275,-160.61885 0,-165.16489 0.47153,-7.79483 0.68597,-8.43165 3.76578,-11.18276 L 227.03155,206 h 197.03389 c 174.16254,0 197.37439,0.17608 199.96729,1.51693 6.20301,3.2077 5.97137,-0.0638 5.92526,83.68341 l -0.042,76.29966 -8.4924,6.29459 c -4.67083,3.46202 -9.15192,6.54767 -9.958,6.85699 C 610.18589,381.14264 610,371.37004 610,303.60434 V 225.9947 L 425.25,226.24735 240.5,226.5 l 0.23035,150.39701 c 0.12669,82.71836 0.37359,150.54026 0.54866,150.71533 0.17508,0.17508 83.20897,0.44642 184.51976,0.60299 L 610.00021,528.5 610.0001,514.36078 c -8e-5,-12.04092 0.2596,-14.43466 1.7499,-16.13008 C 613.52717,496.20893 628.55662,485 629.49033,485 c 0.28032,0 0.50799,12.2625 0.50593,27.25 -0.003,25.47129 -0.13407,27.46377 -2.00046,30.52493 -1.09819,1.8012 -3.15081,3.7137 -4.56136,4.25 C 621.88021,547.61584 599.0014,548 565.36282,548 h -55.50699 l 9.94358,19.25 c 34.04427,65.90706 53.40817,105.08967 53.49782,108.25211 0.16435,5.79805 -7.0942,11.29302 -13.05565,9.88359 -5.9034,-1.39571 -5.84822,-1.29983 -44.2498,-76.8857 -8.94172,-17.6 -19.60013,-38.4158 -23.68535,-46.25733 l -7.42768,-14.25732 -64.08216,0.25732 -64.08217,0.25733 -12.90472,25 c -7.0976,13.75 -22.61987,44.06117 -34.49394,67.35815 -19.88571,39.01588 -21.85205,42.46798 -24.92037,43.75 -4.05529,1.69442 -5.03154,1.68954 -9.01709,-0.0451 z m 10.92425,-263.76012 c -3.06161,-1.47921 -5.59521,-7.19399 -4.79819,-10.8228 0.35347,-1.60935 1.99412,-4.06326 3.64588,-5.45313 L 288.15345,402 h 58.97294 c 64.67698,0 63.33834,-0.12068 65.84717,5.93618 1.72397,4.16203 0.54713,9.50908 -2.6456,12.02049 -2.55234,2.00767 -3.63821,2.04215 -62.21282,1.97565 -39.87041,-0.0453 -60.34294,-0.41931 -61.81259,-1.12936 z m -2.37947,-63.72604 C 279.69625,352.8501 279.86774,347.93226 284.4,343.4 l 3.4,-3.4 h 88.66574 c 63.33364,0 89.28979,0.31914 90.85,1.11704 6.0912,3.11507 7.54172,10.52204 3.09537,15.80623 L 467.82221,360 H 377.33418 286.84615 Z M 714,354.30962 c -20.75888,-3.47104 -39.14517,-20.41236 -44.51091,-41.01281 -1.75193,-6.72611 -1.93706,-19.02067 -0.399,-26.49759 0.59955,-2.91457 2.88229,-9.0528 5.07276,-13.6405 12.12829,-25.40142 43.10155,-37.88883 69.48938,-28.01588 28.05736,10.49761 42.90073,42.33742 33.00403,70.79538 -3.00559,8.64258 -10.31538,19.75552 -16.46433,25.03044 C 747.99546,351.4315 729.21918,356.85438 714,354.30962 Z M 287.38812,297.01993 C 284.40087,295.81295 281,291.17036 281,288.2994 c 0,-3.10176 1.65236,-6.32819 4.36704,-8.52716 1.99469,-1.61577 10.08578,-1.72921 124.81786,-1.75 75.75566,-0.0137 123.64778,0.34385 125.2021,0.9348 2.69797,1.02576 5.613,5.67188 5.613,8.94625 0,3.38117 -2.25102,7.17516 -5.14503,8.67171 -2.34277,1.21149 -21.00486,1.4155 -124.55531,1.36161 -66.98981,-0.0349 -122.75001,-0.44737 -123.91154,-0.91668 z"
       id="path1" />
  </g>
</svg>
