<?xml version="1.0" encoding="UTF-8" standalone="no"?>
<!-- Created with Inkscape (http://www.inkscape.org/) -->

<svg
   version="1.1"
   id="svg1"
   width="780.37592"
   height="737.44458"
   viewBox="0 0 780.37592 737.44458"
   xmlns="http://www.w3.org/2000/svg"
   xmlns:svg="http://www.w3.org/2000/svg">
  <defs
     id="defs1" />
  <g
     id="g1"
     transform="translate(-121.62408,-132)">
    <path
       style="fill:#000000"
       d="m 687.5,869.02637 c -21.87125,-2.11605 -47.94598,-11.7891 -69.5,-25.7827 -29.5755,-19.20142 -57.58694,-49.92858 -71.64352,-78.58939 l -2.58921,-5.2793 -8.63363,2.30708 c -4.7485,1.26889 -13.35864,3.0536 -19.13364,3.96601 l -10.5,1.65894 -15.5,-0.0228 -15.5,-0.0228 -8.5,-1.16207 c -4.675,-0.63914 -14.07309,-2.53331 -20.88465,-4.20927 l -12.38464,-3.04719 -11.96479,-4.85757 -11.96479,-4.85757 -9.27437,-5.53451 c -5.1009,-3.04398 -13.04366,-8.32468 -17.65056,-11.73489 L 373.5,725.65796 362.42169,714.57898 351.34338,703.5 l -6.62825,-8.94179 c -3.64554,-4.91798 -7.96672,-11.43619 -9.60262,-14.48489 l -2.97436,-5.5431 -23.31907,-0.11533 L 285.5,674.29957 276,672.60616 C 234.52728,665.21353 202.78237,648.75673 173.48966,619.46402 149.00922,594.98358 133.38253,566.68837 126.014,533.5 l -1.99819,-9 -1.19586,-14.73973 -1.19587,-14.73973 1.19889,-13.76027 c 3.99918,-45.90106 22.61587,-85.18343 55.39436,-116.88559 15.11316,-14.61688 36.14915,-29.05534 52.38586,-35.95604 l 6.5594,-2.78778 -0.46791,-2.44769 c -0.25735,-1.34624 -0.0523,-7.67568 0.45568,-14.06543 6.98316,-87.84103 79.00111,-164.40976 165.15086,-175.58667 L 414.10243,132 l 10.69879,0.0312 c 5.88433,0.0172 15.87378,0.64732 22.19878,1.40035 l 11.5,1.36916 12.89474,3.17276 c 28.09325,6.91237 49.27797,17.09556 74.26308,35.69723 l 11.15781,8.3071 9.27023,9.26111 c 8.64235,8.63383 22.63851,24.65925 24.6038,28.17103 l 0.86331,1.54266 6.97465,-2.35969 c 3.83606,-1.29783 10.79914,-3.18851 15.47352,-4.20151 l 8.49886,-1.84182 18.5,-0.0119 18.5,-0.0119 8.5,1.79952 c 19.80145,4.19211 37.12941,11.49788 53.93893,22.74158 l 9.33235,6.24231 9.95481,9.55486 9.95481,9.55487 6.43871,8.54057 6.43872,8.54057 5.94677,12 5.94677,12 2.48791,8.73711 c 1.36836,4.80541 2.78612,10.98506 3.15058,13.73256 l 0.66267,4.99544 1.12349,0.80584 c 0.61791,0.44322 5.69777,2.26785 11.28858,4.05474 l 10.16509,3.24889 10.08379,5.21271 c 5.54608,2.86699 14.2369,8.13771 19.31293,11.71271 l 9.22915,6.5 10.56989,10.5 10.56989,10.5 6.13631,8.66878 c 15.94408,22.52422 25.96212,46.85561 29.72442,72.1934 L 902,474.75668 V 488.5 502.24332 l -1.54558,10.62834 c -4.08695,28.10435 -14.2239,52.38103 -31.441,75.29713 l -7.76194,10.33121 -11.42345,11.06009 -11.42345,11.06009 -9.45229,6.54271 c -22.20445,15.36954 -44.35364,24.37342 -68.45229,27.82658 -4.4,0.63049 -9.0125,1.34936 -10.25,1.59749 L 748,657.0381 v 2.87048 c 0,9.60742 -5.99099,30.95845 -12.53164,44.66098 l -4.32919,9.06956 -6.23844,8.41377 c -3.43114,4.62758 -9.59032,11.69039 -13.68707,15.69513 l -7.44864,7.28134 -8.22119,5.47019 c -4.52166,3.00861 -10.37533,6.42307 -13.00816,7.5877 l -4.78697,2.1175 0.65742,5.59357 c 1.22465,10.4199 3.69113,20.65644 8.22445,34.13356 l 4.51809,13.43189 5.2781,10.56811 c 5.22153,10.45482 10.31559,19.20568 16.42348,28.21314 L 716,856.79005 v 2.67072 c 0,3.67369 -1.56065,6.26096 -4.77964,7.92374 l -2.72036,1.40521 -6.5,0.50533 c -3.575,0.27793 -10.1,0.15703 -14.5,-0.26868 z m 3.5,-17.64556 c 0,-0.34055 -1.60141,-3.25539 -3.55868,-6.47741 -13.74706,-22.63009 -24.33617,-54.19814 -27.56327,-82.17104 l -1.24221,-10.76764 1.93779,-2.59547 1.9378,-2.59547 6.04228,-2.18785 c 19.15275,-6.93505 36.47267,-22.03056 48.18388,-41.99559 l 4.6397,-7.90967 3.23598,-9.59033 3.23599,-9.59034 1.57537,-9.42622 C 730.29108,660.88937 731,654.21725 731,651.24686 v -5.40071 l 2.76374,-2.76373 2.76373,-2.76374 7.94565,-0.72001 C 813.79479,633.3169 870.48191,581.96803 882.5771,514.5 l 1.79273,-10 -0.0213,-15.5 -0.0213,-15.5 -1.77646,-10 C 879.0593,443.84611 871.13822,424.45496 859.28449,406.54322 L 852.63802,396.5 l -10.09722,-10 -10.09722,-10 -8.03976,-5.71825 c -4.42187,-3.14503 -12.5941,-7.9858 -18.16051,-10.75725 C 796.64718,355.2467 777.03464,348 773.70008,348 c -0.85065,0 -2.88733,-1.12813 -4.52597,-2.50695 l -2.97935,-2.50696 -0.66147,-6.24304 c -1.00037,-9.44163 -4.31725,-22.02682 -8.33599,-31.62914 l -3.60507,-8.61391 -6.7038,-10 -6.70381,-10 -9.34231,-9.12068 -9.34231,-9.12068 -10.15751,-6.64344 c -14.99737,-9.80893 -30.16779,-15.98661 -47.29938,-19.26121 l -8.54311,-1.63297 -15,-0.0407 -15,-0.0407 -8.5,1.79334 c -4.675,0.98634 -12.93524,3.36882 -18.35609,5.2944 l -9.8561,3.50105 -3.06091,-0.87786 -3.06092,-0.87786 -6.45966,-8.98638 C 566.93702,217.59132 558.04392,207.9425 545.68368,197.36989 517.4985,173.26111 488.30418,159.31628 453.5,153.3379 l -10,-1.71772 -19,-0.004 -19,-0.004 -9.47696,1.76371 c -5.21233,0.97005 -14.81272,3.5474 -21.33421,5.72746 l -11.85725,3.96374 -10.7038,5.36816 C 302.67683,193.23583 266.2617,241.483 256.38619,295.28528 l -1.5077,8.21405 -0.51416,15 -0.51416,15 -0.99728,2.63141 -0.99729,2.63141 -3.1778,1.58448 c -1.74779,0.87146 -8.3528,3.99731 -14.6778,6.94635 -46.84822,21.84301 -80.01859,63.92715 -91.05918,115.52924 l -2.07048,9.67711 -0.54254,16.5 -0.54253,16.5 1.61234,12.20835 1.61235,12.20835 3.51883,11.60893 c 18.54671,61.18734 71.40267,104.7413 138.25559,113.92433 L 296.06876,657 l 12.21562,10e-4 12.21562,10e-4 8.19546,-1.14518 8.19546,-1.14519 3.11377,1.28976 3.11377,1.28977 2.8646,5.67474 c 20.77249,41.15006 62.58242,72.59333 109.90421,82.65375 l 11.61273,2.46882 15.5,0.57119 15.5,0.57119 12,-1.67187 c 12.77295,-1.77955 23.3845,-4.22348 32.76705,-7.54654 l 5.76705,-2.04254 2.5392,0.6373 2.5392,0.6373 5.83791,12.12748 c 23.06082,47.90577 65.8956,84.7731 112.61909,96.92975 8.70021,2.26365 11.7905,2.90181 17.1805,3.54789 0.6875,0.0824 1.25,-0.12881 1.25,-0.46936 z M 506.40709,605.89258 c -2.2511,-0.40406 -6.16808,-1.7101 -8.70439,-2.9023 l -4.61148,-2.16765 -3.98305,-4.3211 c -5.08827,-5.52012 -8.71144,-12.69585 -10.72582,-21.2426 l -1.59302,-6.75893 0.53552,-20 0.53552,-20 2.56459,-15.5 c 1.41052,-8.525 2.78544,-16.625 3.05537,-18 l 0.49078,-2.5 -1.23556,1.88142 c -4.88775,7.44274 -15.80131,20.41093 -22.87485,27.18136 l -8.42375,8.06277 -6.3782,3.18723 -6.37819,3.18722 -5.09028,-0.022 -5.09028,-0.022 -4,-1.83681 c -2.2,-1.01025 -4.84072,-2.7821 -5.86826,-3.93746 l -1.86827,-2.10065 -0.4848,-4.30115 -0.4848,-4.30115 2.73943,-2.73943 L 421.27273,514 h 2.21441 c 1.21793,0 3.61812,0.48934 5.33376,1.08741 l 3.11935,1.08741 3.62749,-1.19718 3.62749,-1.19718 7.04146,-6.64023 c 17.69622,-16.68789 32.14377,-40.52406 46.77713,-77.17484 9.10025,-22.79253 11.23464,-26.46365 17.18652,-29.5604 L 512.90068,399 l 4.29966,0.0354 4.29966,0.0354 2.31024,1.28199 c 1.27064,0.7051 3.18017,2.60165 4.24342,4.21457 l 1.93316,2.93257 0.007,4.38809 0.007,4.38808 -6.44936,30.61192 c -7.47431,35.473 -16.02334,80.20049 -18.08456,94.61198 l -1.43026,10 -0.0183,10.5685 -0.0183,10.5685 1.46933,4.94778 1.46933,4.94777 3.10447,1.83386 3.10447,1.83385 4.54876,-1.14539 c 5.98498,-1.50704 12.139,-4.71509 21.3036,-11.10541 l 7.5,-5.22964 19.16881,-19.35991 L 584.83762,530 h 4.4262 4.4262 l 1.85187,2.04629 1.85186,2.04628 -0.0987,3.48285 -0.0987,3.48284 -3.95267,5.23528 c -12.91089,17.10035 -36.37144,39.80628 -51.33386,49.68267 l -8.59023,5.67024 -6.90977,2.11581 c -8.11817,2.48583 -14.33396,3.14782 -20.00268,2.13032 z M 501.48141,354.6679 c -1.66023,-0.75721 -4.45053,-3.00764 -6.20068,-5.00095 l -3.18208,-3.62419 -0.67778,-3.61287 c -0.37278,-1.98708 -0.40508,-5.9342 -0.0718,-8.77138 l 0.60601,-5.15851 3.69749,-7.5 3.6975,-7.5 5.57495,-5.56403 5.57496,-5.56403 5.82488,-2.83996 5.82489,-2.83996 4.86893,-0.46784 c 2.67791,-0.25731 6.49607,-0.16259 8.48478,0.2105 l 3.61585,0.67833 3.88455,3.50946 3.88456,3.50947 1.18002,3.57551 1.18003,3.57551 -0.47619,6.65532 -0.47618,6.65533 -3.31831,6.95319 -3.3183,6.9532 -5.63342,5.63366 -5.63341,5.63366 -5.44634,2.78007 -5.44634,2.78006 -7.5,0.3586 -7.5,0.35861 z"
       id="path1" />
  </g>
</svg>
